# Densetsu Tool Suite OBJ Export
o stairsWoodHandrail_Mesh_rail
mtllib stairsWoodHandrail_Mesh\ rail.mtl
g surface_0
usemtl wood
v 0.592498 0.249995 -0.030007
v 0.592498 0.249995 -0.010002
v 0.592498 0.522492 -0.010002
v 0.592498 0.522492 -0.030007
v 0.000000 1.195000 -0.040002
v 0.000000 1.195000 0.000000
v 0.000000 1.114987 0.000000
v 0.000000 1.114987 -0.040002
v 0.842490 0.272497 -0.010002
v 0.842490 0.000000 -0.010002
v 0.802490 0.000000 -0.010002
v 0.802490 0.312485 -0.010002
v 0.342490 0.772488 -0.010002
v 0.342490 0.499991 -0.010002
v 0.302490 0.499991 -0.010002
v 0.302490 0.812494 -0.010002
v 0.802490 0.312485 -0.030007
v 0.802490 0.000000 -0.030007
v 0.842490 0.000000 -0.030007
v 0.842490 0.272497 -0.030007
v 0.000000 1.114987 -0.040002
v 0.000000 1.114987 0.000000
v 0.052498 1.062490 -0.010002
v 0.842490 0.272497 -0.010002
v 1.020000 0.094984 0.000000
v 0.052498 1.062490 -0.030007
v 1.020000 0.094984 -0.040002
v 0.092498 1.022483 -0.010002
v 0.092498 1.022483 -0.030007
v 0.302490 0.812494 -0.010002
v 0.302490 0.812494 -0.030007
v 0.342490 0.772488 -0.010002
v 0.842490 0.272497 -0.030007
v 0.552498 0.562499 -0.010002
v 0.342490 0.772488 -0.030007
v 0.592498 0.522492 -0.010002
v 0.552498 0.562499 -0.030007
v 0.802490 0.312485 -0.010002
v 0.592498 0.522492 -0.030007
v 0.802490 0.312485 -0.030007
v 0.302490 0.812494 -0.030007
v 0.302490 0.499991 -0.030007
v 0.342490 0.499991 -0.030007
v 0.342490 0.772488 -0.030007
v 1.020000 0.094984 -0.040002
v 1.020000 0.094984 0.000000
v 1.020000 0.174997 0.000000
v 1.020000 0.174997 -0.040002
v 0.092498 1.022483 -0.010002
v 0.092498 0.749986 -0.010002
v 0.052498 0.749986 -0.010002
v 0.052498 1.062490 -0.010002
v 0.052498 1.062490 -0.030007
v 0.052498 1.062490 -0.010002
v 0.052498 0.749986 -0.010002
v 0.052498 0.749986 -0.030007
v 0.000000 1.114987 -0.040002
v 1.020000 0.094984 -0.040002
v 1.020000 0.174997 -0.040002
v 0.000000 1.195000 -0.040002
v 0.302490 0.812494 -0.030007
v 0.302490 0.812494 -0.010002
v 0.302490 0.499991 -0.010002
v 0.302490 0.499991 -0.030007
v 0.342490 0.499991 -0.030007
v 0.342490 0.499991 -0.010002
v 0.342490 0.772488 -0.010002
v 0.342490 0.772488 -0.030007
v 1.020000 0.174997 0.000000
v 1.020000 0.094984 0.000000
v 0.000000 1.114987 0.000000
v 0.000000 1.195000 0.000000
v 0.842490 0.000000 -0.030007
v 0.842490 0.000000 -0.010002
v 0.842490 0.272497 -0.010002
v 0.842490 0.272497 -0.030007
v 0.052498 1.062490 -0.030007
v 0.052498 0.749986 -0.030007
v 0.092498 0.749986 -0.030007
v 0.092498 1.022483 -0.030007
v 0.592498 0.522492 -0.010002
v 0.592498 0.249995 -0.010002
v 0.552498 0.249995 -0.010002
v 0.552498 0.562499 -0.010002
v 0.802490 0.312485 -0.030007
v 0.802490 0.312485 -0.010002
v 0.802490 0.000000 -0.010002
v 0.802490 0.000000 -0.030007
v 0.092498 0.749986 -0.030007
v 0.092498 0.749986 -0.010002
v 0.092498 1.022483 -0.010002
v 0.092498 1.022483 -0.030007
v 1.020000 0.174997 -0.040002
v 1.020000 0.174997 0.000000
v 0.000000 1.195000 0.000000
v 0.000000 1.195000 -0.040002
v 0.552498 0.562499 -0.030007
v 0.552498 0.249995 -0.030007
v 0.592498 0.249995 -0.030007
v 0.592498 0.522492 -0.030007
v 0.552498 0.562499 -0.030007
v 0.552498 0.562499 -0.010002
v 0.552498 0.249995 -0.010002
v 0.552498 0.249995 -0.030007
v 1.020000 0.174997 -0.460006
v 1.020000 0.094984 -0.460006
v 0.000000 1.114987 -0.460006
v 0.000000 1.195000 -0.460006
v 0.000000 1.114987 -0.500000
v 1.020000 0.094984 -0.500000
v 1.020000 0.174997 -0.500000
v 0.000000 1.195000 -0.500000
v 0.802490 0.312485 -0.490005
v 0.802490 0.000000 -0.490005
v 0.842490 0.000000 -0.490005
v 0.842490 0.272497 -0.490005
v 0.302490 0.812494 -0.490005
v 0.302490 0.499991 -0.490005
v 0.342490 0.499991 -0.490005
v 0.342490 0.772488 -0.490005
v 0.000000 1.195000 -0.500000
v 0.000000 1.195000 -0.460006
v 0.000000 1.114987 -0.460006
v 0.000000 1.114987 -0.500000
v 0.342490 0.772488 -0.470001
v 0.342490 0.499991 -0.470001
v 0.302490 0.499991 -0.470001
v 0.302490 0.812494 -0.470001
v 0.000000 1.114987 -0.500000
v 0.000000 1.114987 -0.460006
v 0.052498 1.062490 -0.470001
v 0.842490 0.272497 -0.470001
v 1.020000 0.094984 -0.460006
v 0.052498 1.062490 -0.490005
v 1.020000 0.094984 -0.500000
v 0.092498 1.022483 -0.470001
v 0.092498 1.022483 -0.490005
v 0.302490 0.812494 -0.470001
v 0.302490 0.812494 -0.490005
v 0.342490 0.772488 -0.470001
v 0.842490 0.272497 -0.490005
v 0.552498 0.562499 -0.470001
v 0.342490 0.772488 -0.490005
v 0.592498 0.522492 -0.470001
v 0.552498 0.562499 -0.490005
v 0.802490 0.312485 -0.470001
v 0.592498 0.522492 -0.490005
v 0.802490 0.312485 -0.490005
v 0.842490 0.272497 -0.470001
v 0.842490 0.000000 -0.470001
v 0.802490 0.000000 -0.470001
v 0.802490 0.312485 -0.470001
v 0.842490 0.000000 -0.490005
v 0.842490 0.000000 -0.470001
v 0.842490 0.272497 -0.470001
v 0.842490 0.272497 -0.490005
v 0.092498 1.022483 -0.470001
v 0.092498 0.749986 -0.470001
v 0.052498 0.749986 -0.470001
v 0.052498 1.062490 -0.470001
v 1.020000 0.174997 -0.500000
v 1.020000 0.174997 -0.460006
v 0.000000 1.195000 -0.460006
v 0.000000 1.195000 -0.500000
v 0.552498 0.562499 -0.490005
v 0.552498 0.249995 -0.490005
v 0.592498 0.249995 -0.490005
v 0.592498 0.522492 -0.490005
v 0.552498 0.562499 -0.490005
v 0.552498 0.562499 -0.470001
v 0.552498 0.249995 -0.470001
v 0.552498 0.249995 -0.490005
v 0.092498 0.749986 -0.490005
v 0.092498 0.749986 -0.470001
v 0.092498 1.022483 -0.470001
v 0.092498 1.022483 -0.490005
v 1.020000 0.094984 -0.500000
v 1.020000 0.094984 -0.460006
v 1.020000 0.174997 -0.460006
v 1.020000 0.174997 -0.500000
v 0.592498 0.249995 -0.490005
v 0.592498 0.249995 -0.470001
v 0.592498 0.522492 -0.470001
v 0.592498 0.522492 -0.490005
v 0.052498 1.062490 -0.490005
v 0.052498 0.749986 -0.490005
v 0.092498 0.749986 -0.490005
v 0.092498 1.022483 -0.490005
v 0.342490 0.499991 -0.490005
v 0.342490 0.499991 -0.470001
v 0.342490 0.772488 -0.470001
v 0.342490 0.772488 -0.490005
v 0.802490 0.312485 -0.490005
v 0.802490 0.312485 -0.470001
v 0.802490 0.000000 -0.470001
v 0.802490 0.000000 -0.490005
v 0.592498 0.522492 -0.470001
v 0.592498 0.249995 -0.470001
v 0.552498 0.249995 -0.470001
v 0.552498 0.562499 -0.470001
v 0.302490 0.812494 -0.490005
v 0.302490 0.812494 -0.470001
v 0.302490 0.499991 -0.470001
v 0.302490 0.499991 -0.490005
v 0.052498 1.062490 -0.490005
v 0.052498 1.062490 -0.470001
v 0.052498 0.749986 -0.470001
v 0.052498 0.749986 -0.490005
vt 1.180797 9.842672
vt 0.392780 9.842672
vt 0.392780 20.571924
vt 1.180797 20.571924
vt -1.575416 47.047245
vt -0.000613 47.047245
vt -0.000613 43.898029
vt -1.575416 43.898029
vt 33.168297 10.729400
vt 33.168297 0.000148
vt 31.593494 0.000148
vt 31.593494 12.303305
vt 13.483870 30.414450
vt 13.483870 19.685198
vt 11.909066 19.685198
vt 11.909066 31.988352
vt -31.594721 12.303305
vt -31.594721 0.000148
vt -33.169525 0.000148
vt -33.169525 10.729400
vt -1.575416 31.041199
vt -0.000613 31.041199
vt -0.394008 28.118235
vt -0.394008 -15.866776
vt -0.000613 -25.750050
vt -1.182023 28.118235
vt -1.575416 -25.750050
vt -0.394008 25.890877
vt -1.182023 25.890877
vt -0.394008 14.199015
vt -1.182023 14.199015
vt -0.394008 11.971660
vt -1.182023 -15.866776
vt -0.394008 0.278393
vt -1.182023 11.971660
vt -0.394008 -1.947557
vt -1.182023 0.278393
vt -0.394008 -13.640826
vt -1.182023 -1.947557
vt -1.182023 -13.640826
vt -11.910292 31.988352
vt -11.910292 19.685198
vt -13.485095 19.685198
vt -13.485095 30.414450
vt 1.574190 3.740982
vt -0.000613 3.740982
vt -0.000613 6.890198
vt 1.574190 6.890198
vt 3.641658 40.256969
vt 3.641658 29.527719
vt 2.066855 29.527719
vt 2.066855 41.830875
vt -1.182023 41.830875
vt -0.394008 41.830875
vt -0.394008 29.527719
vt -1.182023 29.527719
vt -0.000613 43.898029
vt -40.157482 3.740982
vt -40.157482 6.890198
vt -0.000613 47.047245
vt -1.182023 31.988352
vt -0.394008 31.988352
vt -0.394008 19.685198
vt -1.182023 19.685198
vt 1.180797 19.685198
vt 0.392780 19.685198
vt 0.392780 30.414450
vt 1.180797 30.414450
vt 40.157482 6.890198
vt 40.157482 3.740982
vt -0.000613 43.898029
vt -0.000613 47.047245
vt 1.180797 0.000148
vt 0.392780 0.000148
vt 0.392780 10.729400
vt 1.180797 10.729400
vt -2.068078 41.830875
vt -2.068078 29.527719
vt -3.642881 29.527719
vt -3.642881 40.256969
vt 23.326082 20.571924
vt 23.326082 9.842672
vt 21.751278 9.842672
vt 21.751278 22.145830
vt -1.182023 12.303305
vt -0.394008 12.303305
vt -0.394008 0.000148
vt -1.182023 0.000148
vt 1.180797 29.527719
vt 0.392780 29.527719
vt 0.392780 40.256969
vt 1.180797 40.256969
vt 1.574190 -23.522696
vt -0.000613 -23.522696
vt -0.000613 33.268555
vt 1.574190 33.268555
vt -21.752504 22.145830
vt -21.752504 9.842672
vt -23.327307 9.842672
vt -23.327307 20.571924
vt -1.182023 22.145830
vt -0.394008 22.145830
vt -0.394008 9.842672
vt -1.182023 9.842672
vt 40.157482 6.890198
vt 40.157482 3.740982
vt -0.000613 43.898029
vt -0.000613 47.047245
vt -0.000613 43.898029
vt -40.157482 3.740982
vt -40.157482 6.890198
vt -0.000613 47.047245
vt -31.594721 12.303305
vt -31.594721 0.000148
vt -33.169525 0.000148
vt -33.169525 10.729400
vt -11.910292 31.988352
vt -11.910292 19.685198
vt -13.485095 19.685198
vt -13.485095 30.414450
vt -19.685040 47.047245
vt -18.111462 47.047245
vt -18.111462 43.898029
vt -19.685040 43.898029
vt 13.483870 30.414450
vt 13.483870 19.685198
vt 11.909066 19.685198
vt 11.909066 31.988352
vt -19.685040 31.041199
vt -18.111462 31.041199
vt -18.504858 28.118235
vt -18.504858 -15.866776
vt -18.111462 -25.750050
vt -19.291645 28.118235
vt -19.685040 -25.750050
vt -18.504858 25.890877
vt -19.291645 25.890877
vt -18.504858 14.199015
vt -19.291645 14.199015
vt -18.504858 11.971660
vt -19.291645 -15.866776
vt -18.504858 0.278393
vt -19.291645 11.971660
vt -18.504858 -1.947557
vt -19.291645 0.278393
vt -18.504858 -13.640826
vt -19.291645 -1.947557
vt -19.291645 -13.640826
vt 33.168297 10.729400
vt 33.168297 0.000148
vt 31.593494 0.000148
vt 31.593494 12.303305
vt 19.290419 0.000148
vt 18.503632 0.000148
vt 18.503632 10.729400
vt 19.290419 10.729400
vt 3.641658 40.256969
vt 3.641658 29.527719
vt 2.066855 29.527719
vt 2.066855 41.830875
vt 19.683817 -23.522696
vt 18.110239 -23.522696
vt 18.110239 33.268555
vt 19.683817 33.268555
vt -21.752504 22.145830
vt -21.752504 9.842672
vt -23.327307 9.842672
vt -23.327307 20.571924
vt -19.291645 22.145830
vt -18.504858 22.145830
vt -18.504858 9.842672
vt -19.291645 9.842672
vt 19.290419 29.527719
vt 18.503632 29.527719
vt 18.503632 40.256969
vt 19.290419 40.256969
vt 19.683817 3.740982
vt 18.110239 3.740982
vt 18.110239 6.890198
vt 19.683817 6.890198
vt 19.290419 9.842672
vt 18.503632 9.842672
vt 18.503632 20.571924
vt 19.290419 20.571924
vt -2.068078 41.830875
vt -2.068078 29.527719
vt -3.642881 29.527719
vt -3.642881 40.256969
vt 19.290419 19.685198
vt 18.503632 19.685198
vt 18.503632 30.414450
vt 19.290419 30.414450
vt -19.291645 12.303305
vt -18.504858 12.303305
vt -18.504858 0.000148
vt -19.291645 0.000148
vt 23.326082 20.571924
vt 23.326082 9.842672
vt 21.751278 9.842672
vt 21.751278 22.145830
vt -19.291645 31.988352
vt -18.504858 31.988352
vt -18.504858 19.685198
vt -19.291645 19.685198
vt -19.291645 41.830875
vt -18.504858 41.830875
vt -18.504858 29.527719
vt -19.291645 29.527719
vn 1.000000 0.000015 0.000024
vn 1.000000 0.000015 0.000024
vn 1.000000 0.000015 0.000024
vn 1.000000 0.000015 0.000024
vn -1.000000 -0.000015 0.000024
vn -1.000000 -0.000015 0.000024
vn -1.000000 -0.000015 0.000024
vn -1.000000 -0.000015 0.000024
vn -0.000048 0.000000 1.000000
vn -0.000048 0.000000 1.000000
vn -0.000048 0.000000 1.000000
vn -0.000048 0.000000 1.000000
vn -0.000048 0.000000 1.000000
vn -0.000048 0.000000 1.000000
vn -0.000048 0.000000 1.000000
vn -0.000048 0.000000 1.000000
vn 0.000000 0.000031 -1.000000
vn 0.000000 -0.000031 -1.000000
vn 0.000000 -0.000031 -1.000000
vn 0.000000 0.000031 -1.000000
vn -0.707105 -0.707109 -0.000006
vn -0.707105 -0.707109 -0.000006
vn -0.707105 -0.707109 -0.000006
vn -0.707105 -0.707109 -0.000006
vn -0.707105 -0.707109 -0.000006
vn -0.707105 -0.707109 -0.000006
vn -0.707105 -0.707109 -0.000006
vn -0.707105 -0.707109 -0.000006
vn -0.707105 -0.707109 -0.000006
vn -0.707105 -0.707109 -0.000006
vn -0.707105 -0.707109 -0.000006
vn -0.707105 -0.707109 -0.000006
vn -0.707105 -0.707109 -0.000006
vn -0.707105 -0.707109 -0.000006
vn -0.707105 -0.707109 -0.000006
vn -0.707105 -0.707109 -0.000006
vn -0.707105 -0.707109 -0.000006
vn -0.707105 -0.707109 -0.000006
vn -0.707105 -0.707109 -0.000006
vn -0.707105 -0.707109 -0.000006
vn 0.000000 -0.000031 -1.000000
vn 0.000000 -0.000031 -1.000000
vn 0.000000 -0.000031 -1.000000
vn 0.000000 -0.000031 -1.000000
vn 1.000000 0.000015 0.000024
vn 1.000000 0.000015 0.000024
vn 1.000000 0.000015 0.000024
vn 1.000000 0.000015 0.000024
vn -0.000048 0.000000 1.000000
vn -0.000048 0.000000 1.000000
vn -0.000048 0.000000 1.000000
vn -0.000048 0.000000 1.000000
vn -1.000000 -0.000015 0.000024
vn -1.000000 -0.000015 0.000024
vn -1.000000 -0.000015 0.000024
vn -1.000000 -0.000015 0.000024
vn 0.000000 0.000031 -1.000000
vn 0.000000 0.000031 -1.000000
vn 0.000000 0.000031 -1.000000
vn 0.000000 0.000031 -1.000000
vn -1.000000 -0.000015 0.000024
vn -1.000000 -0.000015 0.000024
vn -1.000000 -0.000015 0.000024
vn -1.000000 -0.000015 0.000024
vn 1.000000 0.000015 0.000024
vn 1.000000 0.000015 0.000024
vn 1.000000 0.000015 0.000024
vn 1.000000 0.000015 0.000024
vn -0.000048 0.000000 1.000000
vn -0.000048 0.000000 1.000000
vn -0.000048 0.000000 1.000000
vn -0.000048 0.000000 1.000000
vn 1.000000 0.000015 0.000024
vn 1.000000 0.000015 0.000024
vn 1.000000 0.000015 0.000024
vn 1.000000 0.000015 0.000024
vn 0.000000 0.000031 -1.000000
vn 0.000000 -0.000031 -1.000000
vn 0.000000 0.000031 -1.000000
vn 0.000000 0.000031 -1.000000
vn -0.000048 0.000000 1.000000
vn -0.000048 0.000000 1.000000
vn -0.000048 0.000000 1.000000
vn -0.000048 0.000000 1.000000
vn -1.000000 -0.000015 0.000024
vn -1.000000 -0.000015 0.000024
vn -1.000000 -0.000015 0.000024
vn -1.000000 -0.000015 0.000024
vn 1.000000 0.000015 0.000024
vn 1.000000 0.000015 0.000024
vn 1.000000 0.000015 0.000024
vn 1.000000 0.000015 0.000024
vn 0.707159 0.707055 -0.000014
vn 0.707159 0.707055 -0.000014
vn 0.707159 0.707055 -0.000014
vn 0.707159 0.707055 -0.000014
vn 0.000000 -0.000031 -1.000000
vn 0.000000 -0.000031 -1.000000
vn 0.000000 -0.000031 -1.000000
vn 0.000000 -0.000031 -1.000000
vn -1.000000 -0.000015 0.000024
vn -1.000000 -0.000015 0.000024
vn -1.000000 -0.000015 0.000024
vn -1.000000 -0.000015 0.000024
vn -0.000048 0.000000 1.000000
vn -0.000048 0.000000 1.000000
vn -0.000048 0.000000 1.000000
vn -0.000048 0.000000 1.000000
vn 0.000000 0.000031 -1.000000
vn 0.000000 0.000031 -1.000000
vn 0.000000 0.000031 -1.000000
vn 0.000000 0.000031 -1.000000
vn 0.000000 0.000031 -1.000000
vn 0.000000 -0.000031 -1.000000
vn 0.000000 -0.000031 -1.000000
vn 0.000000 0.000031 -1.000000
vn 0.000000 -0.000031 -1.000000
vn 0.000000 -0.000031 -1.000000
vn 0.000000 -0.000031 -1.000000
vn 0.000000 -0.000031 -1.000000
vn -1.000000 -0.000015 0.000024
vn -1.000000 -0.000015 0.000024
vn -1.000000 -0.000015 0.000024
vn -1.000000 -0.000015 0.000024
vn -0.000048 0.000000 1.000000
vn -0.000048 0.000000 1.000000
vn -0.000048 0.000000 1.000000
vn -0.000048 0.000000 1.000000
vn -0.707105 -0.707109 -0.000006
vn -0.707105 -0.707109 -0.000006
vn -0.707105 -0.707109 -0.000006
vn -0.707105 -0.707109 -0.000006
vn -0.707105 -0.707109 -0.000006
vn -0.707105 -0.707109 -0.000006
vn -0.707105 -0.707109 -0.000006
vn -0.707105 -0.707109 -0.000006
vn -0.707105 -0.707109 -0.000006
vn -0.707105 -0.707109 -0.000006
vn -0.707105 -0.707109 -0.000006
vn -0.707105 -0.707109 -0.000006
vn -0.707105 -0.707109 -0.000006
vn -0.707105 -0.707109 -0.000006
vn -0.707105 -0.707109 -0.000006
vn -0.707105 -0.707109 -0.000006
vn -0.707105 -0.707109 -0.000006
vn -0.707105 -0.707109 -0.000006
vn -0.707105 -0.707109 -0.000006
vn -0.707105 -0.707109 -0.000006
vn -0.000048 0.000000 1.000000
vn -0.000048 0.000000 1.000000
vn -0.000048 0.000000 1.000000
vn -0.000048 0.000000 1.000000
vn 1.000000 0.000015 0.000024
vn 1.000000 0.000015 0.000024
vn 1.000000 0.000015 0.000024
vn 1.000000 0.000015 0.000024
vn -0.000048 0.000000 1.000000
vn -0.000048 0.000000 1.000000
vn -0.000048 0.000000 1.000000
vn -0.000048 0.000000 1.000000
vn 0.707159 0.707055 -0.000014
vn 0.707159 0.707055 -0.000014
vn 0.707159 0.707055 -0.000014
vn 0.707159 0.707055 -0.000014
vn 0.000000 -0.000031 -1.000000
vn 0.000000 -0.000031 -1.000000
vn 0.000000 -0.000031 -1.000000
vn 0.000000 -0.000031 -1.000000
vn -1.000000 -0.000015 0.000024
vn -1.000000 -0.000015 0.000024
vn -1.000000 -0.000015 0.000024
vn -1.000000 -0.000015 0.000024
vn 1.000000 0.000015 0.000024
vn 1.000000 0.000015 0.000024
vn 1.000000 0.000015 0.000024
vn 1.000000 0.000015 0.000024
vn 1.000000 0.000015 0.000024
vn 1.000000 0.000015 0.000024
vn 1.000000 0.000015 0.000024
vn 1.000000 0.000015 0.000024
vn 1.000000 0.000015 0.000024
vn 1.000000 0.000015 0.000024
vn 1.000000 0.000015 0.000024
vn 1.000000 0.000015 0.000024
vn 0.000000 0.000031 -1.000000
vn 0.000000 -0.000031 -1.000000
vn 0.000000 0.000031 -1.000000
vn 0.000000 0.000031 -1.000000
vn 1.000000 0.000015 0.000024
vn 1.000000 0.000015 0.000024
vn 1.000000 0.000015 0.000024
vn 1.000000 0.000015 0.000024
vn -1.000000 -0.000015 0.000024
vn -1.000000 -0.000015 0.000024
vn -1.000000 -0.000015 0.000024
vn -1.000000 -0.000015 0.000024
vn -0.000048 0.000000 1.000000
vn -0.000048 0.000000 1.000000
vn -0.000048 0.000000 1.000000
vn -0.000048 0.000000 1.000000
vn -1.000000 -0.000015 0.000024
vn -1.000000 -0.000015 0.000024
vn -1.000000 -0.000015 0.000024
vn -1.000000 -0.000015 0.000024
vn -1.000000 -0.000015 0.000024
vn -1.000000 -0.000015 0.000024
vn -1.000000 -0.000015 0.000024
vn -1.000000 -0.000015 0.000024
f 1/1/1 3/3/3 2/2/2
f 3/3/3 1/1/1 4/4/4
f 5/5/5 7/7/7 6/6/6
f 7/7/7 5/5/5 8/8/8
f 9/9/9 11/11/11 10/10/10
f 11/11/11 9/9/9 12/12/12
f 13/13/13 15/15/15 14/14/14
f 15/15/15 13/13/13 16/16/16
f 17/17/17 19/19/19 18/18/18
f 19/19/19 17/17/17 20/20/20
f 21/21/21 23/23/23 22/22/22
f 24/24/24 22/22/22 23/23/23
f 24/24/24 25/25/25 22/22/22
f 23/23/23 21/21/21 26/26/26
f 25/25/25 24/24/24 27/27/27
f 24/24/24 23/23/23 28/28/28
f 26/26/26 21/21/21 29/29/29
f 29/29/29 30/30/30 28/28/28
f 24/24/24 28/28/28 30/30/30
f 30/30/30 29/29/29 31/31/31
f 29/29/29 21/21/21 31/31/31
f 24/24/24 30/30/30 32/32/32
f 27/27/27 24/24/24 33/33/33
f 33/33/33 21/21/21 27/27/27
f 24/24/24 32/32/32 34/34/34
f 35/35/35 34/34/34 32/32/32
f 31/31/31 21/21/21 35/35/35
f 24/24/24 34/34/34 36/36/36
f 34/34/34 35/35/35 37/37/37
f 35/35/35 21/21/21 37/37/37
f 24/24/24 36/36/36 38/38/38
f 39/39/39 38/38/38 36/36/36
f 37/37/37 21/21/21 39/39/39
f 38/38/38 39/39/39 40/40/40
f 39/39/39 21/21/21 40/40/40
f 40/40/40 21/21/21 33/33/33
f 41/41/41 43/43/43 42/42/42
f 43/43/43 41/41/41 44/44/44
f 45/45/45 47/47/47 46/46/46
f 47/47/47 45/45/45 48/48/48
f 49/49/49 51/51/51 50/50/50
f 51/51/51 49/49/49 52/52/52
f 53/53/53 55/55/55 54/54/54
f 55/55/55 53/53/53 56/56/56
f 57/57/57 59/59/59 58/58/58
f 59/59/59 57/57/57 60/60/60
f 61/61/61 63/63/63 62/62/62
f 63/63/63 61/61/61 64/64/64
f 65/65/65 67/67/67 66/66/66
f 67/67/67 65/65/65 68/68/68
f 69/69/69 71/71/71 70/70/70
f 71/71/71 69/69/69 72/72/72
f 73/73/73 75/75/75 74/74/74
f 75/75/75 73/73/73 76/76/76
f 77/77/77 79/79/79 78/78/78
f 79/79/79 77/77/77 80/80/80
f 81/81/81 83/83/83 82/82/82
f 83/83/83 81/81/81 84/84/84
f 85/85/85 87/87/87 86/86/86
f 87/87/87 85/85/85 88/88/88
f 89/89/89 91/91/91 90/90/90
f 91/91/91 89/89/89 92/92/92
f 93/93/93 95/95/95 94/94/94
f 95/95/95 93/93/93 96/96/96
f 97/97/97 99/99/99 98/98/98
f 99/99/99 97/97/97 100/100/100
f 101/101/101 103/103/103 102/102/102
f 103/103/103 101/101/101 104/104/104
f 105/105/105 107/107/107 106/106/106
f 107/107/107 105/105/105 108/108/108
f 109/109/109 111/111/111 110/110/110
f 111/111/111 109/109/109 112/112/112
f 113/113/113 115/115/115 114/114/114
f 115/115/115 113/113/113 116/116/116
f 117/117/117 119/119/119 118/118/118
f 119/119/119 117/117/117 120/120/120
f 121/121/121 123/123/123 122/122/122
f 123/123/123 121/121/121 124/124/124
f 125/125/125 127/127/127 126/126/126
f 127/127/127 125/125/125 128/128/128
f 129/129/129 131/131/131 130/130/130
f 132/132/132 130/130/130 131/131/131
f 132/132/132 133/133/133 130/130/130
f 131/131/131 129/129/129 134/134/134
f 133/133/133 132/132/132 135/135/135
f 132/132/132 131/131/131 136/136/136
f 134/134/134 129/129/129 137/137/137
f 137/137/137 138/138/138 136/136/136
f 132/132/132 136/136/136 138/138/138
f 138/138/138 137/137/137 139/139/139
f 137/137/137 129/129/129 139/139/139
f 132/132/132 138/138/138 140/140/140
f 135/135/135 132/132/132 141/141/141
f 141/141/141 129/129/129 135/135/135
f 132/132/132 140/140/140 142/142/142
f 143/143/143 142/142/142 140/140/140
f 139/139/139 129/129/129 143/143/143
f 132/132/132 142/142/142 144/144/144
f 142/142/142 143/143/143 145/145/145
f 143/143/143 129/129/129 145/145/145
f 132/132/132 144/144/144 146/146/146
f 147/147/147 146/146/146 144/144/144
f 145/145/145 129/129/129 147/147/147
f 146/146/146 147/147/147 148/148/148
f 147/147/147 129/129/129 148/148/148
f 148/148/148 129/129/129 141/141/141
f 149/149/149 151/151/151 150/150/150
f 151/151/151 149/149/149 152/152/152
f 153/153/153 155/155/155 154/154/154
f 155/155/155 153/153/153 156/156/156
f 157/157/157 159/159/159 158/158/158
f 159/159/159 157/157/157 160/160/160
f 161/161/161 163/163/163 162/162/162
f 163/163/163 161/161/161 164/164/164
f 165/165/165 167/167/167 166/166/166
f 167/167/167 165/165/165 168/168/168
f 169/169/169 171/171/171 170/170/170
f 171/171/171 169/169/169 172/172/172
f 173/173/173 175/175/175 174/174/174
f 175/175/175 173/173/173 176/176/176
f 177/177/177 179/179/179 178/178/178
f 179/179/179 177/177/177 180/180/180
f 181/181/181 183/183/183 182/182/182
f 183/183/183 181/181/181 184/184/184
f 185/185/185 187/187/187 186/186/186
f 187/187/187 185/185/185 188/188/188
f 189/189/189 191/191/191 190/190/190
f 191/191/191 189/189/189 192/192/192
f 193/193/193 195/195/195 194/194/194
f 195/195/195 193/193/193 196/196/196
f 197/197/197 199/199/199 198/198/198
f 199/199/199 197/197/197 200/200/200
f 201/201/201 203/203/203 202/202/202
f 203/203/203 201/201/201 204/204/204
f 205/205/205 207/207/207 206/206/206
f 207/207/207 205/205/205 208/208/208
