# Densetsu Tool Suite OBJ Export
o Carpet_1_combined
mtllib Carpet_1_combined.mtl
g surface_0
usemtl DarkRed
v -0.944808 -0.000000 -1.417032
v 0.944808 -0.000000 -1.417032
v 0.929420 -0.000000 -0.701609
v -0.960195 -0.000000 -0.701609
v -0.960112 0.017652 -0.641920
v 0.929503 0.017652 -0.641920
v -0.960028 0.019166 -0.582231
v 0.929587 0.019166 -0.582231
v -0.959946 -0.000000 -0.523540
v 0.929669 -0.000000 -0.523540
v -0.959018 0.000000 0.139683
v 0.930598 0.000000 0.139683
v -0.937934 0.000000 0.628007
v 0.951682 0.000000 0.628007
v -0.931256 0.023433 0.826174
v 0.958360 0.023433 0.826174
v -0.927136 0.033267 0.894033
v 0.962480 0.033267 0.894033
v -0.923079 0.000000 0.972057
v 0.966536 0.000000 0.972057
v -0.915722 0.000000 1.417032
v 0.973894 0.000000 1.417032
v 1.055919 0.024955 0.813494
v 0.998604 0.024061 0.820019
v 0.991645 -0.000357 0.613518
v 1.048560 -0.000867 0.595127
v 1.060459 0.035792 0.888269
v 0.969675 -0.000357 0.141694
v 1.002897 0.034309 0.890731
v 1.025327 -0.000867 0.144556
v 1.007125 -0.000357 0.972036
v 1.024303 -0.000867 -0.499770
v 1.064929 -0.000866 0.974246
v 0.968707 -0.000358 -0.521363
v 1.014791 -0.000357 1.458694
v 1.024213 0.020253 -0.564444
v 1.073036 -0.000866 1.537239
v 0.968621 0.019614 -0.582522
v -1.009187 -0.000866 1.537239
v 1.024121 0.018585 -0.630217
v -0.954277 -0.000357 1.458694
v 0.968534 0.018037 -0.644721
v -1.017295 -0.000866 0.977613
v 1.024029 -0.000867 -0.695990
v -0.961944 -0.000357 0.972036
v 0.968447 -0.000358 -0.706919
v -1.021765 0.035792 0.891635
v 0.984482 -0.000358 -1.466420
v -0.966171 0.034309 0.890731
v 1.040985 -0.000867 -1.555969
v -0.970465 0.024061 0.820019
v -0.984586 -0.000358 -1.466420
v -1.026305 0.024955 0.816860
v -1.041238 -0.000867 -1.555969
v -0.977423 -0.000357 0.613518
v -1.058195 -0.000867 -0.712354
v -1.033664 -0.000867 0.598493
v -1.000621 -0.000358 -0.699906
v -0.999394 -0.000357 0.141694
v -1.058102 0.018585 -0.646582
v -1.056896 -0.000867 0.144556
v -1.000534 0.018037 -0.637707
v -1.057920 -0.000867 -0.516135
v -1.058010 0.020253 -0.580809
v -1.000362 -0.000358 -0.514349
v -1.000447 0.019614 -0.575509
vn -0.003439 0.999991 -0.002656
vn 0.003654 0.999990 -0.002472
vn -0.006076 0.988775 -0.149287
vn -0.007367 0.989917 -0.141459
vn -0.003899 0.987099 -0.160061
vn -0.010295 0.988188 -0.152903
vn 0.016092 0.990591 0.135904
vn -0.005165 0.989400 0.145124
vn 0.015938 0.985653 0.168032
vn -0.000053 0.987122 0.159972
vn -0.004553 0.999990 0.000107
vn 0.004476 0.999990 -0.000046
vn 0.009066 0.997804 -0.065607
vn -0.008205 0.997849 -0.065032
vn 0.018568 0.991092 -0.131877
vn -0.017519 0.991338 -0.130161
vn 0.006694 0.990651 0.136253
vn -0.007290 0.990562 0.136873
vn -0.004537 0.979709 0.200374
vn 0.004391 0.979767 0.200095
vn -0.003487 0.999989 0.003241
vn 0.003333 0.999989 0.003179
vn -0.030107 0.991259 -0.128447
vn -0.032675 0.991148 -0.128677
vn -0.010613 0.998270 -0.057832
vn -0.006658 0.998802 -0.048488
vn -0.019901 0.991034 0.132123
vn 0.009055 0.999959 -0.000169
vn -0.017706 0.991741 0.127026
vn 0.009055 0.999959 -0.000200
vn 0.004653 0.979274 0.202488
vn -0.037678 0.992009 0.120406
vn 0.001344 0.981531 0.191297
vn -0.032612 0.984521 0.172208
vn 0.004598 0.999984 0.003307
vn -0.068889 0.981772 0.177140
vn 0.003551 0.999986 0.003858
vn -0.028987 0.991425 0.127420
vn -0.003613 0.999985 0.004013
vn 0.025388 0.990563 -0.134684
vn -0.004785 0.999983 0.003462
vn 0.007518 0.985592 -0.168970
vn 0.010233 0.981528 0.191043
vn 0.040393 0.986419 -0.159203
vn 0.001321 0.978521 0.206143
vn 0.012581 0.991654 -0.128316
vn 0.028397 0.992332 0.120292
vn 0.004766 0.999985 -0.002813
vn 0.023159 0.992572 0.119431
vn 0.003226 0.999988 -0.003580
vn 0.029777 0.990897 -0.131289
vn -0.004582 0.999985 -0.003029
vn 0.023272 0.991167 -0.130566
vn -0.003257 0.999988 -0.003641
vn 0.008607 0.998319 -0.057308
vn 0.018256 0.992010 -0.124828
vn 0.003782 0.998863 -0.047512
vn 0.005747 0.987955 -0.154636
vn -0.008946 0.999960 0.000231
vn 0.035290 0.985152 -0.168018
vn -0.008946 0.999960 0.000231
vn 0.012816 0.989304 -0.145304
vn -0.013729 0.986984 0.160231
vn -0.001427 0.990895 0.134629
vn 0.004221 0.989464 0.144717
vn 0.017190 0.987271 0.158114
f 1//1 3//3 2//2
f 3//3 1//1 4//4
f 5//5 3//3 4//4
f 3//3 5//5 6//6
f 7//7 6//6 5//5
f 6//6 7//7 8//8
f 9//9 8//8 7//7
f 8//8 9//9 10//10
f 11//11 10//10 9//9
f 10//10 11//11 12//12
f 13//13 12//12 11//11
f 12//12 13//13 14//14
f 15//15 14//14 13//13
f 14//14 15//15 16//16
f 17//17 16//16 15//15
f 16//16 17//17 18//18
f 19//19 18//18 17//17
f 18//18 19//19 20//20
f 21//21 20//20 19//19
f 20//20 21//21 22//22
f 23//23 25//25 24//24
f 25//25 23//23 26//26
f 24//24 27//27 23//23
f 26//26 28//28 25//25
f 27//27 24//24 29//29
f 28//28 26//26 30//30
f 31//31 27//27 29//29
f 32//32 28//28 30//30
f 27//27 31//31 33//33
f 28//28 32//32 34//34
f 35//35 33//33 31//31
f 36//36 34//34 32//32
f 33//33 35//35 37//37
f 34//34 36//36 38//38
f 35//35 39//39 37//37
f 40//40 38//38 36//36
f 39//39 35//35 41//41
f 38//38 40//40 42//42
f 41//41 43//43 39//39
f 44//44 42//42 40//40
f 43//43 41//41 45//45
f 42//42 44//44 46//46
f 45//45 47//47 43//43
f 44//44 48//48 46//46
f 47//47 45//45 49//49
f 48//48 44//44 50//50
f 51//51 47//47 49//49
f 50//50 52//52 48//48
f 47//47 51//51 53//53
f 52//52 50//50 54//54
f 55//55 53//53 51//51
f 56//56 52//52 54//54
f 53//53 55//55 57//57
f 52//52 56//56 58//58
f 59//59 57//57 55//55
f 60//60 58//58 56//56
f 57//57 59//59 61//61
f 58//58 60//60 62//62
f 59//59 63//63 61//61
f 64//64 62//62 60//60
f 63//63 59//59 65//65
f 62//62 64//64 66//66
f 66//66 63//63 65//65
f 63//63 66//66 64//64
g surface_1
usemtl LightOrange
v -1.000621 -0.000358 -0.699906
v -0.984586 -0.000358 -1.466420
v -0.944808 -0.000000 -1.417032
v 0.984482 -0.000358 -1.466420
v -0.960195 -0.000000 -0.701609
v 0.944808 -0.000000 -1.417032
v -0.960112 0.017652 -0.641920
v 0.968447 -0.000358 -0.706919
v -1.000534 0.018037 -0.637707
v 0.929420 -0.000000 -0.701609
v -0.960028 0.019166 -0.582231
v 0.968534 0.018037 -0.644721
v -1.000447 0.019614 -0.575509
v 0.929503 0.017652 -0.641920
v -0.959946 -0.000000 -0.523540
v 0.968621 0.019614 -0.582522
v -1.000362 -0.000358 -0.514349
v 0.929587 0.019166 -0.582231
v -0.959018 0.000000 0.139683
v 0.929669 -0.000000 -0.523540
v -0.999394 -0.000357 0.141694
v 0.968707 -0.000358 -0.521363
v -0.977423 -0.000357 0.613518
v 0.930598 0.000000 0.139683
v -0.937934 0.000000 0.628007
v 0.969675 -0.000357 0.141694
v -0.970465 0.024061 0.820019
v 0.991645 -0.000357 0.613518
v -0.931256 0.023433 0.826174
v 0.951682 0.000000 0.628007
v -0.966171 0.034309 0.890731
v 0.998604 0.024061 0.820019
v -0.927136 0.033267 0.894033
v 0.958360 0.023433 0.826174
v -0.961944 -0.000357 0.972036
v 1.002897 0.034309 0.890731
v -0.923079 0.000000 0.972057
v 0.962480 0.033267 0.894033
v -0.915722 0.000000 1.417032
v 0.966536 0.000000 0.972057
v -0.954277 -0.000357 1.458694
v 1.007125 -0.000357 0.972036
v 0.973894 0.000000 1.417032
v 1.014791 -0.000357 1.458694
vn 0.005747 0.987955 -0.154636
vn -0.004582 0.999985 -0.003029
vn -0.003439 0.999991 -0.002656
vn 0.004766 0.999985 -0.002813
vn -0.007367 0.989917 -0.141459
vn 0.003654 0.999990 -0.002472
vn -0.003899 0.987099 -0.160061
vn 0.012581 0.991654 -0.128316
vn 0.012816 0.989304 -0.145304
vn -0.006076 0.988775 -0.149287
vn 0.016092 0.990591 0.135904
vn 0.007518 0.985592 -0.168970
vn 0.017190 0.987271 0.158114
vn -0.010295 0.988188 -0.152903
vn 0.015938 0.985653 0.168032
vn -0.028987 0.991425 0.127420
vn 0.004221 0.989464 0.144717
vn -0.005165 0.989400 0.145124
vn -0.004553 0.999990 0.000107
vn -0.000053 0.987122 0.159972
vn -0.008946 0.999960 0.000231
vn -0.032612 0.984521 0.172208
vn 0.008607 0.998319 -0.057308
vn 0.004476 0.999990 -0.000046
vn 0.009066 0.997804 -0.065607
vn 0.009055 0.999959 -0.000169
vn 0.029777 0.990897 -0.131289
vn -0.010613 0.998270 -0.057832
vn 0.018568 0.991092 -0.131877
vn -0.008205 0.997849 -0.065032
vn 0.023159 0.992572 0.119431
vn -0.032675 0.991148 -0.128677
vn 0.006694 0.990651 0.136253
vn -0.017519 0.991338 -0.130161
vn 0.001321 0.978521 0.206143
vn -0.017706 0.991741 0.127026
vn -0.004537 0.979709 0.200374
vn -0.007290 0.990562 0.136873
vn -0.003487 0.999989 0.003241
vn 0.004391 0.979767 0.200095
vn -0.004785 0.999983 0.003462
vn 0.004653 0.979274 0.202488
vn 0.003333 0.999989 0.003179
vn 0.004598 0.999984 0.003307
f 67//67 69//69 68//68
f 69//69 70//70 68//68
f 69//69 67//67 71//71
f 70//70 69//69 72//72
f 67//67 73//73 71//71
f 72//72 74//74 70//70
f 73//73 67//67 75//75
f 74//74 72//72 76//76
f 75//75 77//77 73//73
f 76//76 78//78 74//74
f 77//77 75//75 79//79
f 78//78 76//76 80//80
f 79//79 81//81 77//77
f 80//80 82//82 78//78
f 81//81 79//79 83//83
f 82//82 80//80 84//84
f 83//83 85//85 81//81
f 86//86 82//82 84//84
f 85//85 83//83 87//87
f 82//82 86//86 88//88
f 89//89 85//85 87//87
f 90//90 88//88 86//86
f 85//85 89//89 91//91
f 88//88 90//90 92//92
f 93//93 91//91 89//89
f 90//90 94//94 92//92
f 91//91 93//93 95//95
f 94//94 90//90 96//96
f 97//97 95//95 93//93
f 96//96 98//98 94//94
f 95//95 97//97 99//99
f 98//98 96//96 100//100
f 101//101 99//99 97//97
f 100//100 102//102 98//98
f 99//99 101//101 103//103
f 102//102 100//100 104//104
f 101//101 105//105 103//103
f 106//106 102//102 104//104
f 105//105 101//101 107//107
f 102//102 106//106 108//108
f 107//107 109//109 105//105
f 109//109 108//108 106//106
f 109//109 107//107 110//110
f 108//108 109//109 110//110
