# Created by Metasequoia

mtllib stairs_steps_simple.mtl

v -100.000000 0.000032 113.131317
v -100.000000 0.000000 -86.868683
v 100.000000 0.000032 113.131317
v 100.000000 0.000000 -86.868683
v -100.000000 33.333366 113.131310
v -100.000000 99.999992 -86.868698
v -100.000000 66.666664 -86.868690
v -100.000000 33.333332 -86.868690
v 100.000000 99.999992 -86.868698
v 100.000000 66.666664 -86.868690
v 100.000000 33.333332 -86.868690
v 100.000000 33.333363 113.131310
v -100.000000 0.000011 -20.202007
v -100.000000 0.000021 46.464657
v 100.000000 0.000021 46.464649
v 100.000000 0.000011 -20.202015
v 100.000000 33.333340 -20.202015
v 100.000000 33.333351 46.464653
v 100.000000 66.666672 -20.202019
v 100.000000 66.666687 46.464645
v 100.000000 100.000008 -20.202023
v -100.000000 33.333355 46.464645
v -100.000000 33.333344 -20.202023
v -100.000000 66.666687 46.464638
v -100.000000 66.666679 -20.202026
v -100.000000 100.000008 -20.202034
# 26 vertices

vt 0.06741 0.19290
vt 0.00000 0.00000
vt 0.00000 1.00000
vt 0.33333 0.00000
vt 0.33333 1.00000
vt 0.00000 0.66667
vt 0.00000 1.00000
vt 0.33333 0.66667
vt 0.33333 1.00000
vt 0.33333 1.00000
vt 0.00000 1.00000
vt 0.33333 0.00000
vt 0.00000 0.00000
vt 0.66667 1.00000
vt 0.66667 0.00000
vt 1.00000 1.00000
vt 1.00000 0.00000
vt 1.00000 1.00000
vt 0.66667 1.00000
vt 0.66667 0.00000
vt 1.00000 0.00000
vt 0.66667 0.00000
vt 0.33333 0.00000
vt 0.66667 0.66667
vt 0.33333 0.66667
vt 0.66667 0.33333
vt 0.33333 0.33333
vt 0.66667 0.00000
vt 0.00000 0.66667
vt 0.33333 1.00000
vt 0.00000 0.33333
vt 0.00000 0.00000
vt 0.66667 0.66667
vt 0.66667 0.33333
vt 0.33333 0.33333
vt 0.33333 0.00000
vt 0.00000 0.33333
vt 0.00000 0.00000
vt 0.66667 1.00000
vt 0.33333 1.00000
vt 0.33333 0.00000
vt 1.00000 1.00000
vt 1.00000 0.33333
vt 1.00000 0.00000
vt 1.00000 0.00000
vt 0.66667 0.00000
# 46 texture vertices

vn 0.00000 -1.00000 0.00000
vn 0.00000 -1.00000 0.00000
vn 0.00000 -1.00000 0.00000
vn 0.00000 -1.00000 0.00000
vn 0.00000 0.00000 1.00000
vn 0.00000 0.00000 1.00000
vn 0.00000 0.00000 1.00000
vn 0.00000 0.00000 1.00000
vn 1.00000 0.00000 0.00000
vn 0.00000 -0.00000 -1.00000
vn 0.00000 -0.00000 -1.00000
vn 0.00000 -0.00000 -1.00000
vn 0.00000 -0.00000 -1.00000
vn 0.00000 -0.00000 -1.00000
vn 0.00000 -0.00000 -1.00000
vn 0.00000 -0.00000 -1.00000
vn 0.00000 -0.00000 -1.00000
vn 0.00000 1.00000 -0.00000
vn 0.00000 1.00000 -0.00000
vn 0.00000 1.00000 -0.00000
vn 0.00000 1.00000 -0.00000
vn -0.00000 0.00000 1.00000
vn -0.00000 0.00000 1.00000
vn -0.00000 0.00000 1.00000
vn -0.00000 0.00000 1.00000
vn -1.00000 0.00000 0.00000
vn -1.00000 0.00000 0.00000
vn 0.00000 1.00000 -0.00000
vn 0.00000 1.00000 -0.00000
vn 0.00000 1.00000 -0.00000
vn 0.00000 1.00000 -0.00000
vn 0.00000 -1.00000 0.00000
vn 0.00000 -1.00000 0.00000
vn 0.00000 -1.00000 0.00000
vn 0.00000 -1.00000 0.00000
vn 0.00000 1.00000 -0.00000
vn 0.00000 1.00000 -0.00000
vn 0.00000 1.00000 -0.00000
vn 0.00000 1.00000 -0.00000
vn -0.00000 0.00000 1.00000
vn -0.00000 0.00000 1.00000
vn -0.00000 0.00000 1.00000
vn -0.00000 0.00000 1.00000
# 43 normal vertices

g Stairs_001
s 1
usemtl Material
f 3/1/3 1/1/2 14/1/1
f 3/1/3 14/1/1 15/1/4
f 12/4/7 1/3/6 3/2/5
f 1/3/6 12/4/7 5/5/8
f 18/8/9 3/7/9 15/6/9
f 3/7/9 18/8/9 12/9/9
f 11/12/12 2/11/11 8/10/10
f 2/11/11 11/12/12 4/13/13
f 10/15/15 8/10/10 7/14/14
f 8/10/10 10/15/15 11/12/12
f 9/17/17 7/14/14 6/16/16
f 7/14/14 9/17/17 10/15/15
f 18/20/20 22/19/19 5/18/18
f 18/20/20 5/18/18 12/21/21
f 20/22/24 24/19/23 22/10/22
f 20/22/24 22/10/22 18/23/25
f 25/26/27 22/25/27 24/24/26
f 22/25/27 25/26/27 23/27/26
f 7/28/26 23/27/26 25/26/27
f 23/5/26 7/14/26 8/10/27
f 5/30/26 14/29/26 1/7/26
f 14/29/26 5/30/26 22/25/27
f 22/25/27 13/31/26 14/29/26
f 13/31/26 22/25/27 23/27/26
f 23/27/26 2/32/26 13/31/26
f 2/11/26 23/5/26 8/10/27
f 19/34/9 20/33/9 18/8/9
f 19/34/9 18/8/9 17/35/9
f 19/34/9 11/36/9 10/28/9
f 11/36/9 19/34/9 17/35/9
f 11/36/9 16/37/9 4/32/9
f 16/37/9 11/36/9 17/35/9
f 17/35/9 15/6/9 16/37/9
f 15/6/9 17/35/9 18/8/9
f 9/13/30 6/11/29 26/10/28
f 9/13/30 26/10/28 21/4/31
f 16/1/34 13/1/33 2/1/32
f 16/38/34 2/11/32 4/13/35
f 15/1/4 14/1/1 13/1/33
f 15/1/4 13/1/33 16/1/34
f 19/41/38 25/40/37 24/39/36
f 19/41/38 24/39/36 20/22/39
f 6/16/26 25/19/27 26/42/26
f 25/19/27 6/16/26 7/14/26
f 9/44/9 21/43/9 19/34/9
f 9/44/9 19/34/9 10/28/9
f 21/45/42 26/42/41 25/39/40
f 21/45/42 25/39/40 19/46/43
# 48 elements

