# Densetsu Tool Suite OBJ Export
o default_mesh
mtllib default_mesh.mtl
g surface_0
usemtl surface_0
v -0.500000 1.000000 0.000000
v 0.500000 0.000000 0.000000
v -0.500000 0.000000 0.000000
v 0.500000 1.000000 0.000000
v 0.000000 1.000000 -0.500000
v 0.000000 0.000000 0.500000
v 0.000000 0.000000 -0.500000
v 0.000000 1.000000 0.500000
vt 0.000000 1.000000
vt 1.000000 0.000000
vt 0.000000 0.000000
vt 1.000000 1.000000
vt 0.000000 1.000000
vt 1.000000 0.000000
vt 0.000000 0.000000
vt 1.000000 1.000000
vn -0.000015 -0.000015 1.000000
vn -0.000015 -0.000015 1.000000
vn -0.000015 -0.000015 1.000000
vn -0.000015 -0.000015 1.000000
vn -1.000000 0.000000 -0.000015
vn -1.000000 0.000000 -0.000015
vn -1.000000 0.000000 -0.000015
vn -1.000000 0.000000 -0.000015
f 1/1/1 3/3/3 2/2/2
f 4/4/4 1/1/1 2/2/2
f 5/5/5 7/7/7 6/6/6
f 8/8/8 5/5/5 6/6/6
