# Created by Metasequoia

mtllib scaffold_stairs-gltf_combined.mtl

v -0.900023 0.499982 1.099966
v -0.900023 0.000000 1.099966
v -0.900023 1.599986 -1.100000
v -0.900023 2.100000 -1.100000
v -0.700008 0.000000 1.100000
v -0.700008 1.599986 -1.100000
v -0.700008 0.499982 1.100000
v -0.700008 2.100000 -1.100000
v 0.699977 0.499982 1.099966
v 0.699977 0.000000 1.099966
v 0.699977 1.599986 -1.100000
v 0.699977 2.100000 -1.100000
v 0.899992 0.000000 1.100000
v 0.899992 1.599986 -1.100000
v 0.899992 0.499982 1.100000
v 0.899992 2.100000 -1.100000
v -1.000000 0.899986 0.399968
v -1.000000 0.799977 0.399968
v -1.000000 0.799977 -0.000017
v -1.000000 0.899986 -0.000017
v 1.000000 0.799977 -0.000017
v 1.000000 0.799977 0.399968
v 1.000000 0.899986 -0.000017
v 1.000000 0.899986 0.399968
v 1.000000 0.499982 0.499972
v 1.000000 0.399973 0.499972
v 1.000000 0.399973 0.899991
v 1.000000 0.499982 0.899991
v -1.000000 0.399973 0.899991
v -1.000000 0.499982 0.899991
v -1.000000 0.399973 0.499972
v -1.000000 0.499982 0.499972
v -1.000000 1.299991 -0.100021
v -1.000000 1.199982 -0.100021
v -1.000000 1.199982 -0.500006
v -1.000000 1.299991 -0.500006
v 1.000000 1.199982 -0.500006
v 1.000000 1.199982 -0.100021
v 1.000000 1.299991 -0.500006
v 1.000000 1.299991 -0.100021
v -1.000000 1.699995 -0.600011
v -1.000000 1.599986 -0.600011
v -1.000000 1.599986 -1.000029
v -1.000000 1.699995 -1.000029
v 1.000000 1.599986 -1.000029
v 1.000000 1.599986 -0.600011
v 1.000000 1.699995 -1.000029
v 1.000000 1.699995 -0.600011
# 48 vertices

vt 0.62499 0.50001
vt 0.37499 0.50001
vt 0.37499 0.75001
vt 0.62499 0.75001
vt 0.12499 0.75001
vt 0.12499 0.50001
vt 0.62499 0.00000
vt 0.37499 0.00000
vt 0.37499 0.25000
vt 0.62499 0.25000
vt 0.87500 0.75001
vt 0.87500 0.50001
vt 0.37499 1.00000
vt 0.62499 1.00000
# 14 texture vertices

vn -1.00000 0.00000 0.00000
vn 0.00000 -1.00000 0.00000
vn 1.00000 0.00000 0.00000
vn 0.00000 0.00000 1.00000
vn 0.00000 1.00000 0.00000
vn 0.00000 0.00000 -1.00000
vn 1.00000 0.00000 0.00000
vn -1.00000 0.00000 0.00000
vn 0.00000 -0.45380 -0.89111
vn 0.00010 -0.80873 -0.58817
vn 0.00010 -0.80873 -0.58817
vn 0.00000 -0.45377 -0.89112
vn -0.00015 0.45376 0.89112
vn -0.00017 0.00000 1.00000
vn -0.00017 0.00000 1.00000
vn -0.00015 0.45381 0.89110
vn -0.00000 0.80873 0.58818
vn 0.00000 0.80873 0.58818
# 18 normal vertices

g surface_0
s 1
usemtl mat1
f 19/3/1 18/2/1 17/1/1
f 20/4/1 19/3/1 17/1/1
f 18/2/2 19/3/2 21/5/2
f 18/2/2 21/5/2 22/6/2
f 22/9/3 21/8/3 23/7/3
f 24/10/3 22/9/3 23/7/3
f 18/2/4 22/9/4 24/10/4
f 17/1/4 18/2/4 24/10/4
f 23/11/5 20/4/5 17/1/5
f 24/12/5 23/11/5 17/1/5
f 21/13/6 19/3/6 20/4/6
f 23/14/6 21/13/6 20/4/6
f 27/9/7 26/8/3 25/7/7
f 28/10/3 27/9/7 25/7/7
f 29/2/4 27/9/4 28/10/4
f 30/1/4 29/2/4 28/10/4
f 31/3/8 29/2/1 30/1/8
f 32/4/1 31/3/8 30/1/8
f 26/13/6 31/3/6 32/4/6
f 25/14/6 26/13/6 32/4/6
f 29/2/2 31/3/2 26/5/2
f 29/2/2 26/5/2 27/6/2
f 25/11/5 32/4/5 30/1/5
f 28/12/5 25/11/5 30/1/5
f 35/3/8 34/2/1 33/1/8
f 36/4/1 35/3/8 33/1/8
f 34/2/2 35/3/2 37/5/2
f 34/2/2 37/5/2 38/6/2
f 38/9/7 37/8/3 39/7/7
f 40/10/3 38/9/7 39/7/7
f 34/2/4 38/9/4 40/10/4
f 33/1/4 34/2/4 40/10/4
f 39/11/5 36/4/5 33/1/5
f 40/12/5 39/11/5 33/1/5
f 37/13/6 35/3/6 36/4/6
f 39/14/6 37/13/6 36/4/6
f 43/3/1 42/2/1 41/1/1
f 44/4/1 43/3/1 41/1/1
f 42/2/2 43/3/2 45/5/2
f 42/2/2 45/5/2 46/6/2
f 46/9/3 45/8/3 47/7/3
f 48/10/3 46/9/3 47/7/3
f 42/2/4 46/9/4 48/10/4
f 41/1/4 42/2/4 48/10/4
f 47/11/5 44/4/5 41/1/5
f 48/12/5 47/11/5 41/1/5
f 45/13/6 43/3/6 44/4/6
f 47/14/6 45/13/6 44/4/6
f 3/3/1 2/2/1 1/1/1
f 3/3/1 1/1/1 4/4/1
f 5/6/11 2/2/10 3/3/9
f 6/5/12 5/6/11 3/3/9
f 7/10/3 5/9/3 6/8/3
f 8/7/3 7/10/3 6/8/3
f 2/2/15 5/9/14 7/10/13
f 1/1/16 2/2/15 7/10/13
f 4/4/17 1/1/16 7/12/13
f 4/4/17 7/12/13 8/11/18
f 6/13/12 3/3/9 4/4/6
f 8/14/6 6/13/12 4/4/6
f 11/3/1 10/2/1 9/1/1
f 11/3/1 9/1/1 12/4/1
f 13/6/11 10/2/10 11/3/9
f 14/5/12 13/6/11 11/3/9
f 15/10/3 13/9/3 14/8/3
f 16/7/3 15/10/3 14/8/3
f 10/2/15 13/9/14 15/10/13
f 9/1/16 10/2/15 15/10/13
f 12/4/17 9/1/16 15/12/13
f 12/4/17 15/12/13 16/11/18
f 14/13/12 11/3/9 12/4/6
f 16/14/6 14/13/12 12/4/6
# 72 elements

