# Densetsu Tool Suite OBJ Export
o pile_generic_2_tiny_weeds_02
mtllib pile_generic_2_tiny_weeds_02.mtl
g surface_0
usemtl pile_generic_2_tiny_weeds_02
v 0.297951 -0.009873 0.059290
v -0.836750 -0.009873 -0.140789
v -0.169360 -0.009873 -0.608100
v -0.369439 -0.009873 0.526601
v -0.308185 0.018748 -0.629075
v 0.574455 0.018748 0.111548
v -0.237177 0.018748 0.182557
v 0.503447 0.018748 -0.700084
v -0.421259 -0.009873 0.002100
v 0.661460 -0.009873 0.396177
v -0.076939 -0.009873 0.740498
v 0.317139 -0.009873 -0.342221
v 0.051492 0.090800 0.258521
v -0.110215 0.090800 -0.658570
v 0.429184 0.090800 -0.280878
v -0.487907 0.090800 -0.119171
v -0.230451 0.113933 -0.183045
v 0.644627 0.113933 0.135457
v 0.047837 0.113933 0.413745
v 0.366339 0.113933 -0.461333
v 0.172633 0.090800 -0.222952
v -0.425955 0.090800 0.490418
v -0.483346 0.090800 -0.165561
v 0.230024 0.090800 0.433028
v -0.493906 0.142394 0.313154
v -0.465416 0.124071 -0.155204
v -0.020273 0.018966 -0.133271
v -0.048763 0.037288 0.335088
v -0.185864 0.068556 0.071890
v -0.523954 0.078476 -0.253846
v -0.213575 0.118939 -0.588074
v 0.124515 0.109019 -0.262337
v 0.184085 0.073609 -0.159203
v 0.547905 0.103931 0.136132
v 0.266616 0.102675 0.497457
v -0.097204 0.072353 0.202121
v 0.095693 0.176907 -0.391825
v 0.501706 0.152680 -0.157146
v 0.290186 0.249510 0.237270
v -0.115827 0.273737 0.002591
v -0.234293 0.355049 0.153960
v 0.529162 -0.085917 -0.219879
v 0.328869 0.076291 0.406305
v -0.034000 0.192841 -0.472223
v 0.457437 0.180594 -0.292468
v -0.464126 0.171299 -0.032264
v -0.118514 -0.032599 -0.577712
v 0.111825 0.384492 0.252980
v -0.427744 0.163107 -0.169455
v 0.288558 0.181624 0.465870
v -0.352465 -0.036482 0.473220
v 0.213279 0.381214 -0.176805
v -0.269400 0.117429 -0.040749
v -0.269400 0.117429 -0.040749
v -0.169360 -0.009873 -0.608100
v -0.269400 0.117429 -0.040749
v -0.836750 -0.009873 -0.140789
v -0.269400 0.117429 -0.040749
v 0.297951 -0.009873 0.059290
v -0.369439 -0.009873 0.526601
v -0.029361 0.193689 -0.200024
v -0.029361 0.193689 -0.200024
v 0.429184 0.090800 -0.280878
v 0.051492 0.090800 0.258521
v -0.487907 0.090800 -0.119171
v -0.029361 0.193689 -0.200024
v -0.110215 0.090800 -0.658570
v 0.207088 0.216821 -0.023794
v -0.230451 0.113933 -0.183045
v 0.366339 0.113933 -0.461333
v 0.644627 0.113933 0.135457
v 0.047837 0.113933 0.413745
v -0.126661 0.193689 0.133733
v -0.126661 0.193689 0.133733
v -0.483346 0.090800 -0.165561
v -0.126661 0.193689 0.133733
v -0.425955 0.090800 0.490418
v -0.126661 0.193689 0.133733
v 0.172633 0.090800 -0.222952
v 0.230024 0.090800 0.433028
v -0.241798 0.166256 0.099546
v -0.241798 0.166256 0.099546
v -0.465416 0.124071 -0.155204
v -0.241798 0.166256 0.099546
v -0.493906 0.142394 0.313154
v -0.241798 0.166256 0.099546
v -0.020273 0.018966 -0.133271
v -0.048763 0.037288 0.335088
v -0.197880 0.179320 -0.240109
v -0.197880 0.179320 -0.240109
v -0.523954 0.078476 -0.253846
v -0.197880 0.179320 -0.240109
v -0.185864 0.068556 0.071890
v -0.197880 0.179320 -0.240109
v -0.213575 0.118939 -0.588074
v 0.124515 0.109019 -0.262337
v 0.214069 0.173742 0.155171
v 0.214069 0.173742 0.155171
v 0.547905 0.103931 0.136132
v 0.214069 0.173742 0.155171
v 0.184085 0.073609 -0.159203
v 0.214069 0.173742 0.155171
v 0.266616 0.102675 0.497457
v -0.097204 0.072353 0.202121
v 0.197520 0.297404 -0.100503
v 0.197520 0.297404 -0.100503
v 0.501706 0.152680 -0.157146
v 0.197520 0.297404 -0.100503
v 0.095693 0.176907 -0.391825
v 0.197520 0.297404 -0.100503
v 0.290186 0.249510 0.237270
v -0.115827 0.273737 0.002591
v 0.197157 0.227599 -0.041154
v 0.197157 0.227599 -0.041154
v 0.328869 0.076291 0.406305
v 0.197157 0.227599 -0.041154
v 0.529162 -0.085917 -0.219879
v 0.197157 0.227599 -0.041154
v -0.234293 0.355049 0.153960
v -0.034000 0.192841 -0.472223
v -0.016757 0.271183 -0.206465
v -0.016757 0.271183 -0.206465
v -0.118514 -0.032599 -0.577712
v -0.016757 0.271183 -0.206465
v -0.464126 0.171299 -0.032264
v -0.016757 0.271183 -0.206465
v 0.457437 0.180594 -0.292468
v 0.111825 0.384492 0.252980
v -0.101599 0.267554 0.181518
v -0.101599 0.267554 0.181518
v -0.352465 -0.036482 0.473220
v -0.101599 0.267554 0.181518
v 0.288558 0.181624 0.465870
v -0.101599 0.267554 0.181518
v -0.427744 0.163107 -0.169455
v 0.213279 0.381214 -0.176805
v 0.133135 0.146050 -0.258764
v 0.133135 0.146050 -0.258764
v -0.237177 0.018748 0.182557
v -0.308185 0.018748 -0.629075
v 0.503447 0.018748 -0.700084
v 0.133135 0.146050 -0.258764
v 0.574455 0.018748 0.111548
v 0.120100 0.117429 0.199139
v 0.120100 0.117429 0.199139
v -0.076939 -0.009873 0.740498
v 0.120100 0.117429 0.199139
v 0.661460 -0.009873 0.396177
v 0.120100 0.117429 0.199139
v -0.421259 -0.009873 0.002100
v 0.317139 -0.009873 -0.342221
vt 0.000000 1.000000
vt 1.000000 0.000000
vt 0.000000 0.000000
vt 1.000000 1.000000
vt 0.000000 1.000000
vt 1.000000 0.000000
vt 0.000000 0.000000
vt 1.000000 1.000000
vt 0.000000 1.000000
vt 1.000000 0.000000
vt 0.000000 0.000000
vt 1.000000 1.000000
vt 0.000000 1.000000
vt 1.000000 0.000000
vt 0.000000 0.000000
vt 1.000000 1.000000
vt 0.000000 1.000000
vt 1.000000 0.000000
vt 0.000000 0.000000
vt 1.000000 1.000000
vt 0.000000 1.000000
vt 1.000000 0.000000
vt 0.000000 0.000000
vt 1.000000 1.000000
vt 1.000000 0.000000
vt 0.000000 0.000000
vt 0.000000 1.000000
vt 1.000000 1.000000
vt 1.000000 0.000000
vt 0.000000 0.000000
vt 0.000000 1.000000
vt 1.000000 1.000000
vt 1.000000 0.000000
vt 0.000000 0.000000
vt 0.000000 1.000000
vt 1.000000 1.000000
vt 1.000000 0.000000
vt 0.000000 0.000000
vt 0.000000 1.000000
vt 1.000000 1.000000
vt 0.000000 1.000000
vt 1.000000 0.000000
vt 0.000000 0.000000
vt 1.000000 1.000000
vt 0.000000 1.000000
vt 1.000000 0.000000
vt 0.000000 0.000000
vt 1.000000 1.000000
vt 0.000000 1.000000
vt 1.000000 0.000000
vt 0.000000 0.000000
vt 1.000000 1.000000
vt 0.500000 0.500000
vt 0.500000 0.500000
vt 0.000000 0.000000
vt 0.500000 0.500000
vt 1.000000 0.000000
vt 0.500000 0.500000
vt 0.000000 1.000000
vt 1.000000 1.000000
vt 0.500000 0.500000
vt 0.500000 0.500000
vt 0.000000 0.000000
vt 0.000000 1.000000
vt 1.000000 1.000000
vt 0.500000 0.500000
vt 1.000000 0.000000
vt 0.500000 0.500000
vt 0.000000 1.000000
vt 1.000000 1.000000
vt 1.000000 0.000000
vt 0.000000 0.000000
vt 0.500000 0.500000
vt 0.500000 0.500000
vt 0.000000 0.000000
vt 0.500000 0.500000
vt 1.000000 0.000000
vt 0.500000 0.500000
vt 0.000000 1.000000
vt 1.000000 1.000000
vt 0.500000 0.500000
vt 0.500000 0.500000
vt 0.000000 0.000000
vt 0.500000 0.500000
vt 1.000000 0.000000
vt 0.500000 0.500000
vt 0.000000 1.000000
vt 1.000000 1.000000
vt 0.500000 0.500000
vt 0.500000 0.500000
vt 0.000000 0.000000
vt 0.500000 0.500000
vt 1.000000 0.000000
vt 0.500000 0.500000
vt 0.000000 1.000000
vt 1.000000 1.000000
vt 0.500000 0.500000
vt 0.500000 0.500000
vt 0.000000 0.000000
vt 0.500000 0.500000
vt 1.000000 0.000000
vt 0.500000 0.500000
vt 0.000000 1.000000
vt 1.000000 1.000000
vt 0.500000 0.500000
vt 0.500000 0.500000
vt 0.000000 0.000000
vt 0.500000 0.500000
vt 1.000000 0.000000
vt 0.500000 0.500000
vt 0.000000 1.000000
vt 1.000000 1.000000
vt 0.500000 0.500000
vt 0.500000 0.500000
vt 0.000000 0.000000
vt 0.500000 0.500000
vt 1.000000 0.000000
vt 0.500000 0.500000
vt 0.000000 1.000000
vt 1.000000 1.000000
vt 0.500000 0.500000
vt 0.500000 0.500000
vt 0.000000 0.000000
vt 0.500000 0.500000
vt 1.000000 0.000000
vt 0.500000 0.500000
vt 0.000000 1.000000
vt 1.000000 1.000000
vt 0.500000 0.500000
vt 0.500000 0.500000
vt 0.000000 0.000000
vt 0.500000 0.500000
vt 1.000000 0.000000
vt 0.500000 0.500000
vt 0.000000 1.000000
vt 1.000000 1.000000
vt 0.500000 0.500000
vt 0.500000 0.500000
vt 0.000000 0.000000
vt 0.000000 1.000000
vt 1.000000 1.000000
vt 0.500000 0.500000
vt 1.000000 0.000000
vt 0.500000 0.500000
vt 0.500000 0.500000
vt 0.000000 0.000000
vt 0.500000 0.500000
vt 1.000000 0.000000
vt 0.500000 0.500000
vt 0.000000 1.000000
vt 1.000000 1.000000
vn 0.212505 0.976439 0.037523
vn -0.212563 0.976428 -0.037486
vn 0.037503 0.976450 -0.212458
vn -0.037524 0.976430 0.212549
vn -0.165332 0.976441 -0.138663
vn 0.165271 0.976447 0.138700
vn -0.138704 0.976438 0.165315
vn 0.138673 0.976458 -0.165224
vn -0.202783 0.976440 -0.073783
vn 0.202724 0.976450 0.073820
vn -0.073822 0.976440 0.202768
vn 0.073798 0.976461 -0.202676
vn 0.037445 0.976445 0.212490
vn -0.037503 0.976450 -0.212458
vn 0.212461 0.976453 -0.037406
vn -0.212498 0.976442 0.037484
vn -0.202783 0.976440 -0.073783
vn 0.202724 0.976450 0.073820
vn -0.073822 0.976440 0.202768
vn 0.073798 0.976461 -0.202676
vn 0.138673 0.976458 -0.165224
vn -0.138704 0.976438 0.165315
vn -0.165332 0.976441 -0.138663
vn 0.165271 0.976447 0.138700
vn 0.033748 0.988072 0.150249
vn 0.060576 0.974832 -0.214555
vn 0.399613 0.897339 -0.187327
vn 0.394335 0.902877 0.171209
vn -0.036907 0.941278 0.335611
vn -0.297585 0.951434 0.078839
vn -0.053598 0.984268 -0.168358
vn 0.216970 0.973881 0.066924
vn -0.079931 0.951962 -0.295599
vn 0.200897 0.977641 -0.062113
vn -0.021778 0.978213 0.206460
vn -0.310413 0.950590 -0.004732
vn 0.071603 0.912646 -0.402430
vn 0.386335 0.896661 -0.216204
vn 0.216318 0.973149 0.078659
vn -0.102651 0.991133 -0.084368
vn 0.286826 0.957944 0.008626
vn 0.630849 0.759270 -0.159805
vn 0.540634 0.832318 0.122319
vn 0.377129 0.884857 -0.273498
vn 0.083861 0.881037 -0.465554
vn -0.331490 0.876801 -0.348331
vn -0.175703 0.784945 -0.594130
vn -0.071899 0.972890 -0.219806
vn -0.456806 0.874250 0.164363
vn -0.133993 0.882609 0.450607
vn -0.422853 0.784342 0.453877
vn -0.167915 0.972558 0.161044
vn -0.000015 1.000000 0.000015
vn -0.000015 1.000000 0.000015
vn 0.037503 0.976450 -0.212458
vn -0.000015 1.000000 0.000015
vn -0.212563 0.976428 -0.037486
vn -0.000015 1.000000 0.000015
vn 0.212505 0.976439 0.037523
vn -0.037524 0.976430 0.212549
vn -0.000015 1.000000 0.000015
vn -0.000015 1.000000 0.000015
vn 0.212461 0.976453 -0.037406
vn 0.037445 0.976445 0.212490
vn -0.212498 0.976442 0.037484
vn -0.000015 1.000000 0.000015
vn -0.037503 0.976450 -0.212458
vn -0.000015 1.000000 0.000015
vn -0.202783 0.976440 -0.073783
vn 0.073798 0.976461 -0.202676
vn 0.202724 0.976450 0.073820
vn -0.073822 0.976440 0.202768
vn -0.000015 1.000000 0.000015
vn -0.000015 1.000000 0.000015
vn -0.165332 0.976441 -0.138663
vn -0.000015 1.000000 0.000015
vn -0.138704 0.976438 0.165315
vn -0.000015 1.000000 0.000015
vn 0.138673 0.976458 -0.165224
vn 0.165271 0.976447 0.138700
vn 0.225330 0.974224 -0.010655
vn 0.225330 0.974224 -0.010655
vn 0.060576 0.974832 -0.214555
vn 0.225330 0.974224 -0.010655
vn 0.033748 0.988072 0.150249
vn 0.225330 0.974224 -0.010655
vn 0.399613 0.897339 -0.187327
vn 0.394335 0.902877 0.171209
vn -0.039375 0.995082 0.090890
vn -0.039375 0.995082 0.090890
vn -0.297585 0.951434 0.078839
vn -0.039375 0.995082 0.090890
vn -0.036907 0.941278 0.335611
vn -0.039375 0.995082 0.090890
vn -0.053598 0.984268 -0.168358
vn 0.216970 0.973881 0.066924
vn -0.060271 0.996938 -0.049815
vn -0.060271 0.996938 -0.049815
vn 0.200897 0.977641 -0.062113
vn -0.060271 0.996938 -0.049815
vn -0.079931 0.951962 -0.295599
vn -0.060271 0.996938 -0.049815
vn -0.021778 0.978213 0.206460
vn -0.310413 0.950590 -0.004732
vn 0.140646 0.975380 -0.169862
vn 0.140646 0.975380 -0.169862
vn 0.386335 0.896661 -0.216204
vn 0.140646 0.975380 -0.169862
vn 0.071603 0.912646 -0.402430
vn 0.140646 0.975380 -0.169862
vn 0.216318 0.973149 0.078659
vn -0.102651 0.991133 -0.084368
vn 0.469898 0.879322 -0.077387
vn 0.469898 0.879322 -0.077387
vn 0.540634 0.832318 0.122319
vn 0.469898 0.879322 -0.077387
vn 0.630849 0.759270 -0.159805
vn 0.469898 0.879322 -0.077387
vn 0.286826 0.957944 0.008626
vn 0.377129 0.884857 -0.273498
vn -0.126801 0.900122 -0.416775
vn -0.126801 0.900122 -0.416775
vn -0.175703 0.784945 -0.594130
vn -0.126801 0.900122 -0.416775
vn -0.331490 0.876801 -0.348331
vn -0.126801 0.900122 -0.416775
vn 0.083861 0.881037 -0.465554
vn -0.071899 0.972890 -0.219806
vn -0.302520 0.899645 0.314835
vn -0.302520 0.899645 0.314835
vn -0.422853 0.784342 0.453877
vn -0.302520 0.899645 0.314835
vn -0.133993 0.882609 0.450607
vn -0.302520 0.899645 0.314835
vn -0.456806 0.874250 0.164363
vn -0.167915 0.972558 0.161044
vn -0.000015 1.000000 0.000015
vn -0.000015 1.000000 0.000015
vn -0.138704 0.976438 0.165315
vn -0.165332 0.976441 -0.138663
vn 0.138673 0.976458 -0.165224
vn -0.000015 1.000000 0.000015
vn 0.165271 0.976447 0.138700
vn -0.000015 1.000000 0.000015
vn -0.000015 1.000000 0.000015
vn -0.073822 0.976440 0.202768
vn -0.000015 1.000000 0.000015
vn 0.202724 0.976450 0.073820
vn -0.000015 1.000000 0.000015
vn -0.202783 0.976440 -0.073783
vn 0.073798 0.976461 -0.202676
f 53/53/53 1/1/1 3/3/3
f 54/54/54 55/55/55 2/2/2
f 56/56/56 57/57/57 4/4/4
f 58/58/58 60/60/60 59/59/59
f 61/61/61 13/13/13 15/15/15
f 62/62/62 63/63/63 14/14/14
f 62/62/62 65/65/65 64/64/64
f 66/66/66 67/67/67 16/16/16
f 68/68/68 17/17/17 19/19/19
f 68/68/68 70/70/70 69/69/69
f 68/68/68 71/71/71 20/20/20
f 68/68/68 72/72/72 18/18/18
f 73/73/73 21/21/21 23/23/23
f 74/74/74 75/75/75 22/22/22
f 76/76/76 77/77/77 24/24/24
f 78/78/78 80/80/80 79/79/79
f 81/81/81 27/27/27 26/26/26
f 82/82/82 83/83/83 25/25/25
f 84/84/84 85/85/85 28/28/28
f 86/86/86 88/88/88 87/87/87
f 89/89/89 31/31/31 30/30/30
f 90/90/90 91/91/91 29/29/29
f 92/92/92 93/93/93 32/32/32
f 94/94/94 96/96/96 95/95/95
f 97/97/97 35/35/35 34/34/34
f 98/98/98 99/99/99 33/33/33
f 100/100/100 101/101/101 36/36/36
f 102/102/102 104/104/104 103/103/103
f 105/105/105 39/39/39 38/38/38
f 106/106/106 107/107/107 37/37/37
f 108/108/108 109/109/109 40/40/40
f 110/110/110 112/112/112 111/111/111
f 113/113/113 41/41/41 43/43/43
f 114/114/114 115/115/115 42/42/42
f 116/116/116 117/117/117 44/44/44
f 118/118/118 120/120/120 119/119/119
f 121/121/121 45/45/45 47/47/47
f 122/122/122 123/123/123 46/46/46
f 124/124/124 125/125/125 48/48/48
f 126/126/126 128/128/128 127/127/127
f 129/129/129 49/49/49 51/51/51
f 130/130/130 131/131/131 50/50/50
f 132/132/132 133/133/133 52/52/52
f 134/134/134 136/136/136 135/135/135
f 137/137/137 5/5/5 7/7/7
f 138/138/138 139/139/139 6/6/6
f 138/138/138 141/141/141 140/140/140
f 142/142/142 143/143/143 8/8/8
f 144/144/144 9/9/9 11/11/11
f 145/145/145 146/146/146 10/10/10
f 147/147/147 148/148/148 12/12/12
f 149/149/149 151/151/151 150/150/150
