# Densetsu Tool Suite OBJ Export
o Bowl_2_combined
mtllib Bowl_2_combined.mtl
g surface_0
usemtl Porcelain
v -0.052015 0.050594 -0.016901
v 0.000000 0.050594 -0.054692
v 0.000000 0.051702 -0.049272
v 0.000000 0.051703 0.049272
v 0.000000 0.050594 0.054692
v 0.000000 0.051703 0.049272
v 0.000000 0.051702 -0.049272
v 0.052015 0.050594 0.016901
v 0.000000 0.050594 -0.054692
v 0.000000 0.050594 0.054692
v 0.000000 0.050594 0.054692
v 0.052015 0.050594 0.016901
v 0.000000 0.050594 -0.054692
v 0.000000 0.050594 0.054692
v 0.000000 0.050594 -0.054692
v -0.052015 0.050594 -0.016901
v 0.000000 0.006982 -0.022339
v 0.000000 0.006982 0.022339
v 0.000000 0.006982 0.022339
v 0.000000 0.006982 -0.022339
v -0.000000 0.004730 0.017525
v 0.000000 0.004730 -0.017525
v 0.000000 0.051703 0.049272
v 0.000000 0.051702 -0.049272
v 0.000000 0.051703 0.049272
v 0.000000 0.051702 -0.049272
v -0.000000 0.004730 0.017525
v 0.000000 0.004730 -0.017525
v -0.046861 0.051703 -0.015226
v 0.046861 0.051703 0.015226
v 0.000000 0.006982 0.022339
v 0.000000 0.006982 -0.022339
v 0.000000 0.000000 0.022339
v -0.000000 0.016984 -0.028765
v -0.046861 0.051703 -0.015226
v -0.000000 0.016984 0.028765
v -0.000000 0.016984 0.028765
v 0.016667 0.004730 -0.005416
v 0.046861 0.051703 0.015226
v -0.000000 0.016984 -0.028765
v 0.000000 0.004730 -0.017525
v 0.016667 0.004730 -0.005416
v -0.000000 0.004730 0.017525
v 0.021246 0.000000 0.006903
v 0.021246 0.006982 0.006903
v -0.021246 0.006982 -0.006903
v -0.013131 -0.000000 -0.018073
v -0.032147 0.050594 -0.044247
v -0.052015 0.050594 0.016901
v -0.032147 0.050594 0.044246
v -0.028962 0.051703 0.039862
v 0.032147 0.050594 -0.044247
v 0.052015 0.050594 -0.016901
v 0.028962 0.051702 -0.039862
v 0.032147 0.050594 -0.044247
v 0.052015 0.050594 -0.016901
v 0.021246 0.006982 0.006903
v -0.032147 0.050594 0.044246
v -0.052015 0.050594 0.016901
v -0.021246 0.006982 -0.006903
v -0.032147 0.050594 -0.044247
v -0.027357 0.016984 -0.008889
v -0.016667 0.004730 0.005416
v -0.016908 0.016984 0.023271
v -0.028962 0.051703 0.039862
v 0.027357 0.016984 -0.008889
v 0.028962 0.051702 -0.039862
v 0.021246 0.000000 0.006903
v -0.013131 -0.000000 -0.018073
v 0.000000 0.000000 0.022339
v -0.016667 0.004730 0.005416
v 0.021246 0.006982 -0.006903
v -0.013131 0.006982 0.018073
v 0.013131 -0.000000 -0.018073
v -0.021246 0.000000 0.006903
v -0.028962 0.051702 -0.039862
v -0.046861 0.051703 0.015226
v 0.044565 0.039589 0.014480
v 0.046861 0.051703 -0.015226
v 0.028962 0.051703 0.039862
v 0.016908 0.016984 0.023271
v 0.016757 0.009874 0.005445
v 0.010356 0.009874 -0.014254
v 0.016908 0.016984 -0.023271
v 0.046861 0.051703 -0.015226
v 0.032147 0.050594 0.044246
v 0.028962 0.051703 0.039862
v 0.049945 0.037671 -0.016228
v 0.000000 0.013700 -0.034734
v 0.020416 0.013700 -0.028100
v 0.021246 0.006982 -0.006903
v 0.020416 0.013700 0.028100
v 0.032147 0.050594 0.044246
v 0.000000 0.037671 0.052516
v -0.020416 0.013700 -0.028100
v -0.033034 0.013700 -0.010733
v 0.000000 0.013700 -0.034734
v -0.033034 0.013700 0.010733
v -0.013131 0.006982 0.018073
v -0.020416 0.013700 0.028100
v 0.000000 0.037671 0.052516
v -0.028962 0.051702 -0.039862
v -0.046861 0.051703 0.015226
v -0.016908 0.016984 -0.023271
v -0.010356 0.009874 -0.014254
v -0.016667 0.004730 -0.005416
v -0.027357 0.016984 0.008889
v -0.027543 0.039589 0.037909
v -0.010356 0.009874 0.014254
v -0.010301 0.002180 0.014178
v 0.013131 -0.000000 -0.018073
v -0.021246 0.000000 0.006903
v -0.016667 0.004730 -0.005416
v -0.010301 0.002180 0.014178
v 0.013131 0.006982 0.018073
v 0.013131 0.000000 0.018073
v 0.021246 0.000000 -0.006903
v 0.013131 0.006982 -0.018073
v -0.013131 0.000000 0.018073
v 0.000000 -0.000000 -0.022339
v -0.013131 0.006982 -0.018073
v -0.021246 0.006982 0.006903
v -0.021246 0.000000 -0.006903
v 0.044565 0.039589 -0.014480
v 0.027543 0.039589 -0.037910
v 0.000000 0.039589 -0.046859
v 0.023338 0.027119 -0.032123
v 0.000000 0.027119 -0.039706
v 0.037762 0.027119 -0.012270
v -0.000000 0.009874 -0.017619
v 0.027543 0.039589 0.037909
v 0.000000 0.039589 0.046859
v 0.037762 0.027119 0.012270
v 0.023338 0.027119 0.032123
v -0.000000 0.027119 0.039706
v 0.027357 0.016984 0.008889
v -0.000000 0.009874 0.017619
v 0.010356 0.009874 0.014254
v 0.010301 0.004730 0.014178
v 0.016667 0.004730 0.005416
v 0.016757 0.009874 -0.005445
v 0.010301 0.004730 -0.014178
v 0.030868 0.037671 -0.042486
v 0.000000 0.037671 -0.052516
v 0.000000 0.023725 -0.044081
v 0.041924 0.023725 -0.013622
v 0.025910 0.023725 -0.035662
v 0.013131 0.006982 -0.018073
v 0.033034 0.013700 -0.010733
v 0.033034 0.013700 0.010733
v 0.013131 0.006982 0.018073
v 0.041924 0.023725 0.013622
v 0.000000 0.013700 0.034734
v 0.025910 0.023725 0.035662
v 0.000000 0.023725 0.044081
v 0.049946 0.037671 0.016228
v 0.030868 0.037671 0.042486
v -0.049945 0.037671 -0.016228
v -0.030868 0.037671 -0.042486
v 0.000000 0.037671 -0.052516
v -0.025910 0.023725 -0.035662
v 0.000000 0.023725 -0.044081
v -0.041924 0.023725 -0.013622
v -0.049945 0.037671 0.016228
v -0.041924 0.023725 0.013622
v -0.013131 0.006982 -0.018073
v -0.021246 0.006982 0.006903
v 0.000000 0.013700 0.034734
v -0.025910 0.023725 0.035662
v 0.000000 0.023725 0.044081
v -0.030868 0.037671 0.042486
v -0.016757 0.009874 0.005445
v -0.000000 0.009874 0.017619
v -0.016757 0.009874 -0.005445
v -0.010301 0.004730 -0.014178
v -0.000000 0.009874 -0.017619
v 0.000000 0.027119 -0.039706
v -0.037762 0.027119 -0.012270
v -0.023338 0.027119 -0.032123
v 0.000000 0.039589 -0.046859
v -0.027543 0.039589 -0.037910
v -0.044565 0.039589 -0.014480
v -0.044565 0.039589 0.014480
v -0.037762 0.027119 0.012270
v 0.000000 0.039589 0.046859
v -0.023338 0.027119 0.032123
v -0.000000 0.027119 0.039706
v -0.013131 0.000000 0.018073
v 0.021246 0.000000 -0.006903
v 0.013131 0.000000 0.018073
v -0.021246 0.000000 -0.006903
v 0.000000 -0.000000 -0.022339
v -0.010301 0.004730 -0.014178
v 0.010301 0.004730 -0.014178
v 0.016667 0.004730 0.005416
v 0.010301 0.004730 0.014178
vt 0.302154 0.851659
vt 0.303540 0.846671
vt 0.303333 0.846790
vt 0.297904 0.863370
vt 0.298702 0.864129
vt 0.305453 0.838035
vt 0.303333 0.846790
vt 0.304726 0.842001
vt 0.303540 0.846671
vt 0.305794 0.838066
vt 0.305794 0.838066
vt 0.304726 0.842001
vt 0.303540 0.846671
vt 0.298702 0.864129
vt 0.303540 0.846671
vt 0.302154 0.851659
vt 0.307891 0.847786
vt 0.309295 0.840914
vt 0.309295 0.860523
vt 0.307891 0.847786
vt 0.300467 0.838888
vt 0.298090 0.844909
vt 0.305453 0.838035
vt 0.303333 0.846790
vt 0.297904 0.863370
vt 0.303333 0.846790
vt 0.290703 0.853770
vt 0.298090 0.844909
vt 0.301992 0.851620
vt 0.304589 0.841964
vt 0.310532 0.843430
vt 0.313901 0.838261
vt 0.310912 0.842853
vt 0.300146 0.846023
vt 0.301992 0.851620
vt 0.292284 0.856879
vt 0.301954 0.838453
vt 0.299823 0.842197
vt 0.304589 0.841964
vt 0.300146 0.846023
vt 0.312625 0.844356
vt 0.310178 0.844356
vt 0.310178 0.847724
vt 0.313501 0.842587
vt 0.313963 0.843161
vt 0.310355 0.838684
vt 0.312094 0.838696
vt 0.302816 0.849144
vt 0.301304 0.854545
vt 0.300119 0.858240
vt 0.299959 0.858186
vt 0.303983 0.845218
vt 0.304343 0.843609
vt 0.303776 0.845178
vt 0.303983 0.845218
vt 0.304343 0.843609
vt 0.308164 0.842995
vt 0.300119 0.858240
vt 0.301304 0.854545
vt 0.307976 0.852402
vt 0.302816 0.849144
vt 0.298095 0.850081
vt 0.294221 0.850389
vt 0.294901 0.854794
vt 0.299959 0.858186
vt 0.301519 0.842846
vt 0.303776 0.845178
vt 0.313501 0.842587
vt 0.312094 0.838696
vt 0.310912 0.842853
vt 0.312625 0.847724
vt 0.314975 0.841671
vt 0.309476 0.841970
vt 0.314250 0.840084
vt 0.310127 0.840386
vt 0.302692 0.849125
vt 0.301136 0.854510
vt 0.303902 0.841803
vt 0.304180 0.843567
vt 0.305011 0.840218
vt 0.302125 0.839962
vt 0.300924 0.841210
vt 0.299796 0.843888
vt 0.300969 0.844387
vt 0.304180 0.843567
vt 0.305144 0.840254
vt 0.305011 0.840218
vt 0.305016 0.843770
vt 0.306422 0.847686
vt 0.306625 0.845809
vt 0.307927 0.844371
vt 0.307639 0.841286
vt 0.305144 0.840254
vt 0.306758 0.838463
vt 0.306176 0.849858
vt 0.306050 0.852335
vt 0.306422 0.847686
vt 0.305863 0.855220
vt 0.308334 0.857873
vt 0.306007 0.858470
vt 0.301509 0.864087
vt 0.302692 0.849125
vt 0.301136 0.854510
vt 0.299210 0.847956
vt 0.297826 0.847161
vt 0.295651 0.848448
vt 0.296727 0.852371
vt 0.298454 0.857488
vt 0.293457 0.853135
vt 0.292596 0.852236
vt 0.314250 0.840084
vt 0.310127 0.840386
vt 0.313382 0.846683
vt 0.311402 0.848122
vt 0.312291 0.843831
vt 0.312234 0.843100
vt 0.314265 0.841458
vt 0.314975 0.839843
vt 0.310165 0.841730
vt 0.313442 0.838971
vt 0.312015 0.837937
vt 0.309422 0.840197
vt 0.310834 0.839242
vt 0.303487 0.843391
vt 0.303034 0.845000
vt 0.302494 0.846690
vt 0.302098 0.844757
vt 0.301440 0.846441
vt 0.302599 0.843155
vt 0.298868 0.845410
vt 0.304238 0.840078
vt 0.304412 0.837937
vt 0.303024 0.841614
vt 0.303249 0.839977
vt 0.303174 0.838074
vt 0.301973 0.841418
vt 0.300988 0.838866
vt 0.301086 0.839986
vt 0.300528 0.839957
vt 0.300336 0.841044
vt 0.300444 0.842487
vt 0.299098 0.843480
vt 0.304687 0.845394
vt 0.304274 0.847064
vt 0.305324 0.847417
vt 0.305906 0.843981
vt 0.305640 0.845605
vt 0.307923 0.845953
vt 0.306774 0.844187
vt 0.307104 0.842707
vt 0.308594 0.841814
vt 0.306266 0.842432
vt 0.308604 0.839976
vt 0.306807 0.840863
vt 0.307791 0.839189
vt 0.305391 0.842174
vt 0.305882 0.840481
vt 0.303174 0.851916
vt 0.303717 0.849375
vt 0.304274 0.847064
vt 0.304952 0.849663
vt 0.305324 0.847417
vt 0.304600 0.852207
vt 0.302517 0.854852
vt 0.304189 0.855122
vt 0.307871 0.849972
vt 0.308014 0.855070
vt 0.307084 0.862120
vt 0.303961 0.858666
vt 0.304599 0.863307
vt 0.301773 0.858580
vt 0.295173 0.851149
vt 0.291465 0.854681
vt 0.296601 0.849106
vt 0.296941 0.846584
vt 0.298868 0.845410
vt 0.301440 0.846441
vt 0.299679 0.850783
vt 0.300643 0.848486
vt 0.302494 0.846690
vt 0.301791 0.848877
vt 0.300966 0.851297
vt 0.299934 0.854083
vt 0.298427 0.853380
vt 0.295713 0.861807
vt 0.296683 0.856355
vt 0.293721 0.859524
vt 0.310165 0.841730
vt 0.314265 0.841458
vt 0.312234 0.843100
vt 0.310834 0.839242
vt 0.313442 0.838971
vt 0.313382 0.845397
vt 0.311402 0.843958
vt 0.309422 0.845397
vt 0.309422 0.846683
vn -0.190594 0.979709 -0.061996
vn 0.000000 0.979713 -0.200405
vn 0.000000 0.979713 -0.200405
vn -0.000018 0.979712 0.200408
vn -0.000018 0.979712 0.200408
vn -0.000018 0.979712 0.200408
vn 0.000000 0.979713 -0.200405
vn 0.190566 0.979717 0.061955
vn 0.000000 0.979713 -0.200405
vn -0.000018 0.979712 0.200408
vn -0.000018 -0.166055 0.986116
vn 0.937856 -0.166043 0.304723
vn 0.000000 -0.166072 -0.986114
vn -0.000018 -0.166055 0.986116
vn 0.000000 -0.166072 -0.986114
vn -0.937844 -0.166023 -0.304769
vn 0.000000 -0.879196 -0.476460
vn -0.000021 -0.879191 0.476469
vn -0.000021 -0.879191 0.476469
vn 0.000000 -0.879196 -0.476460
vn -0.017545 0.645387 -0.763654
vn -0.000022 0.650527 0.759483
vn -0.000036 0.195367 -0.980730
vn -0.000018 0.195384 0.980727
vn -0.000036 0.195367 -0.980730
vn -0.000018 0.195384 0.980727
vn -0.017545 0.645387 -0.763654
vn -0.000022 0.650527 0.759483
vn -0.190594 0.979709 -0.061996
vn 0.190566 0.979717 0.061955
vn -0.000015 -0.000015 1.000000
vn 0.000000 -0.000031 -1.000000
vn -0.000015 -0.000015 1.000000
vn -0.000021 0.782958 0.622074
vn 0.932712 0.195391 0.303101
vn -0.000043 0.782950 -0.622085
vn -0.000043 0.782950 -0.622085
vn -0.722356 0.650486 0.234669
vn -0.932719 0.195367 -0.303096
vn -0.000021 0.782958 0.622074
vn -0.000022 0.650527 0.759483
vn -0.722356 0.650486 0.234669
vn -0.017545 0.645387 -0.763654
vn 0.951059 -0.000019 0.309008
vn 0.951059 -0.000019 0.309008
vn -0.951031 0.000000 -0.309095
vn -0.587698 0.000000 -0.809081
vn -0.117788 0.979708 -0.162170
vn -0.190603 0.979713 0.061917
vn -0.117805 0.979712 0.162129
vn -0.117805 0.979712 0.162129
vn 0.117819 0.979725 -0.162044
vn 0.190581 0.979717 -0.061916
vn 0.117819 0.979725 -0.162044
vn 0.579619 -0.166090 -0.797782
vn 0.937832 -0.166071 -0.304779
vn 0.453111 -0.879197 0.147319
vn -0.579637 -0.166065 0.797774
vn -0.937873 -0.166038 0.304672
vn -0.453138 -0.879183 -0.147321
vn -0.579584 -0.165986 -0.797829
vn 0.591608 0.782969 0.192246
vn 0.731645 0.645463 -0.219255
vn 0.365633 0.782989 -0.503231
vn 0.576490 0.195428 -0.793390
vn -0.591645 0.782955 0.192194
vn -0.576455 0.195400 0.793422
vn 0.000000 -1.000000 -0.000015
vn 0.000000 -1.000000 -0.000015
vn 0.000000 -1.000000 -0.000015
vn 0.731645 0.645463 -0.219255
vn 0.951057 -0.000038 -0.309014
vn -0.587876 -0.000021 0.808951
vn 0.587738 -0.000085 -0.809051
vn -0.951074 -0.000019 0.308962
vn -0.117788 0.979708 -0.162170
vn -0.190603 0.979713 0.061917
vn -0.894043 0.340987 -0.290542
vn -0.932730 0.195386 0.303048
vn -0.576457 0.195321 -0.793440
vn -0.365643 0.782910 -0.503346
vn -0.804602 0.533148 -0.261474
vn -0.497260 0.533214 0.684409
vn -0.365662 0.782972 0.503236
vn 0.190581 0.979717 -0.061916
vn 0.117767 0.979711 0.162167
vn 0.117767 0.979711 0.162167
vn 0.895602 -0.336478 -0.290996
vn 0.000000 -0.775633 -0.631184
vn 0.370920 -0.775675 -0.510634
vn 0.453123 -0.879199 -0.147271
vn 0.371007 -0.775623 0.510650
vn 0.579583 -0.166063 0.797813
vn -0.000020 -0.336459 0.941698
vn -0.370930 -0.775594 -0.510749
vn -0.600314 -0.775600 -0.195111
vn 0.000000 -0.775633 -0.631184
vn -0.600307 -0.775632 0.195005
vn -0.280097 -0.879184 0.385461
vn -0.371060 -0.775628 0.510603
vn -0.000020 -0.336459 0.941698
vn 0.576401 0.195398 0.793462
vn 0.932728 0.195456 -0.303011
vn 0.365609 0.782966 0.503283
vn 0.497202 0.533209 0.684455
vn 0.722293 0.650517 0.234779
vn 0.591618 0.782975 -0.192193
vn 0.552567 0.341101 -0.760473
vn 0.497813 0.531775 -0.685127
vn 0.587783 0.014644 -0.808886
vn 0.000000 -1.000000 -0.000015
vn 0.000000 -1.000000 -0.000015
vn 0.722293 0.650517 0.234779
vn -0.356250 0.795455 0.490241
vn 0.587780 -0.000021 0.809021
vn 0.587780 -0.000021 0.809021
vn 0.951057 -0.000038 -0.309014
vn 0.587738 -0.000085 -0.809051
vn -0.587876 -0.000021 0.808951
vn 0.000000 -0.000031 -1.000000
vn -0.587698 0.000000 -0.809081
vn -0.951074 -0.000019 0.308962
vn -0.951031 0.000000 -0.309095
vn -0.894053 0.341005 0.290491
vn -0.552577 0.341016 0.760504
vn -0.000020 0.341019 0.940056
vn -0.466416 0.608517 0.641999
vn -0.000021 0.608520 0.793538
vn -0.754679 0.608549 0.245211
vn -0.000021 0.533183 0.846000
vn -0.552543 0.340986 -0.760542
vn -0.000039 0.341002 -0.940063
vn -0.754714 0.608484 -0.245264
vn -0.466444 0.608493 -0.642002
vn -0.000043 0.608507 -0.793549
vn -0.591652 0.782924 -0.192300
vn -0.000421 0.532405 -0.846490
vn -0.497282 0.533132 -0.684457
vn -0.446447 0.650450 -0.614491
vn -0.722348 0.650476 -0.234724
vn -0.804611 0.533162 0.261420
vn -0.446418 0.650524 0.614434
vn 0.553513 -0.336494 -0.761837
vn 0.000000 -0.336476 -0.941692
vn 0.000000 -0.593326 -0.804963
vn 0.765543 -0.593389 -0.248664
vn 0.473038 -0.593342 -0.651292
vn 0.280015 -0.879218 -0.385445
vn 0.600298 -0.775626 -0.195057
vn 0.600271 -0.775647 0.195056
vn 0.280049 -0.879180 0.385506
vn 0.765547 -0.593338 0.248772
vn -0.000021 -0.775625 0.631195
vn 0.473122 -0.593323 0.651248
vn -0.000021 -0.593360 0.804937
vn 0.895614 -0.336451 0.290993
vn 0.553479 -0.336463 0.761875
vn -0.895606 -0.336387 -0.291091
vn -0.553501 -0.336436 -0.761871
vn 0.000000 -0.336476 -0.941692
vn -0.473036 -0.593287 -0.651342
vn 0.000000 -0.593326 -0.804963
vn -0.765569 -0.593311 -0.248771
vn -0.895635 -0.336441 0.290938
vn -0.765577 -0.593323 0.248716
vn -0.280028 -0.879165 -0.385557
vn -0.453189 -0.879173 0.147225
vn -0.000021 -0.775625 0.631195
vn -0.473236 -0.593334 0.651155
vn -0.000021 -0.593360 0.804937
vn -0.553535 -0.336467 0.761833
vn 0.805148 0.532504 -0.261105
vn -0.000421 0.532405 -0.846490
vn 0.804583 0.533176 0.261476
vn 0.446361 0.650518 0.614481
vn -0.000021 0.533183 0.846000
vn -0.000021 0.608520 0.793538
vn 0.754649 0.608564 0.245266
vn 0.466359 0.608512 0.642046
vn -0.000020 0.341019 0.940056
vn 0.552521 0.341013 0.760546
vn 0.894031 0.341015 0.290546
vn 0.894039 0.341079 -0.290447
vn 0.754687 0.608560 -0.245157
vn -0.000039 0.341002 -0.940063
vn 0.466445 0.608600 -0.641899
vn -0.000043 0.608507 -0.793549
vn 0.000000 -1.000000 -0.000015
vn 0.000000 -1.000000 -0.000015
vn 0.000000 -1.000000 -0.000015
vn 0.000000 -1.000000 -0.000015
vn 0.000000 -1.000000 -0.000015
vn 0.446361 0.650518 0.614481
vn -0.446418 0.650524 0.614434
vn -0.722348 0.650476 -0.234724
vn -0.446447 0.650450 -0.614491
f 115/115/115 44/44/44 45/45/45
f 44/44/44 72/72/72 45/45/45
f 44/44/44 115/115/115 116/116/116
f 72/72/72 44/44/44 117/117/117
f 31/31/31 116/116/116 115/115/115
f 74/74/74 72/72/72 117/117/117
f 116/116/116 31/31/31 33/33/33
f 72/72/72 74/74/74 118/118/118
f 31/31/31 119/119/119 33/33/33
f 120/120/120 118/118/118 74/74/74
f 119/119/119 31/31/31 73/73/73
f 118/118/118 120/120/120 32/32/32
f 73/73/73 75/75/75 119/119/119
f 120/120/120 121/121/121 32/32/32
f 75/75/75 73/73/73 122/122/122
f 121/121/121 120/120/120 47/47/47
f 46/46/46 75/75/75 122/122/122
f 47/47/47 46/46/46 121/121/121
f 75/75/75 46/46/46 123/123/123
f 46/46/46 47/47/47 123/123/123
f 1/1/1 76/76/76 48/48/48
f 3/3/3 48/48/48 76/76/76
f 48/48/48 3/3/3 2/2/2
f 76/76/76 1/1/1 29/29/29
f 49/49/49 29/29/29 1/1/1
f 29/29/29 49/49/49 77/77/77
f 50/50/50 77/77/77 49/49/49
f 77/77/77 50/50/50 51/51/51
f 5/5/5 51/51/51 50/50/50
f 51/51/51 5/5/5 4/4/4
f 124/124/124 39/39/39 79/79/79
f 79/79/79 125/125/125 124/124/124
f 125/125/125 79/79/79 67/67/67
f 67/67/67 126/126/126 125/125/125
f 126/126/126 67/67/67 24/24/24
f 126/126/126 127/127/127 125/125/125
f 127/127/127 126/126/126 128/128/128
f 125/125/125 129/129/129 124/124/124
f 129/129/129 125/125/125 127/127/127
f 128/128/128 84/84/84 127/127/127
f 84/84/84 129/129/129 127/127/127
f 84/84/84 128/128/128 40/40/40
f 130/130/130 84/84/84 40/40/40
f 39/39/39 124/124/124 78/78/78
f 129/129/129 78/78/78 124/124/124
f 131/131/131 39/39/39 78/78/78
f 39/39/39 131/131/131 80/80/80
f 132/132/132 80/80/80 131/131/131
f 80/80/80 132/132/132 23/23/23
f 133/133/133 131/131/131 78/78/78
f 78/78/78 129/129/129 133/133/133
f 134/134/134 132/132/132 131/131/131
f 131/131/131 133/133/133 134/134/134
f 132/132/132 134/134/134 135/135/135
f 81/81/81 135/135/135 134/134/134
f 133/133/133 81/81/81 134/134/134
f 135/135/135 81/81/81 37/37/37
f 129/129/129 136/136/136 133/133/133
f 81/81/81 133/133/133 136/136/136
f 81/81/81 137/137/137 37/37/37
f 136/136/136 129/129/129 66/66/66
f 129/129/129 84/84/84 66/66/66
f 82/82/82 81/81/81 136/136/136
f 66/66/66 82/82/82 136/136/136
f 137/137/137 81/81/81 138/138/138
f 81/81/81 82/82/82 138/138/138
f 138/138/138 21/21/21 137/137/137
f 21/21/21 138/138/138 139/139/139
f 82/82/82 139/139/139 138/138/138
f 139/139/139 82/82/82 140/140/140
f 82/82/82 38/38/38 140/140/140
f 38/38/38 82/82/82 141/141/141
f 82/82/82 66/66/66 141/141/141
f 141/141/141 142/142/142 38/38/38
f 66/66/66 83/83/83 141/141/141
f 142/142/142 141/141/141 83/83/83
f 83/83/83 66/66/66 84/84/84
f 84/84/84 130/130/130 83/83/83
f 130/130/130 142/142/142 83/83/83
f 142/142/142 130/130/130 22/22/22
f 52/52/52 85/85/85 53/53/53
f 85/85/85 8/8/8 53/53/53
f 85/85/85 52/52/52 54/54/54
f 9/9/9 54/54/54 52/52/52
f 54/54/54 9/9/9 7/7/7
f 8/8/8 85/85/85 30/30/30
f 30/30/30 86/86/86 8/8/8
f 86/86/86 30/30/30 87/87/87
f 87/87/87 10/10/10 86/86/86
f 10/10/10 87/87/87 6/6/6
f 55/55/55 88/88/88 143/143/143
f 88/88/88 55/55/55 56/56/56
f 143/143/143 13/13/13 55/55/55
f 12/12/12 88/88/88 56/56/56
f 13/13/13 143/143/143 144/144/144
f 143/143/143 145/145/145 144/144/144
f 146/146/146 143/143/143 88/88/88
f 145/145/145 143/143/143 147/147/147
f 143/143/143 146/146/146 147/147/147
f 90/90/90 145/145/145 147/147/147
f 145/145/145 90/90/90 89/89/89
f 148/148/148 89/89/89 90/90/90
f 89/89/89 148/148/148 17/17/17
f 147/147/147 149/149/149 90/90/90
f 149/149/149 148/148/148 90/90/90
f 149/149/149 147/147/147 146/146/146
f 148/148/148 149/149/149 91/91/91
f 149/149/149 57/57/57 91/91/91
f 57/57/57 149/149/149 150/150/150
f 146/146/146 150/150/150 149/149/149
f 150/150/150 151/151/151 57/57/57
f 150/150/150 146/146/146 152/152/152
f 151/151/151 150/150/150 92/92/92
f 92/92/92 18/18/18 151/151/151
f 18/18/18 92/92/92 153/153/153
f 150/150/150 154/154/154 92/92/92
f 154/154/154 153/153/153 92/92/92
f 154/154/154 150/150/150 152/152/152
f 153/153/153 154/154/154 155/155/155
f 154/154/154 94/94/94 155/155/155
f 146/146/146 156/156/156 152/152/152
f 156/156/156 154/154/154 152/152/152
f 156/156/156 146/146/146 88/88/88
f 88/88/88 12/12/12 156/156/156
f 154/154/154 156/156/156 157/157/157
f 94/94/94 154/154/154 157/157/157
f 12/12/12 157/157/157 156/156/156
f 157/157/157 11/11/11 94/94/94
f 157/157/157 12/12/12 93/93/93
f 11/11/11 157/157/157 93/93/93
f 16/16/16 159/159/159 158/158/158
f 158/158/158 59/59/59 16/16/16
f 159/159/159 16/16/16 61/61/61
f 61/61/61 160/160/160 159/159/159
f 160/160/160 61/61/61 15/15/15
f 160/160/160 161/161/161 159/159/159
f 161/161/161 160/160/160 162/162/162
f 159/159/159 163/163/163 158/158/158
f 163/163/163 159/159/159 161/161/161
f 59/59/59 158/158/158 164/164/164
f 164/164/164 58/58/58 59/59/59
f 165/165/165 158/158/158 163/163/163
f 158/158/158 165/165/165 164/164/164
f 162/162/162 95/95/95 161/161/161
f 95/95/95 162/162/162 97/97/97
f 20/20/20 95/95/95 97/97/97
f 95/95/95 20/20/20 166/166/166
f 96/96/96 161/161/161 95/95/95
f 166/166/166 96/96/96 95/95/95
f 161/161/161 96/96/96 163/163/163
f 96/96/96 166/166/166 60/60/60
f 98/98/98 163/163/163 96/96/96
f 60/60/60 98/98/98 96/96/96
f 163/163/163 98/98/98 165/165/165
f 98/98/98 60/60/60 167/167/167
f 167/167/167 100/100/100 98/98/98
f 100/100/100 165/165/165 98/98/98
f 100/100/100 167/167/167 99/99/99
f 19/19/19 100/100/100 99/99/99
f 100/100/100 19/19/19 168/168/168
f 165/165/165 100/100/100 169/169/169
f 168/168/168 169/169/169 100/100/100
f 169/169/169 164/164/164 165/165/165
f 169/169/169 168/168/168 170/170/170
f 164/164/164 169/169/169 171/171/171
f 170/170/170 171/171/171 169/169/169
f 58/58/58 164/164/164 171/171/171
f 171/171/171 170/170/170 101/101/101
f 171/171/171 14/14/14 58/58/58
f 14/14/14 171/171/171 101/101/101
f 106/106/106 172/172/172 63/63/63
f 109/109/109 63/63/63 172/172/172
f 63/63/63 109/109/109 110/110/110
f 109/109/109 27/27/27 110/110/110
f 27/27/27 109/109/109 173/173/173
f 64/64/64 173/173/173 109/109/109
f 173/173/173 64/64/64 36/36/36
f 107/107/107 109/109/109 172/172/172
f 109/109/109 107/107/107 64/64/64
f 172/172/172 106/106/106 174/174/174
f 175/175/175 174/174/174 106/106/106
f 172/172/172 62/62/62 107/107/107
f 62/62/62 172/172/172 174/174/174
f 174/174/174 175/175/175 105/105/105
f 28/28/28 105/105/105 175/175/175
f 105/105/105 28/28/28 176/176/176
f 34/34/34 105/105/105 176/176/176
f 104/104/104 174/174/174 105/105/105
f 105/105/105 34/34/34 104/104/104
f 174/174/174 104/104/104 62/62/62
f 177/177/177 104/104/104 34/34/34
f 178/178/178 107/107/107 62/62/62
f 104/104/104 178/178/178 62/62/62
f 104/104/104 177/177/177 179/179/179
f 178/178/178 104/104/104 179/179/179
f 180/180/180 179/179/179 177/177/177
f 179/179/179 180/180/180 181/181/181
f 181/181/181 178/178/178 179/179/179
f 180/180/180 102/102/102 181/181/181
f 102/102/102 180/180/180 26/26/26
f 35/35/35 181/181/181 102/102/102
f 178/178/178 181/181/181 182/182/182
f 181/181/181 35/35/35 182/182/182
f 35/35/35 183/183/183 182/182/182
f 183/183/183 178/178/178 182/182/182
f 183/183/183 35/35/35 103/103/103
f 107/107/107 178/178/178 184/184/184
f 178/178/178 183/183/183 184/184/184
f 184/184/184 64/64/64 107/107/107
f 103/103/103 108/108/108 183/183/183
f 108/108/108 184/184/184 183/183/183
f 108/108/108 103/103/103 65/65/65
f 65/65/65 185/185/185 108/108/108
f 185/185/185 65/65/65 25/25/25
f 184/184/184 108/108/108 186/186/186
f 185/185/185 186/186/186 108/108/108
f 64/64/64 184/184/184 186/186/186
f 186/186/186 185/185/185 187/187/187
f 186/186/186 36/36/36 64/64/64
f 36/36/36 186/186/186 187/187/187
f 188/188/188 189/189/189 68/68/68
f 188/188/188 68/68/68 190/190/190
f 188/188/188 190/190/190 70/70/70
f 189/189/189 188/188/188 191/191/191
f 191/191/191 188/188/188 112/112/112
f 189/189/189 191/191/191 69/69/69
f 189/189/189 69/69/69 192/192/192
f 189/189/189 192/192/192 111/111/111
f 71/71/71 194/194/194 193/193/193
f 193/193/193 194/194/194 41/41/41
f 71/71/71 193/193/193 113/113/113
f 194/194/194 71/71/71 195/195/195
f 194/194/194 195/195/195 42/42/42
f 71/71/71 196/196/196 195/195/195
f 71/71/71 43/43/43 196/196/196
f 43/43/43 71/71/71 114/114/114
