# Densetsu Tool Suite OBJ Export
o Crate_1_combined
mtllib Crate_1_combined.mtl
g surface_0
usemtl Wood3
v -0.416965 0.331167 -0.302483
v -0.416965 0.331168 0.302483
v -0.416965 0.000000 0.302483
v -0.416965 -0.000000 -0.302483
v 0.416965 -0.000000 -0.302483
v 0.416965 0.331167 -0.302483
v -0.416965 0.331167 -0.302483
v -0.416965 -0.000000 -0.302483
v 0.416965 0.000000 0.302483
v 0.416965 0.331168 0.302483
v 0.416965 0.331167 -0.302483
v 0.416965 -0.000000 -0.302483
v 0.416965 0.000000 0.302483
v 0.416965 -0.000000 -0.302483
v -0.416965 -0.000000 -0.302483
v -0.416965 0.000000 0.302483
v -0.377140 0.331168 0.273592
v -0.377140 0.331167 -0.273593
v -0.384448 0.016984 -0.278894
v -0.384448 0.016984 0.278894
v 0.384448 0.016984 -0.278894
v -0.384448 0.016984 -0.278894
v 0.377140 0.331167 -0.273593
v -0.377140 0.331167 -0.273593
v 0.377140 0.331168 0.273592
v 0.384448 0.016984 0.278894
v 0.384448 0.016984 -0.278894
v 0.377140 0.331167 -0.273593
v 0.384448 0.016984 0.278894
v -0.384448 0.016984 0.278894
v -0.384448 0.016984 -0.278894
v 0.384448 0.016984 -0.278894
v -0.377140 0.331167 -0.273593
v -0.377140 0.331168 0.273592
v -0.416965 0.331168 0.302483
v 0.377140 0.331168 0.273592
v 0.416965 0.331168 0.302483
v -0.416965 0.331167 -0.302483
v 0.377140 0.331167 -0.273593
v 0.416965 0.331167 -0.302483
v 0.377140 0.331168 0.273592
v 0.416965 0.331168 0.302483
v -0.377140 0.331168 0.273592
v -0.384448 0.016984 0.278894
v 0.384448 0.016984 0.278894
v 0.377140 0.331168 0.273592
v -0.416965 0.331168 0.302483
v 0.416965 0.331168 0.302483
v 0.416965 0.000000 0.302483
v -0.416965 0.000000 0.302483
v 0.171648 0.344597 -0.319923
v -0.177921 -0.000000 -0.302483
v -0.177921 0.312799 0.312074
v -0.177921 0.000000 0.302483
v -0.177921 -0.000000 -0.302483
v -0.177921 0.000000 0.302483
v 0.155254 0.344597 -0.291032
v -0.164046 0.016984 -0.278894
v -0.160928 0.312799 0.283184
v -0.164046 0.016984 0.278894
v -0.164046 0.016984 0.278894
v -0.164046 0.016984 -0.278894
v -0.377140 0.331168 0.273592
v -0.160928 0.312799 0.283184
v -0.177921 0.312799 0.312074
v -0.416965 0.331168 0.302483
v 0.155254 0.344597 -0.291032
v 0.171648 0.344597 -0.319923
v 0.377140 0.331167 -0.273593
v 0.416965 0.331167 -0.302483
v 0.171648 0.344597 -0.319923
v 0.155254 0.344597 -0.291032
v -0.377140 0.331167 -0.273593
v -0.416965 0.331167 -0.302483
v -0.177921 0.312799 0.312074
v -0.160928 0.312799 0.283184
v -0.164046 0.016984 0.278894
v -0.164046 0.016984 -0.278894
v -0.160928 0.312799 0.283184
v -0.164046 0.016984 0.278894
v 0.155254 0.344597 -0.291032
v -0.164046 0.016984 -0.278894
v -0.177921 0.312799 0.312074
v -0.177921 0.000000 0.302483
v -0.177921 -0.000000 -0.302483
v 0.171648 0.344597 -0.319923
vt -0.485306 0.369746
vt -0.466861 1.206888
vt -0.955594 1.215445
vt -0.935595 0.361545
vt -0.887726 -0.741319
vt -0.456393 -0.719530
vt -0.485306 0.369746
vt -0.935595 0.361545
vt -0.834605 -1.525216
vt -0.405488 -1.496136
vt -0.456393 -0.719530
vt -0.887726 -0.741319
vt 1.075286 -0.352421
vt 0.224494 -0.352421
vt 0.224494 -1.525216
vt 1.075286 -1.525216
vt 0.529668 -0.430726
vt 0.516688 0.338697
vt 0.074654 0.338697
vt 0.087885 -0.445635
vt 0.099796 1.419740
vt 0.074654 0.338697
vt 0.541352 1.399191
vt 0.516688 0.338697
vt 0.590087 2.167178
vt 0.149475 2.202609
vt 0.099796 1.419740
vt 0.541352 1.399191
vt 1.008937 -0.320736
vt 1.008937 0.760600
vt 0.224494 0.760600
vt 0.224494 -0.320735
vt -0.435258 0.363995
vt -0.414454 1.214194
vt -0.466861 1.206888
vt -0.354309 2.429751
vt -0.397683 2.496224
vt -0.485306 0.369746
vt -0.410376 -0.708913
vt -0.456393 -0.719530
vt -0.354308 -1.452781
vt -0.405488 -1.496136
vt 0.529668 -0.430726
vt 0.087885 -0.445635
vt 0.149475 -1.525216
vt 0.590086 -1.489785
vt -0.466861 1.206888
vt -0.397683 2.496224
vt -0.912620 2.525216
vt -0.955594 1.215445
vt -0.464898 -0.399097
vt -0.921873 0.045412
vt -0.447031 1.576473
vt -0.943275 1.590887
vt 0.224494 -1.189037
vt 1.075286 -1.189037
vt 0.534097 1.087225
vt 0.081861 0.648575
vt 0.546987 -0.734303
vt 0.105540 -0.755094
vt 1.008937 0.450638
vt 0.224494 0.450638
vt -0.414454 1.214194
vt -0.397214 1.562630
vt -0.447031 1.576473
vt -0.466861 1.206888
vt -0.417695 -0.393296
vt -0.464898 -0.399097
vt -0.410376 -0.708913
vt -0.456393 -0.719530
vt -0.464898 -0.399097
vt -0.417695 -0.393296
vt -0.435258 0.363995
vt -0.485306 0.369746
vt -0.447031 1.576473
vt -0.397214 1.562630
vt 1.008937 0.450638
vt 0.224494 0.450638
vt 0.546987 -0.734303
vt 0.105540 -0.755094
vt 0.534097 1.087225
vt 0.081861 0.648575
vt -0.447031 1.576473
vt -0.943275 1.590887
vt -0.921873 0.045412
vt -0.464898 -0.399097
vn -1.000000 0.000000 -0.000015
vn -1.000000 0.000000 -0.000015
vn -1.000000 0.000000 -0.000015
vn -1.000000 0.000000 -0.000015
vn 0.020133 -0.036272 -0.999139
vn 0.020133 -0.036272 -0.999139
vn -0.020761 -0.015010 -0.999672
vn -0.020761 -0.015010 -0.999672
vn 1.000000 0.000000 -0.000015
vn 1.000000 0.000000 -0.000015
vn 1.000000 0.000000 -0.000015
vn 1.000000 0.000000 -0.000015
vn 0.000000 -1.000000 -0.000015
vn 0.000000 -1.000000 -0.000015
vn 0.000000 -1.000000 -0.000015
vn 0.000000 -1.000000 -0.000015
vn 0.999729 -0.023259 -0.000016
vn 0.999729 -0.023259 -0.000016
vn 0.999729 -0.023259 -0.000016
vn 0.999729 -0.023259 -0.000016
vn -0.022270 0.021443 0.999522
vn 0.023174 -0.001172 0.999731
vn -0.022270 0.021443 0.999522
vn 0.023174 -0.001172 0.999731
vn -0.999730 -0.023228 -0.000078
vn -0.999730 -0.023228 -0.000078
vn -0.999730 -0.023228 -0.000078
vn -0.999730 -0.023228 -0.000078
vn 0.000000 1.000000 -0.000015
vn 0.000000 1.000000 -0.000015
vn 0.000000 1.000000 -0.000015
vn 0.000000 1.000000 -0.000015
vn 0.000000 1.000000 -0.000015
vn 0.000000 1.000000 -0.000015
vn 0.000000 1.000000 -0.000015
vn -0.032206 0.999400 0.012733
vn -0.032206 0.999400 0.012733
vn 0.000000 1.000000 -0.000015
vn 0.053422 0.997215 0.052042
vn 0.053422 0.997215 0.052042
vn 0.000000 1.000000 -0.000015
vn 0.000000 1.000000 -0.000015
vn 0.021837 -0.002093 -0.999759
vn 0.021837 -0.002093 -0.999759
vn -0.008757 -0.001696 -0.999960
vn -0.008757 -0.001696 -0.999960
vn -0.020646 -0.014896 0.999676
vn 0.008289 -0.014908 0.999855
vn 0.008289 -0.014908 0.999855
vn -0.020646 -0.014896 0.999676
vn 0.020133 -0.036272 -0.999139
vn 0.020133 -0.036272 -0.999139
vn -0.020646 -0.014896 0.999676
vn -0.020646 -0.014896 0.999676
vn 0.000000 -1.000000 -0.000015
vn 0.000000 -1.000000 -0.000015
vn -0.022270 0.021443 0.999522
vn -0.022270 0.021443 0.999522
vn 0.021837 -0.002093 -0.999759
vn 0.021837 -0.002093 -0.999759
vn 0.000000 1.000000 -0.000015
vn 0.000000 1.000000 -0.000015
vn 0.077022 0.994147 0.075762
vn 0.077022 0.994147 0.075762
vn 0.077022 0.994147 0.075762
vn 0.077022 0.994147 0.075762
vn 0.053422 0.997215 0.052042
vn 0.053422 0.997215 0.052042
vn 0.000000 1.000000 -0.000015
vn 0.000000 1.000000 -0.000015
vn -0.023658 0.999674 0.009599
vn -0.023658 0.999674 0.009599
vn -0.023658 0.999674 0.009599
vn -0.023658 0.999674 0.009599
vn -0.032206 0.999400 0.012733
vn -0.032206 0.999400 0.012733
vn 0.000000 1.000000 -0.000015
vn 0.000000 1.000000 -0.000015
vn -0.008757 -0.001696 -0.999960
vn -0.008757 -0.001696 -0.999960
vn 0.023174 -0.001172 0.999731
vn 0.023174 -0.001172 0.999731
vn 0.008289 -0.014908 0.999855
vn 0.008289 -0.014908 0.999855
vn -0.020761 -0.015010 -0.999672
vn -0.020761 -0.015010 -0.999672
f 1/1/1 3/3/3 2/2/2
f 3/3/3 1/1/1 4/4/4
f 5/5/5 51/51/51 6/6/6
f 51/51/51 5/5/5 52/52/52
f 9/9/9 11/11/11 10/10/10
f 11/11/11 9/9/9 12/12/12
f 50/50/50 53/53/53 47/47/47
f 53/53/53 50/50/50 54/54/54
f 13/13/13 55/55/55 14/14/14
f 55/55/55 13/13/13 56/56/56
f 56/56/56 15/15/15 55/55/55
f 15/15/15 56/56/56 16/16/16
f 17/17/17 19/19/19 18/18/18
f 19/19/19 17/17/17 20/20/20
f 57/57/57 21/21/21 23/23/23
f 21/21/21 57/57/57 58/58/58
f 25/25/25 27/27/27 26/26/26
f 27/27/27 25/25/25 28/28/28
f 59/59/59 44/44/44 43/43/43
f 44/44/44 59/59/59 60/60/60
f 29/29/29 62/62/62 61/61/61
f 62/62/62 29/29/29 32/32/32
f 33/33/33 35/35/35 34/34/34
f 35/35/35 33/33/33 38/38/38
f 63/63/63 65/65/65 64/64/64
f 65/65/65 63/63/63 66/66/66
f 39/39/39 68/68/68 67/67/67
f 68/68/68 39/39/39 40/40/40
f 41/41/41 70/70/70 69/69/69
f 70/70/70 41/41/41 42/42/42
f 71/71/71 73/73/73 72/72/72
f 73/73/73 71/71/71 74/74/74
f 75/75/75 36/36/36 76/76/76
f 36/36/36 75/75/75 37/37/37
f 77/77/77 31/31/31 30/30/30
f 31/31/31 77/77/77 78/78/78
f 79/79/79 45/45/45 80/80/80
f 45/45/45 79/79/79 46/46/46
f 24/24/24 82/82/82 81/81/81
f 82/82/82 24/24/24 22/22/22
f 83/83/83 49/49/49 48/48/48
f 49/49/49 83/83/83 84/84/84
f 85/85/85 7/7/7 86/86/86
f 7/7/7 85/85/85 8/8/8
g surface_1
usemtl Wood3.002
v -0.360285 0.375933 -0.244832
v -0.447608 0.030833 -0.245533
v -0.447608 0.030833 -0.333683
v -0.359457 0.030833 -0.245533
v -0.359457 0.030833 -0.333683
v -0.360285 0.375933 -0.244832
v -0.359457 0.030833 -0.245533
v 0.444771 0.371762 -0.336348
v 0.447608 0.030833 -0.333683
v 0.447608 0.030833 -0.245533
v 0.359457 0.030833 -0.245533
v 0.359457 0.030833 -0.245533
v 0.359457 0.030833 -0.333683
v -0.447608 0.030833 0.333683
v -0.447608 0.030833 0.245533
v -0.359457 0.030833 0.245533
v -0.359457 0.030833 0.333683
v 0.447608 0.030833 0.333683
v 0.360758 0.371827 0.334946
v 0.359457 0.030833 0.245533
v 0.447608 0.030833 0.245533
v 0.359457 0.030833 0.333683
v 0.359457 0.030833 0.245533
v 0.362294 0.371871 -0.242868
v 0.362294 0.371871 -0.242868
v -0.359457 0.371817 0.245533
v -0.359457 0.371817 0.245533
v -0.359457 0.030833 0.245533
v 0.358199 0.370901 0.246838
v 0.358199 0.370901 0.246838
v -0.446781 0.382259 -0.334384
v -0.448407 0.377520 -0.246376
v -0.358658 0.380672 -0.332840
v -0.360285 0.375933 -0.244832
v -0.448407 0.377520 -0.246376
v -0.446781 0.382259 -0.334384
v -0.358658 0.380672 -0.332840
v 0.450250 0.373781 -0.248391
v 0.356815 0.369851 -0.330825
v 0.444771 0.371762 -0.336348
v 0.450250 0.373781 -0.248391
v 0.362294 0.371871 -0.242868
v 0.356815 0.369851 -0.330825
v -0.447608 0.371817 0.245533
v -0.447608 0.371817 0.333683
v -0.359457 0.371817 0.333683
v -0.447608 0.371817 0.245533
v -0.359457 0.371817 0.245533
v -0.359457 0.371817 0.333683
v -0.447608 0.371817 0.333683
v 0.448866 0.372732 0.332378
v 0.446307 0.371806 0.244270
v 0.446307 0.371806 0.244270
v 0.448866 0.372732 0.332378
v 0.360758 0.371827 0.334946
v 0.358199 0.370901 0.246838
vt 0.786417 0.749732
vt 0.662447 0.481567
vt 0.538477 0.481567
vt 0.786417 0.481567
vt 0.414507 0.481567
vt 0.290536 0.749732
vt 0.290536 0.481567
vt 0.295504 0.500907
vt 0.295504 0.232741
vt 0.171534 0.232741
vt 0.047564 0.232741
vt 0.543444 0.232741
vt 0.419474 0.232741
vt 1.288563 -0.052570
vt 1.164593 -0.052570
vt 1.040623 -0.052570
vt 1.412533 -0.052570
vt 0.613900 -0.622123
vt 0.489930 -0.190824
vt 0.861841 -0.622123
vt 0.737870 -0.622123
vt 0.489930 -0.622123
vt 0.365960 -0.622123
vt 0.047564 0.500907
vt 0.543444 0.500907
vt 1.040623 0.215596
vt 1.536503 0.215595
vt 1.536503 -0.052570
vt 0.861841 -0.190824
vt 0.365960 -0.190824
vt 0.538476 0.749732
vt 0.662447 0.749732
vt 0.414506 0.749732
vt 1.475903 0.898817
vt 1.475903 0.774847
vt 1.351933 0.774847
vt 1.351933 0.898817
vt 0.171534 0.500907
vt 0.419474 0.500907
vt 0.971085 0.916256
vt 0.971085 0.792285
vt 0.847115 0.792285
vt 0.847115 0.916256
vt 1.164593 0.215596
vt 1.288563 0.215596
vt 1.412533 0.215596
vt 0.691459 0.792285
vt 0.691459 0.916256
vt 0.815430 0.916256
vt 0.815430 0.792285
vt 0.613900 -0.190824
vt 0.737870 -0.190824
vt 1.164593 0.898817
vt 1.164593 0.774847
vt 1.040622 0.774847
vt 1.040622 0.898817
vn 0.578345 0.554729 0.598158
vn -0.303693 0.904592 0.299138
vn -0.299245 0.904498 -0.303869
vn 0.299209 0.904529 0.303810
vn 0.303666 0.904603 -0.299134
vn 0.578345 0.554729 0.598158
vn 0.299209 0.904529 0.303810
vn 0.551218 0.577155 -0.602537
vn 0.293512 0.904594 -0.309129
vn 0.309242 0.904541 0.293556
vn -0.293493 0.904583 0.309179
vn -0.293493 0.904583 0.309179
vn -0.309278 0.904510 -0.293614
vn -0.301511 0.904534 0.301511
vn -0.301547 0.904503 -0.301570
vn 0.301530 0.904544 -0.301461
vn 0.301465 0.904534 0.301557
vn 0.305133 0.904543 0.297818
vn -0.569706 0.577317 0.584928
vn -0.305169 0.904512 -0.297877
vn 0.297837 0.904554 -0.305083
vn -0.297819 0.904543 0.305133
vn -0.305169 0.904512 -0.297877
vn -0.560815 0.577409 0.593368
vn -0.560815 0.577409 0.593368
vn 0.577377 0.577377 -0.577297
vn 0.577377 0.577377 -0.577297
vn 0.301530 0.904544 -0.301461
vn -0.590409 0.570748 -0.570669
vn -0.590409 0.570748 -0.570669
vn -0.563942 0.599819 -0.567614
vn -0.581941 0.565610 0.584320
vn 0.585194 0.588418 -0.557953
vn 0.578345 0.554729 0.598158
vn -0.581941 0.565610 0.584320
vn -0.563942 0.599819 -0.567614
vn 0.585194 0.588418 -0.557953
vn 0.590328 0.591491 0.549228
vn -0.605241 0.563296 -0.562477
vn 0.551218 0.577155 -0.602537
vn 0.590328 0.591491 0.549228
vn -0.560815 0.577409 0.593368
vn -0.605241 0.563296 -0.562477
vn -0.577377 0.577271 -0.577403
vn -0.577403 0.577350 0.577297
vn 0.577350 0.577350 0.577350
vn -0.577377 0.577271 -0.577403
vn 0.577377 0.577377 -0.577297
vn 0.577350 0.577350 0.577350
vn -0.577403 0.577350 0.577297
vn 0.583620 0.583884 0.564329
vn 0.565297 0.577347 -0.589160
vn 0.565297 0.577347 -0.589160
vn 0.583620 0.583884 0.564329
vn -0.569706 0.577317 0.584928
vn -0.590409 0.570748 -0.570669
f 89/89/89 118/118/118 117/117/117
f 119/119/119 89/89/89 117/117/117
f 118/118/118 89/89/89 88/88/88
f 88/88/88 87/87/87 118/118/118
f 87/87/87 88/88/88 90/90/90
f 89/89/89 119/119/119 91/91/91
f 92/92/92 91/91/91 119/119/119
f 91/91/91 92/92/92 93/93/93
f 120/120/120 122/122/122 121/121/121
f 122/122/122 120/120/120 123/123/123
f 94/94/94 96/96/96 95/95/95
f 96/96/96 94/94/94 124/124/124
f 110/110/110 96/96/96 124/124/124
f 96/96/96 110/110/110 97/97/97
f 95/95/95 125/125/125 94/94/94
f 125/125/125 95/95/95 99/99/99
f 98/98/98 125/125/125 99/99/99
f 125/125/125 98/98/98 111/111/111
f 126/126/126 128/128/128 127/127/127
f 128/128/128 126/126/126 129/129/129
f 130/130/130 100/100/100 131/131/131
f 100/100/100 132/132/132 131/131/131
f 100/100/100 130/130/130 101/101/101
f 130/130/130 102/102/102 101/101/101
f 102/102/102 130/130/130 112/112/112
f 132/132/132 100/100/100 103/103/103
f 103/103/103 113/113/113 132/132/132
f 113/113/113 103/103/103 114/114/114
f 133/133/133 135/135/135 134/134/134
f 135/135/135 133/133/133 136/136/136
f 104/104/104 138/138/138 137/137/137
f 105/105/105 104/104/104 137/137/137
f 138/138/138 104/104/104 107/107/107
f 107/107/107 115/115/115 138/138/138
f 115/115/115 107/107/107 106/106/106
f 104/104/104 105/105/105 108/108/108
f 116/116/116 108/108/108 105/105/105
f 108/108/108 116/116/116 109/109/109
f 139/139/139 141/141/141 140/140/140
f 141/141/141 139/139/139 142/142/142
g surface_2
usemtl Metal_2
v 0.447608 0.030833 0.245533
v 0.359457 0.030833 0.245533
v 0.346429 -0.009548 0.232505
v 0.460636 -0.009548 0.232505
v 0.460636 -0.009548 0.346711
v 0.447608 0.030833 0.333683
v 0.359457 0.030833 0.333683
v 0.346429 -0.009548 0.346711
v 0.359457 0.030833 0.245533
v 0.346429 -0.009548 0.232505
v 0.447608 0.030833 -0.245533
v 0.460636 -0.009548 -0.232505
v 0.346429 -0.009548 -0.232505
v 0.359457 0.030833 -0.245533
v 0.447608 0.030833 -0.333683
v 0.460636 -0.009548 -0.346711
v 0.359457 0.030833 -0.333683
v 0.346429 -0.009548 -0.346711
v 0.346429 -0.009548 -0.232505
v 0.359457 0.030833 -0.245533
v -0.447608 0.030833 0.245533
v -0.460636 -0.009548 0.232505
v -0.346429 -0.009548 0.232505
v -0.359457 0.030833 0.245533
v -0.460636 -0.009548 0.346711
v -0.447608 0.030833 0.333683
v -0.359457 0.030833 0.333683
v -0.346429 -0.009548 0.346711
v -0.359457 0.030833 0.245533
v -0.346429 -0.009548 0.232505
v -0.447608 0.030833 -0.245533
v -0.359457 0.030833 -0.245533
v -0.346429 -0.009548 -0.232505
v -0.460636 -0.009548 -0.232505
v -0.447608 0.030833 -0.333683
v -0.460636 -0.009548 -0.346711
v -0.359457 0.030833 -0.333683
v -0.346429 -0.009548 -0.346711
v -0.346429 -0.009548 -0.232505
v -0.359457 0.030833 -0.245533
v 0.346429 -0.009548 0.232505
v 0.346429 -0.009548 0.346711
v 0.460636 -0.009548 0.346711
v 0.460636 -0.009548 0.232505
v -0.346429 -0.009548 0.232505
v -0.460636 -0.009548 0.232505
v -0.460636 -0.009548 0.346711
v -0.346429 -0.009548 0.346711
v -0.346429 -0.009548 -0.232505
v -0.346429 -0.009548 -0.346711
v -0.460636 -0.009548 -0.346711
v -0.460636 -0.009548 -0.232505
v 0.346429 -0.009548 -0.232505
v 0.460636 -0.009548 -0.232505
v 0.460636 -0.009548 -0.346711
v 0.346429 -0.009548 -0.346711
v -0.346429 0.030833 -0.232505
v -0.346429 0.030833 -0.346711
v -0.460636 0.030833 -0.346711
v -0.460636 0.030833 -0.232505
v -0.346429 0.030833 -0.232505
v 0.460636 0.030833 -0.232505
v 0.346429 0.030833 -0.232505
v 0.460636 0.030833 -0.346711
v 0.346429 0.030833 -0.346711
v 0.346429 0.030833 -0.232505
v -0.460636 0.030833 0.232505
v -0.346429 0.030833 0.232505
v -0.460636 0.030833 0.346711
v -0.346429 0.030833 0.346711
v -0.346429 0.030833 0.232505
v 0.460636 0.030833 0.232505
v 0.346429 0.030833 0.232505
v 0.460636 0.030833 0.346711
v 0.346429 0.030833 0.346711
v 0.346429 0.030833 0.232505
vt 0.717963 0.005507
vt 0.814134 -0.238490
vt 0.687978 -0.332873
vt 0.563230 -0.037862
vt 0.490054 0.318948
vt 0.703719 0.318118
vt 0.717743 0.630348
vt 0.563526 0.674869
vt 0.814134 0.874658
vt 0.688410 0.969004
vt 0.377703 0.630348
vt 0.223486 0.674869
vt 0.348370 0.969004
vt 0.474095 0.874658
vt 0.363680 0.318118
vt 0.150015 0.318948
vt 0.377924 0.005506
vt 0.223190 -0.037862
vt 0.347938 -0.332873
vt 0.474095 -0.238490
vt 0.037664 0.630348
vt -0.116553 0.674869
vt 0.008330 0.969004
vt 0.134056 0.874658
vt -0.190025 0.318948
vt 0.023640 0.318118
vt 0.037884 0.005507
vt -0.116849 -0.037862
vt 0.134055 -0.238490
vt 0.007899 -0.332873
vt 1.058003 0.005507
vt 1.154174 -0.238490
vt 1.028017 -0.332873
vt 0.903270 -0.037862
vt 1.043759 0.318118
vt 0.830094 0.318948
vt 1.057782 0.630348
vt 0.903565 0.674869
vt 1.028449 0.969004
vt 1.154174 0.874658
vt 0.901581 1.332873
vt 1.249490 1.332873
vt 1.249490 0.984964
vt 0.901581 0.984964
vt 0.157884 1.332873
vt 0.157884 0.984964
vt -0.190025 0.984964
vt -0.190025 1.332873
vt 0.173844 1.332873
vt 0.521753 1.332873
vt 0.521753 0.984964
vt 0.173844 0.984964
vt 0.537712 1.332873
vt 0.885621 1.332873
vt 0.885621 0.984964
vt 0.537712 0.984964
vt 1.132448 0.924849
vt 1.015274 0.643664
vt 0.973819 0.318847
vt 1.015280 -0.006734
vt 1.132326 -0.288765
vt 0.335195 0.643664
vt 0.452369 0.924848
vt 0.293740 0.318847
vt 0.335201 -0.006735
vt 0.452247 -0.288765
vt -0.004844 0.643664
vt 0.112330 0.924848
vt -0.046300 0.318847
vt -0.004838 -0.006735
vt 0.112208 -0.288765
vt 0.675241 -0.006734
vt 0.792287 -0.288765
vt 0.633779 0.318847
vt 0.675235 0.643664
vt 0.792409 0.924848
vn 0.297837 0.904554 -0.305083
vn -0.305169 0.904512 -0.297877
vn -0.577324 -0.577324 -0.577403
vn 0.577324 -0.577430 -0.577297
vn 0.577350 -0.577403 0.577297
vn 0.305133 0.904543 0.297818
vn -0.297819 0.904543 0.305133
vn -0.577403 -0.577403 0.577245
vn -0.305169 0.904512 -0.297877
vn -0.577324 -0.577324 -0.577403
vn 0.309242 0.904541 0.293556
vn 0.577350 -0.577403 0.577297
vn -0.577403 -0.577403 0.577245
vn -0.293493 0.904583 0.309179
vn 0.293512 0.904594 -0.309129
vn 0.577324 -0.577430 -0.577297
vn -0.309278 0.904510 -0.293614
vn -0.577324 -0.577324 -0.577403
vn -0.577403 -0.577403 0.577245
vn -0.293493 0.904583 0.309179
vn -0.301547 0.904503 -0.301570
vn -0.577324 -0.577324 -0.577403
vn 0.577324 -0.577430 -0.577297
vn 0.301530 0.904544 -0.301461
vn -0.577403 -0.577403 0.577245
vn -0.301511 0.904534 0.301511
vn 0.301465 0.904534 0.301557
vn 0.577350 -0.577403 0.577297
vn 0.301530 0.904544 -0.301461
vn 0.577324 -0.577430 -0.577297
vn -0.303693 0.904592 0.299138
vn 0.299209 0.904529 0.303810
vn 0.577350 -0.577403 0.577297
vn -0.577403 -0.577403 0.577245
vn -0.299245 0.904498 -0.303869
vn -0.577324 -0.577324 -0.577403
vn 0.303666 0.904603 -0.299134
vn 0.577324 -0.577430 -0.577297
vn 0.577350 -0.577403 0.577297
vn 0.299209 0.904529 0.303810
vn -0.577324 -0.577324 -0.577403
vn -0.577403 -0.577403 0.577245
vn 0.577350 -0.577403 0.577297
vn 0.577324 -0.577430 -0.577297
vn 0.577324 -0.577430 -0.577297
vn -0.577324 -0.577324 -0.577403
vn -0.577403 -0.577403 0.577245
vn 0.577350 -0.577403 0.577297
vn 0.577350 -0.577403 0.577297
vn 0.577324 -0.577430 -0.577297
vn -0.577324 -0.577324 -0.577403
vn -0.577403 -0.577403 0.577245
vn -0.577403 -0.577403 0.577245
vn 0.577350 -0.577403 0.577297
vn 0.577324 -0.577430 -0.577297
vn -0.577324 -0.577324 -0.577403
vn 0.577350 0.577350 0.577350
vn 0.577377 0.577377 -0.577297
vn -0.577377 0.577271 -0.577403
vn -0.577403 0.577350 0.577297
vn 0.577350 0.577350 0.577350
vn 0.577350 0.577350 0.577350
vn -0.577403 0.577350 0.577297
vn 0.577377 0.577377 -0.577297
vn -0.577377 0.577271 -0.577403
vn -0.577403 0.577350 0.577297
vn -0.577377 0.577271 -0.577403
vn 0.577377 0.577377 -0.577297
vn -0.577403 0.577350 0.577297
vn 0.577350 0.577350 0.577350
vn 0.577377 0.577377 -0.577297
vn 0.577377 0.577377 -0.577297
vn -0.577377 0.577271 -0.577403
vn 0.577350 0.577350 0.577350
vn -0.577403 0.577350 0.577297
vn -0.577377 0.577271 -0.577403
f 199/199/199 179/179/179 182/182/182
f 179/179/179 199/199/199 200/200/200
f 181/181/181 200/200/200 199/199/199
f 200/200/200 181/181/181 180/180/180
f 200/200/200 177/177/177 179/179/179
f 178/178/178 200/200/200 180/180/180
f 177/177/177 200/200/200 201/201/201
f 200/200/200 178/178/178 201/201/201
f 201/201/201 173/173/173 177/177/177
f 176/176/176 201/201/201 178/178/178
f 173/173/173 201/201/201 202/202/202
f 201/201/201 176/176/176 202/202/202
f 202/202/202 174/174/174 173/173/173
f 175/175/175 202/202/202 176/176/176
f 174/174/174 202/202/202 203/203/203
f 202/202/202 175/175/175 203/203/203
f 204/204/204 157/157/157 153/153/153
f 205/205/205 153/153/153 156/156/156
f 153/153/153 205/205/205 204/204/204
f 155/155/155 204/204/204 205/205/205
f 204/204/204 155/155/155 154/154/154
f 157/157/157 204/204/204 206/206/206
f 154/154/154 206/206/206 204/204/204
f 206/206/206 159/159/159 157/157/157
f 206/206/206 154/154/154 158/158/158
f 159/159/159 206/206/206 207/207/207
f 158/158/158 207/207/207 206/206/206
f 207/207/207 162/162/162 159/159/159
f 207/207/207 158/158/158 160/160/160
f 162/162/162 207/207/207 208/208/208
f 161/161/161 207/207/207 160/160/160
f 207/207/207 161/161/161 208/208/208
f 209/209/209 168/168/168 163/163/163
f 210/210/210 163/163/163 166/166/166
f 163/163/163 210/210/210 209/209/209
f 165/165/165 209/209/209 210/210/210
f 209/209/209 165/165/165 164/164/164
f 167/167/167 209/209/209 164/164/164
f 168/168/168 209/209/209 211/211/211
f 209/209/209 167/167/167 211/211/211
f 211/211/211 169/169/169 168/168/168
f 167/167/167 212/212/212 211/211/211
f 169/169/169 211/211/211 212/212/212
f 212/212/212 171/171/171 169/169/169
f 212/212/212 167/167/167 170/170/170
f 171/171/171 212/212/212 213/213/213
f 170/170/170 213/213/213 212/212/212
f 213/213/213 170/170/170 172/172/172
f 214/214/214 145/145/145 215/215/215
f 144/144/144 214/214/214 215/215/215
f 145/145/145 214/214/214 146/146/146
f 214/214/214 144/144/144 143/143/143
f 214/214/214 147/147/147 146/146/146
f 143/143/143 216/216/216 214/214/214
f 147/147/147 214/214/214 216/216/216
f 216/216/216 143/143/143 148/148/148
f 217/217/217 147/147/147 216/216/216
f 148/148/148 217/217/217 216/216/216
f 147/147/147 217/217/217 150/150/150
f 217/217/217 148/148/148 149/149/149
f 218/218/218 150/150/150 217/217/217
f 149/149/149 218/218/218 217/217/217
f 150/150/150 218/218/218 152/152/152
f 218/218/218 149/149/149 151/151/151
f 183/183/183 185/185/185 184/184/184
f 185/185/185 183/183/183 186/186/186
f 187/187/187 189/189/189 188/188/188
f 189/189/189 187/187/187 190/190/190
f 191/191/191 193/193/193 192/192/192
f 193/193/193 191/191/191 194/194/194
f 195/195/195 197/197/197 196/196/196
f 197/197/197 195/195/195 198/198/198
