# Densetsu Tool Suite OBJ Export
o crop_pumpkin_combined
mtllib crop_pumpkin_combined.mtl
g surface_0
usemtl leafsFall
v 0.199499 0.149499 -0.000003
v 0.220635 0.149499 0.069786
v 0.132994 0.216000 -0.000003
v -0.220635 0.149499 -0.069793
v -0.199506 0.149499 -0.000003
v -0.199506 0.016497 -0.000003
v -0.220635 0.016497 -0.069793
v -0.170761 0.149499 -0.156182
v -0.170761 0.016497 -0.156182
v -0.099751 0.016497 -0.172775
v -0.099751 0.149499 -0.172775
v -0.220635 0.149499 -0.069793
v -0.133001 0.216000 -0.000003
v -0.199506 0.149499 -0.000003
v 0.066495 0.216000 0.115177
v 0.170754 0.149499 0.156175
v 0.099744 0.149499 0.172768
v -0.049877 0.149499 0.225972
v -0.099751 0.149499 0.172768
v -0.066502 0.216000 0.115177
v -0.066502 0.216000 -0.115184
v -0.170761 0.149499 -0.156182
v -0.099751 0.149499 -0.172775
v 0.099744 0.016497 -0.172775
v 0.049871 0.016497 -0.225972
v 0.066495 -0.050000 -0.115184
v -0.170761 0.149499 0.156175
v -0.220635 0.149499 0.069786
v -0.133001 0.216000 -0.000003
v -0.066502 0.216000 0.115177
v -0.049877 0.016497 -0.225972
v -0.099751 0.016497 -0.172775
v -0.066502 -0.050000 -0.115184
v -0.049877 0.149499 -0.225972
v -0.099751 0.149499 -0.172775
v -0.099751 0.016497 -0.172775
v -0.049877 0.016497 -0.225972
v -0.099751 0.149499 0.172768
v -0.049877 0.149499 0.225972
v -0.049877 0.016497 0.225972
v -0.099751 0.016497 0.172768
v 0.049871 0.149499 0.225972
v 0.049871 0.016497 0.225972
v -0.049877 0.016497 0.225972
v -0.049877 0.149499 0.225972
v 0.220635 0.016497 0.069786
v 0.170754 0.016497 0.156175
v 0.170754 0.149499 0.156175
v 0.220635 0.149499 0.069786
v 0.170754 0.149499 0.156175
v 0.170754 0.016497 0.156175
v 0.099744 0.016497 0.172768
v 0.099744 0.149499 0.172768
v -0.199506 0.149499 -0.000003
v -0.220635 0.149499 0.069786
v -0.220635 0.016497 0.069786
v -0.199506 0.016497 -0.000003
v 0.220635 0.016497 0.069786
v 0.199499 0.016497 -0.000003
v 0.132994 -0.050000 -0.000003
v 0.099744 0.016497 0.172768
v 0.066495 -0.050000 0.115177
v 0.049871 0.016497 0.225972
v -0.049877 0.149499 0.225972
v -0.066502 0.216000 0.115177
v 0.066495 0.216000 0.115177
v 0.049871 0.149499 0.225972
v -0.170761 0.016497 -0.156182
v -0.220635 0.016497 -0.069793
v -0.133001 -0.050000 -0.000003
v -0.066502 -0.050000 -0.115184
v -0.049877 0.149499 -0.225972
v -0.049877 0.016497 -0.225972
v 0.049871 0.016497 -0.225972
v 0.049871 0.149499 -0.225972
v -0.099751 0.016497 -0.172775
v -0.170761 0.016497 -0.156182
v -0.066502 -0.050000 -0.115184
v 0.099744 0.016497 0.172768
v 0.049871 0.016497 0.225972
v 0.049871 0.149499 0.225972
v 0.099744 0.149499 0.172768
v -0.133001 0.216000 -0.000003
v -0.220635 0.149499 -0.069793
v -0.170761 0.149499 -0.156182
v -0.066502 0.216000 -0.115184
v -0.049877 0.016497 0.225972
v -0.066502 -0.050000 0.115177
v -0.099751 0.016497 0.172768
v 0.099744 0.016497 0.172768
v 0.170754 0.016497 0.156175
v 0.066495 -0.050000 0.115177
v -0.049877 0.149499 -0.225972
v -0.066502 0.216000 -0.115184
v -0.099751 0.149499 -0.172775
v 0.066495 0.216000 -0.115184
v -0.066502 0.216000 -0.115184
v -0.049877 0.149499 -0.225972
v 0.049871 0.149499 -0.225972
v 0.170754 0.149499 0.156175
v 0.066495 0.216000 0.115177
v 0.132994 0.216000 -0.000003
v 0.220635 0.149499 0.069786
v -0.199506 0.149499 -0.000003
v -0.133001 0.216000 -0.000003
v -0.220635 0.149499 0.069786
v 0.066495 -0.050000 0.115177
v -0.066502 -0.050000 0.115177
v -0.049877 0.016497 0.225972
v 0.049871 0.016497 0.225972
v 0.099744 0.149499 -0.172775
v 0.066495 0.216000 -0.115184
v 0.049871 0.149499 -0.225972
v 0.170754 0.016497 -0.156182
v 0.099744 0.016497 -0.172775
v 0.066495 -0.050000 -0.115184
v -0.170761 0.149499 -0.156182
v -0.220635 0.149499 -0.069793
v -0.220635 0.016497 -0.069793
v -0.170761 0.016497 -0.156182
v -0.066502 0.216000 0.115177
v -0.133001 0.216000 -0.000003
v -0.074589 0.216000 -0.000003
v -0.066502 0.216000 -0.115184
v -0.037299 0.216000 0.064593
v -0.037299 0.216000 -0.064600
v 0.066495 0.216000 0.115177
v 0.066495 0.216000 -0.115184
v 0.037293 0.216000 0.064593
v 0.037293 0.216000 -0.064600
v 0.074582 0.216000 -0.000003
v 0.132994 0.216000 -0.000003
v -0.049877 0.016497 -0.225972
v -0.066502 -0.050000 -0.115184
v 0.066495 -0.050000 -0.115184
v 0.049871 0.016497 -0.225972
v 0.220635 0.149499 -0.069793
v 0.199499 0.149499 -0.000003
v 0.132994 0.216000 -0.000003
v -0.133001 -0.050000 -0.000003
v -0.199506 0.016497 -0.000003
v -0.220635 0.016497 0.069786
v 0.220635 0.016497 -0.069793
v 0.199499 0.016497 -0.000003
v 0.199499 0.149499 -0.000003
v 0.220635 0.149499 -0.069793
v 0.132994 0.216000 -0.000003
v 0.066495 0.216000 -0.115184
v 0.170754 0.149499 -0.156182
v 0.220635 0.149499 -0.069793
v 0.049871 0.016497 -0.225972
v 0.099744 0.016497 -0.172775
v 0.099744 0.149499 -0.172775
v 0.049871 0.149499 -0.225972
v -0.066502 -0.050000 -0.115184
v -0.133001 -0.050000 -0.000003
v -0.066502 -0.050000 0.115177
v 0.066495 -0.050000 -0.115184
v 0.066495 -0.050000 0.115177
v 0.132994 -0.050000 -0.000003
v -0.099751 0.149499 0.172768
v -0.099751 0.016497 0.172768
v -0.170761 0.016497 0.156175
v -0.170761 0.149499 0.156175
v 0.099744 0.149499 -0.172775
v 0.099744 0.016497 -0.172775
v 0.170754 0.016497 -0.156182
v 0.170754 0.149499 -0.156182
v -0.066502 0.216000 0.115177
v -0.099751 0.149499 0.172768
v -0.170761 0.149499 0.156175
v 0.132994 -0.050000 -0.000003
v 0.066495 -0.050000 0.115177
v 0.170754 0.016497 0.156175
v 0.220635 0.016497 0.069786
v 0.170754 0.016497 -0.156182
v 0.066495 -0.050000 -0.115184
v 0.132994 -0.050000 -0.000003
v 0.220635 0.016497 -0.069793
v -0.220635 0.016497 -0.069793
v -0.199506 0.016497 -0.000003
v -0.133001 -0.050000 -0.000003
v 0.099744 0.149499 0.172768
v 0.049871 0.149499 0.225972
v 0.066495 0.216000 0.115177
v 0.170754 0.016497 -0.156182
v 0.220635 0.016497 -0.069793
v 0.220635 0.149499 -0.069793
v 0.170754 0.149499 -0.156182
v -0.170761 0.016497 0.156175
v -0.099751 0.016497 0.172768
v -0.066502 -0.050000 0.115177
v 0.199499 0.016497 -0.000003
v 0.220635 0.016497 0.069786
v 0.220635 0.149499 0.069786
v 0.199499 0.149499 -0.000003
v 0.066495 0.216000 -0.115184
v 0.099744 0.149499 -0.172775
v 0.170754 0.149499 -0.156182
v -0.220635 0.149499 0.069786
v -0.170761 0.149499 0.156175
v -0.170761 0.016497 0.156175
v -0.220635 0.016497 0.069786
v 0.220635 0.016497 -0.069793
v 0.132994 -0.050000 -0.000003
v 0.199499 0.016497 -0.000003
v -0.133001 -0.050000 -0.000003
v -0.220635 0.016497 0.069786
v -0.170761 0.016497 0.156175
v -0.066502 -0.050000 0.115177
vt -2.276419 0.476830
vt -5.147532 0.476830
vt -1.517693 4.100686
vt -5.147532 7.854512
vt -2.276419 7.854512
vt -2.276419 2.618188
vt -5.147532 2.618188
vt 5.147372 7.854512
vt 5.147372 2.618188
vt 2.276260 2.618188
vt 2.276260 7.854512
vt -5.147532 0.476830
vt -1.517693 4.100686
vt -2.276419 0.476830
vt 1.517533 4.100686
vt 5.147372 0.476830
vt 2.276260 0.476830
vt 5.147372 0.476830
vt 2.276260 0.476830
vt 1.517533 4.100686
vt 1.517533 4.100686
vt 5.147372 0.476830
vt 2.276260 0.476830
vt 2.276260 7.089289
vt 5.147372 7.089289
vt 1.517533 3.465190
vt 1.963533 -3.585617
vt -1.963693 -3.585617
vt -2.618230 1.501508
vt 2.618070 1.501508
vt -5.147532 7.089289
vt -2.276419 7.089289
vt -1.517693 3.465190
vt -5.147532 7.854512
vt -2.276419 7.854512
vt -2.276419 2.618188
vt -5.147532 2.618188
vt 2.276260 7.854512
vt 5.147372 7.854512
vt 5.147372 2.618188
vt 2.276260 2.618188
vt 1.963533 7.854512
vt 1.963533 2.618188
vt -1.963693 2.618188
vt -1.963693 7.854512
vt 1.963533 2.618188
vt -1.963693 2.618188
vt -1.963693 7.854512
vt 1.963533 7.854512
vt 5.147372 7.854512
vt 5.147372 2.618188
vt 2.276260 2.618188
vt 2.276260 7.854512
vt 2.276260 7.854512
vt 5.147372 7.854512
vt 5.147372 2.618188
vt 2.276260 2.618188
vt -5.147532 7.089289
vt -2.276419 7.089289
vt -1.517693 3.465190
vt -2.276419 7.089289
vt -1.517693 3.465190
vt -5.147532 7.089289
vt -1.963693 -3.585617
vt -2.618230 1.501508
vt 2.618070 1.501508
vt 1.963533 -3.585617
vt -1.963693 8.975329
vt 1.963533 8.975329
vt 2.618070 3.888205
vt -2.618230 3.888205
vt 1.963533 7.854512
vt 1.963533 2.618188
vt -1.963693 2.618188
vt -1.963693 7.854512
vt 2.276260 7.089289
vt 5.147372 7.089289
vt 1.517533 3.465190
vt -2.276419 2.618188
vt -5.147532 2.618188
vt -5.147532 7.854512
vt -2.276419 7.854512
vt 2.618070 1.501508
vt 1.963533 -3.585617
vt -1.963693 -3.585617
vt -2.618230 1.501508
vt 5.147372 7.089289
vt 1.517533 3.465190
vt 2.276260 7.089289
vt 2.276260 7.089289
vt 5.147372 7.089289
vt 1.517533 3.465190
vt -5.147532 0.476830
vt -1.517693 4.100686
vt -2.276419 0.476830
vt -2.618230 1.501508
vt 2.618070 1.501508
vt 1.963533 -3.585617
vt -1.963693 -3.585617
vt -1.963693 -3.585617
vt -2.618230 1.501508
vt 2.618070 1.501508
vt 1.963533 -3.585617
vt 2.276260 0.476830
vt 1.517533 4.100686
vt 5.147372 0.476830
vt 2.618070 3.888205
vt -2.618230 3.888205
vt -1.963693 8.975329
vt 1.963533 8.975329
vt 2.276260 0.476830
vt 1.517533 4.100686
vt 5.147372 0.476830
vt -5.147532 7.089289
vt -2.276419 7.089289
vt -1.517693 3.465190
vt -1.963693 7.854512
vt 1.963533 7.854512
vt 1.963533 2.618188
vt -1.963693 2.618188
vt -2.618230 -4.534600
vt -5.236220 0.000026
vt -2.936550 0.000026
vt -2.618230 4.534895
vt -1.468315 -2.542928
vt -1.468315 2.543224
vt 2.618070 -4.534600
vt 2.618070 4.534895
vt 1.468155 -2.542928
vt 1.468155 2.543224
vt 2.936390 0.000026
vt 5.236220 0.000026
vt 1.963533 8.975329
vt 2.618070 3.888205
vt -2.618230 3.888205
vt -1.963693 8.975329
vt 5.147372 0.476830
vt 2.276260 0.476830
vt 1.517533 4.100686
vt 1.517533 3.465190
vt 2.276260 7.089289
vt 5.147372 7.089289
vt 5.147372 2.618188
vt 2.276260 2.618188
vt 2.276260 7.854512
vt 5.147372 7.854512
vt -2.618230 1.501508
vt 2.618070 1.501508
vt 1.963533 -3.585617
vt -1.963693 -3.585617
vt 5.147372 2.618188
vt 2.276260 2.618188
vt 2.276260 7.854512
vt 5.147372 7.854512
vt 2.618070 4.534895
vt 5.236220 0.000026
vt 2.618070 -4.534600
vt -2.618230 4.534895
vt -2.618230 -4.534600
vt -5.236220 0.000026
vt -2.276419 7.854512
vt -2.276419 2.618188
vt -5.147532 2.618188
vt -5.147532 7.854512
vt -2.276419 7.854512
vt -2.276419 2.618188
vt -5.147532 2.618188
vt -5.147532 7.854512
vt -1.517693 4.100686
vt -2.276419 0.476830
vt -5.147532 0.476830
vt 2.618070 3.888205
vt -2.618230 3.888205
vt -1.963693 8.975329
vt 1.963533 8.975329
vt 1.963533 8.975329
vt 2.618070 3.888205
vt -2.618230 3.888205
vt -1.963693 8.975329
vt -5.147532 7.089289
vt -2.276419 7.089289
vt -1.517693 3.465190
vt -2.276419 0.476830
vt -5.147532 0.476830
vt -1.517693 4.100686
vt 1.963533 2.618188
vt -1.963693 2.618188
vt -1.963693 7.854512
vt 1.963533 7.854512
vt -5.147532 7.089289
vt -2.276419 7.089289
vt -1.517693 3.465190
vt -2.276419 2.618188
vt -5.147532 2.618188
vt -5.147532 7.854512
vt -2.276419 7.854512
vt -1.517693 4.100686
vt -2.276419 0.476830
vt -5.147532 0.476830
vt -1.963693 7.854512
vt 1.963533 7.854512
vt 1.963533 2.618188
vt -1.963693 2.618188
vt 5.147372 7.089289
vt 1.517533 3.465190
vt 2.276260 7.089289
vt -2.618230 3.888205
vt -1.963693 8.975329
vt 1.963533 8.975329
vt 2.618070 3.888205
vn 0.691493 0.691396 -0.209304
vn 0.691493 0.691396 -0.209304
vn 0.691493 0.691396 -0.209304
vn -0.957076 -0.000019 0.289838
vn -0.957076 -0.000019 0.289838
vn -0.957076 -0.000019 0.289838
vn -0.957076 -0.000019 0.289838
vn -0.227562 0.000000 -0.973764
vn -0.227562 0.000000 -0.973764
vn -0.227562 0.000000 -0.973764
vn -0.227562 0.000000 -0.973764
vn -0.691388 0.691437 0.209518
vn -0.691388 0.691437 0.209518
vn -0.691388 0.691437 0.209518
vn 0.164338 0.691351 0.703581
vn 0.164338 0.691351 0.703581
vn 0.164338 0.691351 0.703581
vn -0.527018 0.691392 0.494195
vn -0.527018 0.691392 0.494195
vn -0.527018 0.691392 0.494195
vn -0.164519 0.691534 -0.703360
vn -0.164519 0.691534 -0.703360
vn -0.164519 0.691534 -0.703360
vn 0.527035 -0.691460 -0.494082
vn 0.527035 -0.691460 -0.494082
vn 0.527035 -0.691460 -0.494082
vn -0.445680 0.857380 0.257426
vn -0.445680 0.857380 0.257426
vn -0.445680 0.857380 0.257426
vn -0.445680 0.857380 0.257426
vn -0.526989 -0.691416 -0.494193
vn -0.526989 -0.691416 -0.494193
vn -0.526989 -0.691416 -0.494193
vn -0.729568 0.000000 -0.683908
vn -0.729568 0.000000 -0.683908
vn -0.729568 0.000000 -0.683908
vn -0.729568 0.000000 -0.683908
vn -0.729516 -0.000022 0.683963
vn -0.729516 -0.000022 0.683963
vn -0.729516 -0.000022 0.683963
vn -0.729516 -0.000022 0.683963
vn -0.000076 -0.000015 1.000000
vn -0.000076 -0.000015 1.000000
vn -0.000076 -0.000015 1.000000
vn -0.000076 -0.000015 1.000000
vn 0.866027 -0.000021 0.499997
vn 0.866027 -0.000021 0.499997
vn 0.866027 -0.000021 0.499997
vn 0.866027 -0.000021 0.499997
vn 0.227458 -0.000018 0.973788
vn 0.227458 -0.000018 0.973788
vn 0.227458 -0.000018 0.973788
vn 0.227458 -0.000018 0.973788
vn -0.957077 0.000000 -0.289833
vn -0.957077 0.000000 -0.289833
vn -0.957077 0.000000 -0.289833
vn -0.957077 0.000000 -0.289833
vn 0.691461 -0.691412 -0.209358
vn 0.691461 -0.691412 -0.209358
vn 0.691461 -0.691412 -0.209358
vn 0.527018 -0.691392 0.494195
vn 0.527018 -0.691392 0.494195
vn 0.527018 -0.691392 0.494195
vn -0.000021 0.857349 0.514736
vn -0.000021 0.857349 0.514736
vn -0.000021 0.857349 0.514736
vn -0.000021 0.857349 0.514736
vn -0.445639 -0.857419 -0.257369
vn -0.445639 -0.857419 -0.257369
vn -0.445639 -0.857419 -0.257369
vn -0.445639 -0.857419 -0.257369
vn 0.000000 -0.000031 -1.000000
vn 0.000000 -0.000031 -1.000000
vn 0.000000 -0.000031 -1.000000
vn 0.000000 -0.000031 -1.000000
vn -0.164416 -0.691402 -0.703513
vn -0.164416 -0.691402 -0.703513
vn -0.164416 -0.691402 -0.703513
vn 0.729475 -0.000022 0.684008
vn 0.729475 -0.000022 0.684008
vn 0.729475 -0.000022 0.684008
vn 0.729475 -0.000022 0.684008
vn -0.445726 0.857404 -0.257269
vn -0.445726 0.857404 -0.257269
vn -0.445726 0.857404 -0.257269
vn -0.445726 0.857404 -0.257269
vn -0.527012 -0.691437 0.494138
vn -0.527012 -0.691437 0.494138
vn -0.527012 -0.691437 0.494138
vn 0.164390 -0.691369 0.703551
vn 0.164390 -0.691369 0.703551
vn 0.164390 -0.691369 0.703551
vn -0.527081 0.691503 -0.493972
vn -0.527081 0.691503 -0.493972
vn -0.527081 0.691503 -0.493972
vn -0.000042 0.857432 -0.514597
vn -0.000042 0.857432 -0.514597
vn -0.000042 0.857432 -0.514597
vn -0.000042 0.857432 -0.514597
vn 0.445723 0.857373 0.257376
vn 0.445723 0.857373 0.257376
vn 0.445723 0.857373 0.257376
vn 0.445723 0.857373 0.257376
vn -0.691445 0.691445 -0.209304
vn -0.691445 0.691445 -0.209304
vn -0.691445 0.691445 -0.209304
vn -0.000021 -0.857378 0.514687
vn -0.000021 -0.857378 0.514687
vn -0.000021 -0.857378 0.514687
vn -0.000021 -0.857378 0.514687
vn 0.527092 0.691413 -0.494087
vn 0.527092 0.691413 -0.494087
vn 0.527092 0.691413 -0.494087
vn 0.164416 -0.691402 -0.703513
vn 0.164416 -0.691402 -0.703513
vn 0.164416 -0.691402 -0.703513
vn -0.866032 0.000000 -0.499988
vn -0.866032 0.000000 -0.499988
vn -0.866032 0.000000 -0.499988
vn -0.866032 0.000000 -0.499988
vn -0.000015 1.000000 0.000046
vn -0.000015 1.000000 0.000046
vn -0.000015 1.000000 0.000046
vn -0.000015 1.000000 0.000046
vn -0.000015 1.000000 0.000046
vn -0.000015 1.000000 0.000046
vn -0.000015 1.000000 0.000046
vn -0.000015 1.000000 0.000046
vn -0.000015 1.000000 0.000046
vn -0.000015 1.000000 0.000046
vn -0.000015 1.000000 0.000046
vn -0.000015 1.000000 0.000046
vn 0.000000 -0.857384 -0.514677
vn 0.000000 -0.857384 -0.514677
vn 0.000000 -0.857384 -0.514677
vn 0.000000 -0.857384 -0.514677
vn 0.691469 0.691372 0.209464
vn 0.691469 0.691372 0.209464
vn 0.691469 0.691372 0.209464
vn -0.691461 -0.691412 -0.209358
vn -0.691461 -0.691412 -0.209358
vn -0.691461 -0.691412 -0.209358
vn 0.957062 -0.000019 0.289883
vn 0.957062 -0.000019 0.289883
vn 0.957062 -0.000019 0.289883
vn 0.957062 -0.000019 0.289883
vn 0.445726 0.857404 -0.257269
vn 0.445726 0.857404 -0.257269
vn 0.445726 0.857404 -0.257269
vn 0.445726 0.857404 -0.257269
vn 0.729631 0.000043 -0.683841
vn 0.729631 0.000043 -0.683841
vn 0.729631 0.000043 -0.683841
vn 0.729631 0.000043 -0.683841
vn -0.000031 -1.000000 -0.000137
vn -0.000031 -1.000000 -0.000137
vn -0.000031 -1.000000 -0.000137
vn -0.000031 -1.000000 -0.000137
vn -0.000031 -1.000000 -0.000137
vn -0.000031 -1.000000 -0.000137
vn -0.227501 -0.000018 0.973778
vn -0.227501 -0.000018 0.973778
vn -0.227501 -0.000018 0.973778
vn -0.227501 -0.000018 0.973778
vn 0.227613 0.000037 -0.973752
vn 0.227613 0.000037 -0.973752
vn 0.227613 0.000037 -0.973752
vn 0.227613 0.000037 -0.973752
vn -0.164390 0.691369 0.703551
vn -0.164390 0.691369 0.703551
vn -0.164390 0.691369 0.703551
vn 0.445667 -0.857404 0.257371
vn 0.445667 -0.857404 0.257371
vn 0.445667 -0.857404 0.257371
vn 0.445667 -0.857404 0.257371
vn 0.445708 -0.857365 -0.257429
vn 0.445708 -0.857365 -0.257429
vn 0.445708 -0.857365 -0.257429
vn 0.445708 -0.857365 -0.257429
vn -0.691404 -0.691453 0.209411
vn -0.691404 -0.691453 0.209411
vn -0.691404 -0.691453 0.209411
vn 0.527023 0.691347 0.494253
vn 0.527023 0.691347 0.494253
vn 0.527023 0.691347 0.494253
vn 0.866079 0.000042 -0.499908
vn 0.866079 0.000042 -0.499908
vn 0.866079 0.000042 -0.499908
vn 0.866079 0.000042 -0.499908
vn -0.164390 -0.691417 0.703504
vn -0.164390 -0.691417 0.703504
vn -0.164390 -0.691417 0.703504
vn 0.957102 0.000038 -0.289752
vn 0.957102 0.000038 -0.289752
vn 0.957102 0.000038 -0.289752
vn 0.957102 0.000038 -0.289752
vn 0.164519 0.691438 -0.703454
vn 0.164519 0.691438 -0.703454
vn 0.164519 0.691438 -0.703454
vn -0.866055 -0.000021 0.499948
vn -0.866055 -0.000021 0.499948
vn -0.866055 -0.000021 0.499948
vn -0.866055 -0.000021 0.499948
vn 0.691421 -0.691420 0.209465
vn 0.691421 -0.691420 0.209465
vn 0.691421 -0.691420 0.209465
vn -0.445698 -0.857419 0.257266
vn -0.445698 -0.857419 0.257266
vn -0.445698 -0.857419 0.257266
vn -0.445698 -0.857419 0.257266
f 1/1/1 3/3/3 2/2/2
f 4/4/4 6/6/6 5/5/5
f 6/6/6 4/4/4 7/7/7
f 8/8/8 10/10/10 9/9/9
f 10/10/10 8/8/8 11/11/11
f 12/12/12 14/14/14 13/13/13
f 15/15/15 17/17/17 16/16/16
f 18/18/18 20/20/20 19/19/19
f 21/21/21 23/23/23 22/22/22
f 24/24/24 26/26/26 25/25/25
f 27/27/27 29/29/29 28/28/28
f 29/29/29 27/27/27 30/30/30
f 31/31/31 33/33/33 32/32/32
f 34/34/34 36/36/36 35/35/35
f 36/36/36 34/34/34 37/37/37
f 38/38/38 40/40/40 39/39/39
f 40/40/40 38/38/38 41/41/41
f 42/42/42 44/44/44 43/43/43
f 44/44/44 42/42/42 45/45/45
f 46/46/46 48/48/48 47/47/47
f 48/48/48 46/46/46 49/49/49
f 50/50/50 52/52/52 51/51/51
f 52/52/52 50/50/50 53/53/53
f 54/54/54 56/56/56 55/55/55
f 56/56/56 54/54/54 57/57/57
f 58/58/58 60/60/60 59/59/59
f 61/61/61 63/63/63 62/62/62
f 64/64/64 66/66/66 65/65/65
f 66/66/66 64/64/64 67/67/67
f 68/68/68 70/70/70 69/69/69
f 70/70/70 68/68/68 71/71/71
f 72/72/72 74/74/74 73/73/73
f 74/74/74 72/72/72 75/75/75
f 76/76/76 78/78/78 77/77/77
f 79/79/79 81/81/81 80/80/80
f 81/81/81 79/79/79 82/82/82
f 83/83/83 85/85/85 84/84/84
f 85/85/85 83/83/83 86/86/86
f 87/87/87 89/89/89 88/88/88
f 90/90/90 92/92/92 91/91/91
f 93/93/93 95/95/95 94/94/94
f 96/96/96 98/98/98 97/97/97
f 98/98/98 96/96/96 99/99/99
f 100/100/100 102/102/102 101/101/101
f 102/102/102 100/100/100 103/103/103
f 104/104/104 106/106/106 105/105/105
f 107/107/107 109/109/109 108/108/108
f 109/109/109 107/107/107 110/110/110
f 111/111/111 113/113/113 112/112/112
f 114/114/114 116/116/116 115/115/115
f 117/117/117 119/119/119 118/118/118
f 119/119/119 117/117/117 120/120/120
f 121/121/121 123/123/123 122/122/122
f 123/123/123 124/124/124 122/122/122
f 123/123/123 121/121/121 125/125/125
f 124/124/124 123/123/123 126/126/126
f 125/125/125 121/121/121 127/127/127
f 124/124/124 126/126/126 128/128/128
f 125/125/125 127/127/127 129/129/129
f 128/128/128 126/126/126 130/130/130
f 129/129/129 127/127/127 131/131/131
f 128/128/128 130/130/130 131/131/131
f 131/131/131 127/127/127 132/132/132
f 128/128/128 131/131/131 132/132/132
f 133/133/133 135/135/135 134/134/134
f 135/135/135 133/133/133 136/136/136
f 137/137/137 139/139/139 138/138/138
f 140/140/140 142/142/142 141/141/141
f 143/143/143 145/145/145 144/144/144
f 145/145/145 143/143/143 146/146/146
f 147/147/147 149/149/149 148/148/148
f 149/149/149 147/147/147 150/150/150
f 151/151/151 153/153/153 152/152/152
f 153/153/153 151/151/151 154/154/154
f 155/155/155 157/157/157 156/156/156
f 157/157/157 155/155/155 158/158/158
f 157/157/157 158/158/158 159/159/159
f 159/159/159 158/158/158 160/160/160
f 161/161/161 163/163/163 162/162/162
f 163/163/163 161/161/161 164/164/164
f 165/165/165 167/167/167 166/166/166
f 167/167/167 165/165/165 168/168/168
f 169/169/169 171/171/171 170/170/170
f 172/172/172 174/174/174 173/173/173
f 174/174/174 172/172/172 175/175/175
f 176/176/176 178/178/178 177/177/177
f 178/178/178 176/176/176 179/179/179
f 180/180/180 182/182/182 181/181/181
f 183/183/183 185/185/185 184/184/184
f 186/186/186 188/188/188 187/187/187
f 188/188/188 186/186/186 189/189/189
f 190/190/190 192/192/192 191/191/191
f 193/193/193 195/195/195 194/194/194
f 195/195/195 193/193/193 196/196/196
f 197/197/197 199/199/199 198/198/198
f 200/200/200 202/202/202 201/201/201
f 202/202/202 200/200/200 203/203/203
f 204/204/204 206/206/206 205/205/205
f 207/207/207 209/209/209 208/208/208
f 209/209/209 207/207/207 210/210/210
g surface_1
usemtl grass
v -0.018880 0.283830 -0.018880
v -0.011307 0.216000 -0.011306
v 0.011305 0.216000 -0.011306
v 0.018878 0.283830 -0.018880
v 0.018878 0.283830 0.018878
v 0.011305 0.216000 0.011304
v -0.011307 0.216000 0.011304
v -0.018880 0.283830 0.018878
v 0.018878 0.283830 0.018878
v -0.018880 0.283830 0.018878
v -0.018880 0.283830 -0.018880
v 0.018878 0.283830 -0.018880
v -0.018880 0.283830 -0.018880
v -0.018880 0.283830 0.018878
v -0.011307 0.216000 0.011304
v -0.011307 0.216000 -0.011306
v 0.011305 0.216000 0.011304
v 0.018878 0.283830 0.018878
v 0.018878 0.283830 -0.018880
v 0.011305 0.216000 -0.011306
v -0.037295 0.216000 0.064594
v -0.074587 0.216000 -0.000001
v -0.037295 0.216000 -0.064594
v -0.011307 0.216000 0.011304
v -0.011307 0.216000 -0.011306
v 0.037293 0.216000 -0.064594
v 0.037293 0.216000 0.064594
v 0.011305 0.216000 0.011304
v 0.074587 0.216000 -0.000001
v 0.011305 0.216000 -0.011306
vt 0.743230 13.144217
vt 0.445078 10.457237
vt -0.445168 10.457237
vt -0.743320 13.144217
vt 0.743230 13.144217
vt 0.445078 10.457237
vt -0.445168 10.457237
vt -0.743320 13.144217
vt 0.743230 -0.743200
vt -0.743320 -0.743200
vt -0.743320 0.743347
vt 0.743230 0.743347
vt -0.743320 13.144217
vt 0.743230 13.144217
vt 0.445078 10.457237
vt -0.445168 10.457237
vt -0.445168 10.457237
vt -0.743320 13.144217
vt 0.743230 13.144217
vt 0.445078 10.457237
vt -1.468313 -2.542920
vt -2.936492 0.000258
vt -1.468313 2.543438
vt -0.445168 -0.444853
vt -0.445168 0.445370
vt 1.468224 2.543438
vt 1.468224 -2.542920
vt 0.445078 -0.444853
vt 2.936492 0.000258
vt 0.445078 0.445370
vn 0.000000 -0.110996 -0.993821
vn 0.000000 -0.110996 -0.993821
vn 0.000000 -0.110996 -0.993821
vn 0.000000 -0.110996 -0.993821
vn -0.000017 -0.110942 0.993827
vn -0.000017 -0.110942 0.993827
vn -0.000017 -0.110942 0.993827
vn -0.000017 -0.110942 0.993827
vn -0.000015 1.000000 0.000046
vn -0.000015 1.000000 0.000046
vn -0.000015 1.000000 0.000046
vn -0.000015 1.000000 0.000046
vn -0.993823 -0.110979 0.000017
vn -0.993823 -0.110979 0.000017
vn -0.993823 -0.110979 0.000017
vn -0.993823 -0.110979 0.000017
vn 0.993822 -0.110983 0.000051
vn 0.993822 -0.110983 0.000051
vn 0.993822 -0.110983 0.000051
vn 0.993822 -0.110983 0.000051
vn -0.000015 1.000000 0.000046
vn -0.000015 1.000000 0.000046
vn -0.000015 1.000000 0.000046
vn -0.000015 1.000000 0.000046
vn -0.000015 1.000000 0.000046
vn -0.000015 1.000000 0.000046
vn -0.000015 1.000000 0.000046
vn -0.000015 1.000000 0.000046
vn -0.000015 1.000000 0.000046
vn -0.000015 1.000000 0.000046
f 211/211/211 213/213/213 212/212/212
f 213/213/213 211/211/211 214/214/214
f 215/215/215 217/217/217 216/216/216
f 217/217/217 215/215/215 218/218/218
f 219/219/219 221/221/221 220/220/220
f 221/221/221 219/219/219 222/222/222
f 223/223/223 225/225/225 224/224/224
f 225/225/225 223/223/223 226/226/226
f 227/227/227 229/229/229 228/228/228
f 229/229/229 227/227/227 230/230/230
f 231/231/231 233/233/233 232/232/232
f 233/233/233 231/231/231 234/234/234
f 235/235/235 233/233/233 234/234/234
f 233/233/233 235/235/235 236/236/236
f 234/234/234 231/231/231 237/237/237
f 234/234/234 237/237/237 238/238/238
f 236/236/236 237/237/237 239/239/239
f 236/236/236 235/235/235 240/240/240
f 238/238/238 237/237/237 240/240/240
f 236/236/236 240/240/240 237/237/237
