# Densetsu Tool Suite OBJ Export
o crops_dirtSingle_combined
mtllib crops_dirtSingle_combined.mtl
g surface_0
usemtl dirt
v -0.100005 -0.050000 -0.173205
v -0.200000 -0.050000 -0.000003
v -0.100005 -0.050000 0.173205
v 0.099998 -0.050000 -0.173205
v 0.099998 -0.050000 0.173205
v 0.200000 -0.050000 -0.000003
v 0.049998 0.050000 0.086601
v 0.065995 -0.000001 0.114315
v -0.066001 -0.000001 0.114315
v -0.050004 0.050000 0.086601
v -0.050004 0.050000 0.086601
v -0.100005 0.050000 -0.000003
v -0.050004 0.050000 -0.086607
v 0.049998 0.050000 0.086601
v 0.049998 0.050000 -0.086607
v 0.099998 0.050000 -0.000003
v -0.050004 0.050000 -0.086607
v -0.100005 0.050000 -0.000003
v -0.132006 -0.000001 -0.000003
v -0.066001 -0.000001 -0.114320
v 0.132000 -0.000001 -0.000003
v 0.065995 -0.000001 0.114315
v 0.049998 0.050000 0.086601
v 0.099998 0.050000 -0.000003
v -0.050004 0.050000 0.086601
v -0.066001 -0.000001 0.114315
v -0.132006 -0.000001 -0.000003
v -0.100005 0.050000 -0.000003
v -0.050004 0.050000 -0.086607
v -0.066001 -0.000001 -0.114320
v 0.065995 -0.000001 -0.114320
v 0.049998 0.050000 -0.086607
vt 3.936948 6.819193
vt 7.874016 0.000048
vt 3.936948 -6.819098
vt -3.937188 6.819193
vt -3.937188 -6.819098
vt -7.874016 0.000048
vt 1.968414 1.790679
vt 2.598239 -0.460018
vt -2.598479 -0.460018
vt -1.968654 1.790679
vt -1.968654 -3.409405
vt -3.937188 0.000048
vt -1.968654 3.409740
vt 1.968414 -3.409405
vt 1.968414 3.409740
vt 3.936948 0.000048
vt -1.968654 1.790679
vt 1.968414 1.790679
vt 2.598239 -0.460018
vt -2.598479 -0.460018
vt 2.598239 -0.460018
vt -2.598479 -0.460018
vt -1.968654 1.790679
vt 1.968414 1.790679
vt 1.968414 1.790679
vt 2.598239 -0.460018
vt -2.598479 -0.460018
vt -1.968654 1.790679
vt 1.968414 1.790679
vt 2.598239 -0.460018
vt -2.598479 -0.460018
vt -1.968654 1.790679
vn -0.000031 -1.000000 -0.000137
vn -0.000031 -1.000000 -0.000137
vn -0.000031 -1.000000 -0.000137
vn -0.000031 -1.000000 -0.000137
vn -0.000031 -1.000000 -0.000137
vn -0.000031 -1.000000 -0.000137
vn -0.000021 0.484755 0.874650
vn -0.000021 0.484755 0.874650
vn -0.000021 0.484755 0.874650
vn -0.000021 0.484755 0.874650
vn -0.000015 1.000000 0.000046
vn -0.000015 1.000000 0.000046
vn -0.000015 1.000000 0.000046
vn -0.000015 1.000000 0.000046
vn -0.000015 1.000000 0.000046
vn -0.000015 1.000000 0.000046
vn -0.757468 0.484784 -0.437295
vn -0.757468 0.484784 -0.437295
vn -0.757468 0.484784 -0.437295
vn -0.757468 0.484784 -0.437295
vn 0.757413 0.484721 0.437461
vn 0.757413 0.484721 0.437461
vn 0.757413 0.484721 0.437461
vn 0.757413 0.484721 0.437461
vn -0.757452 0.484713 0.437402
vn -0.757452 0.484713 0.437402
vn -0.757452 0.484713 0.437402
vn -0.757452 0.484713 0.437402
vn -0.000041 0.484789 -0.874631
vn -0.000041 0.484789 -0.874631
vn -0.000041 0.484789 -0.874631
vn -0.000041 0.484789 -0.874631
f 7/7/7 9/9/9 8/8/8
f 9/9/9 7/7/7 10/10/10
f 11/11/11 13/13/13 12/12/12
f 13/13/13 11/11/11 14/14/14
f 13/13/13 14/14/14 15/15/15
f 15/15/15 14/14/14 16/16/16
f 17/17/17 19/19/19 18/18/18
f 19/19/19 17/17/17 20/20/20
f 21/21/21 23/23/23 22/22/22
f 23/23/23 21/21/21 24/24/24
f 25/25/25 27/27/27 26/26/26
f 27/27/27 25/25/25 28/28/28
f 29/29/29 31/31/31 30/30/30
f 31/31/31 29/29/29 32/32/32
f 1/1/1 3/3/3 2/2/2
f 3/3/3 1/1/1 4/4/4
f 3/3/3 4/4/4 5/5/5
f 5/5/5 4/4/4 6/6/6
g surface_1
usemtl dirtDark
v 0.132000 -0.000001 -0.000003
v 0.065995 -0.000001 -0.114320
v 0.099998 -0.050000 -0.173205
v 0.200000 -0.050000 -0.000003
v -0.132006 -0.000001 -0.000003
v -0.200000 -0.050000 -0.000003
v -0.100005 -0.050000 -0.173205
v -0.066001 -0.000001 -0.114320
v -0.066001 -0.000001 -0.114320
v -0.100005 -0.050000 -0.173205
v 0.099998 -0.050000 -0.173205
v 0.065995 -0.000001 -0.114320
v -0.100005 -0.050000 0.173205
v -0.200000 -0.050000 -0.000003
v -0.132006 -0.000001 -0.000003
v -0.066001 -0.000001 0.114315
v 0.132000 -0.000001 -0.000003
v 0.099998 0.050000 -0.000003
v 0.049998 0.050000 -0.086607
v 0.065995 -0.000001 -0.114320
v 0.099998 -0.050000 0.173205
v 0.065995 -0.000001 0.114315
v 0.132000 -0.000001 -0.000003
v 0.200000 -0.050000 -0.000003
v 0.099998 -0.050000 0.173205
v -0.100005 -0.050000 0.173205
v -0.066001 -0.000001 0.114315
v 0.065995 -0.000001 0.114315
vt -2.598539 -2.156551
vt 2.598419 -2.156551
vt 3.937008 -5.198189
vt -3.937008 -5.198189
vt 2.598419 -2.156551
vt 3.937008 -5.198189
vt -3.937008 -5.198189
vt -2.598539 -2.156551
vt 2.598419 -2.156551
vt 3.937008 -5.198189
vt -3.937008 -5.198189
vt -2.598539 -2.156551
vt 3.937008 -5.198189
vt -3.937008 -5.198189
vt -2.598539 -2.156551
vt 2.598419 -2.156551
vt -2.598539 -0.460005
vt -1.968594 1.790769
vt 1.968474 1.790769
vt 2.598419 -0.460005
vt -3.937008 -5.198189
vt -2.598539 -2.156551
vt 2.598419 -2.156551
vt 3.937008 -5.198189
vt 3.937008 -5.198189
vt -3.937008 -5.198189
vt -2.598539 -2.156551
vt 2.598419 -2.156551
vn 0.560586 0.762270 -0.323554
vn 0.560586 0.762270 -0.323554
vn 0.560586 0.762270 -0.323554
vn 0.560586 0.762270 -0.323554
vn -0.560530 0.762313 -0.323551
vn -0.560530 0.762313 -0.323551
vn -0.560530 0.762313 -0.323551
vn -0.560530 0.762313 -0.323551
vn -0.000043 0.762307 -0.647215
vn -0.000043 0.762307 -0.647215
vn -0.000043 0.762307 -0.647215
vn -0.000043 0.762307 -0.647215
vn -0.560483 0.762276 0.323718
vn -0.560483 0.762276 0.323718
vn -0.560483 0.762276 0.323718
vn -0.560483 0.762276 0.323718
vn 0.757509 0.484726 -0.437288
vn 0.757509 0.484726 -0.437288
vn 0.757509 0.484726 -0.437288
vn 0.757509 0.484726 -0.437288
vn 0.560539 0.762234 0.323721
vn 0.560539 0.762234 0.323721
vn 0.560539 0.762234 0.323721
vn 0.560539 0.762234 0.323721
vn -0.000022 0.762277 0.647251
vn -0.000022 0.762277 0.647251
vn -0.000022 0.762277 0.647251
vn -0.000022 0.762277 0.647251
f 33/33/33 35/35/35 34/34/34
f 35/35/35 33/33/33 36/36/36
f 37/37/37 39/39/39 38/38/38
f 39/39/39 37/37/37 40/40/40
f 41/41/41 43/43/43 42/42/42
f 43/43/43 41/41/41 44/44/44
f 45/45/45 47/47/47 46/46/46
f 47/47/47 45/45/45 48/48/48
f 49/49/49 51/51/51 50/50/50
f 51/51/51 49/49/49 52/52/52
f 53/53/53 55/55/55 54/54/54
f 55/55/55 53/53/53 56/56/56
f 57/57/57 59/59/59 58/58/58
f 59/59/59 57/57/57 60/60/60
