# Densetsu Tool Suite OBJ Export
o fence_simple_combined
mtllib fence_simple_combined.mtl
g surface_0
usemtl wood
v 0.429996 0.220815 -0.012950
v -0.430002 0.220815 -0.012950
v -0.430002 0.220815 0.012950
v 0.429996 0.220815 0.012950
v 0.429996 0.062103 -0.012950
v -0.430002 0.062103 -0.012950
v -0.430002 0.062103 0.012950
v 0.429996 0.062103 0.012950
v 0.429996 0.345027 -0.035000
v 0.429996 0.000000 -0.035000
v 0.500004 0.000000 -0.035000
v 0.500004 0.345027 -0.035000
v -0.499996 0.345027 -0.035000
v -0.499996 0.000000 -0.035000
v -0.430002 0.000000 -0.035000
v -0.430002 0.345027 -0.035000
v 0.429996 0.124207 0.012950
v -0.430002 0.124207 0.012950
v -0.430002 0.124207 -0.012950
v 0.429996 0.124207 -0.012950
v -0.430002 0.345027 0.035000
v -0.430002 0.000000 0.035000
v -0.499996 0.000000 0.035000
v -0.499996 0.345027 0.035000
v 0.500004 0.345027 0.035000
v 0.429996 0.345027 0.035000
v 0.429996 0.345027 -0.035000
v 0.500004 0.345027 -0.035000
v -0.430002 0.000000 -0.035000
v -0.499996 0.000000 -0.035000
v -0.499996 0.000000 0.035000
v -0.430002 0.000000 0.035000
v 0.500004 0.000000 -0.035000
v 0.429996 0.000000 -0.035000
v 0.429996 0.000000 0.035000
v 0.500004 0.000000 0.035000
v 0.429996 0.282919 0.012950
v -0.430002 0.282919 0.012950
v -0.430002 0.282919 -0.012950
v 0.429996 0.282919 -0.012950
v 0.429996 0.345027 0.035000
v 0.429996 0.000000 0.035000
v 0.429996 0.282919 0.012950
v 0.429996 0.345027 -0.035000
v 0.429996 0.062103 0.012950
v 0.429996 0.000000 -0.035000
v 0.429996 0.282919 -0.012950
v 0.429996 0.220815 0.012950
v 0.429996 0.220815 -0.012950
v 0.429996 0.062103 -0.012950
v 0.429996 0.124207 0.012950
v 0.429996 0.124207 -0.012950
v -0.430002 0.345027 0.035000
v -0.499996 0.345027 0.035000
v -0.499996 0.345027 -0.035000
v -0.430002 0.345027 -0.035000
v -0.499996 0.345027 -0.035000
v -0.499996 0.345027 0.035000
v -0.499996 0.000000 0.035000
v -0.499996 0.000000 -0.035000
v 0.500004 0.345027 0.035000
v 0.500004 0.000000 0.035000
v 0.429996 0.000000 0.035000
v 0.429996 0.345027 0.035000
v 0.500004 0.000000 -0.035000
v 0.500004 0.000000 0.035000
v 0.500004 0.345027 0.035000
v 0.500004 0.345027 -0.035000
v -0.430002 0.000000 0.035000
v -0.430002 0.345027 0.035000
v -0.430002 0.062103 0.012950
v -0.430002 0.000000 -0.035000
v -0.430002 0.282919 0.012950
v -0.430002 0.345027 -0.035000
v -0.430002 0.062103 -0.012950
v -0.430002 0.124207 0.012950
v -0.430002 0.124207 -0.012950
v -0.430002 0.282919 -0.012950
v -0.430002 0.220815 0.012950
v -0.430002 0.220815 -0.012950
vt -16.929403 18.817148
vt 16.928802 18.817148
vt 16.928802 17.797575
vt -16.929403 17.797575
vt -16.929403 18.817148
vt 16.928802 18.817148
vt 16.928802 17.797575
vt -16.929403 17.797575
vt -16.929403 13.584139
vt -16.929403 0.000100
vt -19.685040 0.000100
vt -19.685040 13.584139
vt 19.685040 13.584139
vt 19.685040 0.000100
vt 16.928802 0.000100
vt 16.928802 13.584139
vt 16.928802 17.797575
vt -16.929403 17.797575
vt -16.929403 18.817148
vt 16.928802 18.817148
vt -16.929403 13.584139
vt -16.929403 0.000100
vt -19.685040 0.000100
vt -19.685040 13.584139
vt 19.685040 16.929684
vt 16.928802 16.929684
vt 16.928802 19.685040
vt 19.685040 19.685040
vt 16.928802 19.685040
vt 19.685040 19.685040
vt 19.685040 16.929684
vt 16.928802 16.929684
vt -19.685040 19.685040
vt -16.929403 19.685040
vt -16.929403 16.929684
vt -19.685040 16.929684
vt 16.928802 17.797575
vt -16.929403 17.797575
vt -16.929403 18.817148
vt 16.928802 18.817148
vt -16.929403 13.584139
vt -16.929403 0.000100
vt -17.797487 11.138989
vt -19.685040 13.584139
vt -17.797487 2.445250
vt -19.685040 0.000100
vt -18.816957 11.138989
vt -17.797487 8.693840
vt -18.816957 8.693840
vt -18.816957 2.445250
vt -17.797487 4.890400
vt -18.816957 4.890400
vt -16.929403 16.929684
vt -19.685040 16.929684
vt -19.685040 19.685040
vt -16.929403 19.685040
vt -19.685040 13.584139
vt -16.929403 13.584139
vt -16.929403 0.000100
vt -19.685040 0.000100
vt 19.685040 13.584139
vt 19.685040 0.000100
vt 16.928802 0.000100
vt 16.928802 13.584139
vt 19.685040 0.000100
vt 16.928802 0.000100
vt 16.928802 13.584139
vt 19.685040 13.584139
vt 16.928802 0.000100
vt 16.928802 13.584139
vt 17.796886 2.445250
vt 19.685040 0.000100
vt 17.796886 11.138989
vt 19.685040 13.584139
vt 18.816357 2.445250
vt 17.796886 4.890400
vt 18.816357 4.890400
vt 18.816357 11.138989
vt 17.796886 8.693840
vt 18.816357 8.693840
vn 0.000000 -1.000000 -0.000168
vn 0.000000 -1.000000 -0.000168
vn 0.000000 -1.000000 -0.000168
vn 0.000000 -1.000000 -0.000168
vn 0.000000 -1.000000 -0.000168
vn 0.000000 -1.000000 -0.000168
vn 0.000000 -1.000000 -0.000168
vn 0.000000 -1.000000 -0.000168
vn 0.000000 -0.000031 -1.000000
vn 0.000000 -0.000031 -1.000000
vn 0.000000 -0.000031 -1.000000
vn 0.000000 -0.000031 -1.000000
vn 0.000000 -0.000031 -1.000000
vn 0.000000 -0.000031 -1.000000
vn 0.000000 -0.000031 -1.000000
vn 0.000000 -0.000031 -1.000000
vn -0.000015 1.000000 0.000046
vn -0.000015 1.000000 0.000046
vn -0.000015 1.000000 0.000046
vn -0.000015 1.000000 0.000046
vn -0.000076 -0.000015 1.000000
vn -0.000076 -0.000015 1.000000
vn -0.000076 -0.000015 1.000000
vn -0.000076 -0.000015 1.000000
vn -0.000015 1.000000 0.000046
vn -0.000015 1.000000 0.000046
vn -0.000015 1.000000 0.000046
vn -0.000015 1.000000 0.000046
vn 0.000000 -1.000000 -0.000168
vn 0.000000 -1.000000 -0.000168
vn 0.000000 -1.000000 -0.000168
vn 0.000000 -1.000000 -0.000168
vn 0.000000 -1.000000 -0.000168
vn 0.000000 -1.000000 -0.000168
vn 0.000000 -1.000000 -0.000168
vn 0.000000 -1.000000 -0.000168
vn -0.000015 1.000000 0.000046
vn -0.000015 1.000000 0.000046
vn -0.000015 1.000000 0.000046
vn -0.000015 1.000000 0.000046
vn -1.000000 0.000000 -0.000015
vn -1.000000 0.000000 -0.000015
vn -1.000000 0.000000 -0.000015
vn -1.000000 0.000000 -0.000015
vn -1.000000 0.000000 -0.000015
vn -1.000000 0.000000 -0.000015
vn -1.000000 0.000000 -0.000015
vn -1.000000 0.000000 -0.000015
vn -1.000000 0.000000 -0.000015
vn -1.000000 0.000000 -0.000015
vn -1.000000 0.000000 -0.000015
vn -1.000000 0.000000 -0.000015
vn -0.000015 1.000000 0.000046
vn -0.000015 1.000000 0.000046
vn -0.000015 1.000000 0.000046
vn -0.000015 1.000000 0.000046
vn -1.000000 0.000000 -0.000015
vn -1.000000 0.000000 -0.000015
vn -1.000000 0.000000 -0.000015
vn -1.000000 0.000000 -0.000015
vn -0.000076 -0.000015 1.000000
vn -0.000076 -0.000015 1.000000
vn -0.000076 -0.000015 1.000000
vn -0.000076 -0.000015 1.000000
vn 1.000000 0.000015 0.000046
vn 1.000000 0.000015 0.000046
vn 1.000000 0.000015 0.000046
vn 1.000000 0.000015 0.000046
vn 1.000000 0.000015 0.000046
vn 1.000000 0.000015 0.000046
vn 1.000000 0.000015 0.000046
vn 1.000000 0.000015 0.000046
vn 1.000000 0.000015 0.000046
vn 1.000000 0.000015 0.000046
vn 1.000000 0.000015 0.000046
vn 1.000000 0.000015 0.000046
vn 1.000000 0.000015 0.000046
vn 1.000000 0.000015 0.000046
vn 1.000000 0.000015 0.000046
vn 1.000000 0.000015 0.000046
f 1/1/1 3/3/3 2/2/2
f 3/3/3 1/1/1 4/4/4
f 5/5/5 7/7/7 6/6/6
f 7/7/7 5/5/5 8/8/8
f 9/9/9 11/11/11 10/10/10
f 11/11/11 9/9/9 12/12/12
f 13/13/13 15/15/15 14/14/14
f 15/15/15 13/13/13 16/16/16
f 17/17/17 19/19/19 18/18/18
f 19/19/19 17/17/17 20/20/20
f 21/21/21 23/23/23 22/22/22
f 23/23/23 21/21/21 24/24/24
f 25/25/25 27/27/27 26/26/26
f 27/27/27 25/25/25 28/28/28
f 29/29/29 31/31/31 30/30/30
f 31/31/31 29/29/29 32/32/32
f 33/33/33 35/35/35 34/34/34
f 35/35/35 33/33/33 36/36/36
f 37/37/37 39/39/39 38/38/38
f 39/39/39 37/37/37 40/40/40
f 41/41/41 43/43/43 42/42/42
f 43/43/43 41/41/41 44/44/44
f 45/45/45 42/42/42 43/43/43
f 42/42/42 45/45/45 46/46/46
f 43/43/43 44/44/44 47/47/47
f 45/45/45 43/43/43 48/48/48
f 47/47/47 44/44/44 49/49/49
f 46/46/46 45/45/45 50/50/50
f 46/46/46 50/50/50 44/44/44
f 45/45/45 48/48/48 51/51/51
f 49/49/49 51/51/51 48/48/48
f 52/52/52 44/44/44 50/50/50
f 51/51/51 49/49/49 52/52/52
f 49/49/49 44/44/44 52/52/52
f 53/53/53 55/55/55 54/54/54
f 55/55/55 53/53/53 56/56/56
f 57/57/57 59/59/59 58/58/58
f 59/59/59 57/57/57 60/60/60
f 61/61/61 63/63/63 62/62/62
f 63/63/63 61/61/61 64/64/64
f 65/65/65 67/67/67 66/66/66
f 67/67/67 65/65/65 68/68/68
f 69/69/69 71/71/71 70/70/70
f 71/71/71 69/69/69 72/72/72
f 73/73/73 70/70/70 71/71/71
f 70/70/70 73/73/73 74/74/74
f 71/71/71 72/72/72 75/75/75
f 73/73/73 71/71/71 76/76/76
f 75/75/75 72/72/72 77/77/77
f 74/74/74 73/73/73 78/78/78
f 74/74/74 78/78/78 72/72/72
f 73/73/73 76/76/76 79/79/79
f 77/77/77 79/79/79 76/76/76
f 80/80/80 72/72/72 78/78/78
f 79/79/79 77/77/77 80/80/80
f 77/77/77 72/72/72 80/80/80
g surface_1
usemtl woodDark
v 0.430004 0.124207 0.012950
v 0.430004 0.062105 0.012950
v -0.429996 0.062105 0.012950
v -0.429996 0.124207 0.012950
v -0.429996 0.282922 -0.012950
v -0.429996 0.220817 -0.012950
v 0.430004 0.220817 -0.012950
v 0.430004 0.282922 -0.012950
v 0.430004 0.282922 0.012950
v 0.430004 0.220817 0.012950
v -0.429996 0.220817 0.012950
v -0.429996 0.282922 0.012950
v -0.429996 0.124207 -0.012950
v -0.429996 0.062105 -0.012950
v 0.430004 0.062105 -0.012950
v 0.430004 0.124207 -0.012950
vt 16.929134 4.890399
vt 16.929134 2.445111
vt -16.929134 2.445111
vt -16.929134 4.890399
vt 16.929134 11.138678
vt 16.929134 8.693699
vt -16.929134 8.693699
vt -16.929134 11.138678
vt 16.929134 11.138678
vt 16.929134 8.693699
vt -16.929134 8.693699
vt -16.929134 11.138678
vt 16.929134 4.890399
vt 16.929134 2.445111
vt -16.929134 2.445111
vt -16.929134 4.890399
vn -0.000076 -0.000015 1.000000
vn -0.000076 -0.000015 1.000000
vn -0.000076 -0.000015 1.000000
vn -0.000076 -0.000015 1.000000
vn 0.000000 -0.000031 -1.000000
vn 0.000000 -0.000031 -1.000000
vn 0.000000 -0.000031 -1.000000
vn 0.000000 -0.000031 -1.000000
vn -0.000076 -0.000015 1.000000
vn -0.000076 -0.000015 1.000000
vn -0.000076 -0.000015 1.000000
vn -0.000076 -0.000015 1.000000
vn 0.000000 -0.000031 -1.000000
vn 0.000000 -0.000031 -1.000000
vn 0.000000 -0.000031 -1.000000
vn 0.000000 -0.000031 -1.000000
f 81/81/81 83/83/83 82/82/82
f 83/83/83 81/81/81 84/84/84
f 85/85/85 87/87/87 86/86/86
f 87/87/87 85/85/85 88/88/88
f 89/89/89 91/91/91 90/90/90
f 91/91/91 89/89/89 92/92/92
f 93/93/93 95/95/95 94/94/94
f 95/95/95 93/93/93 96/96/96
