# Densetsu Tool Suite OBJ Export
o fence_corner_combined
mtllib fence_corner_combined.mtl
g surface_0
usemtl woodDark
v 0.452042 0.232922 -0.430014
v 0.452042 0.232922 0.430000
v 0.452042 0.170817 0.430000
v 0.452042 0.170817 -0.430014
v -0.430000 0.074207 -0.477950
v -0.430000 0.012105 -0.477950
v 0.430000 0.012105 -0.477950
v 0.430000 0.074207 -0.477950
v 0.477950 0.012105 -0.430014
v 0.477950 0.012105 0.430000
v 0.477950 0.074207 0.430000
v 0.477950 0.074207 -0.430014
v 0.477950 0.170817 -0.430014
v 0.477950 0.170817 0.430000
v 0.477950 0.232922 0.430000
v 0.477950 0.232922 -0.430014
v 0.430000 0.232922 -0.452056
v 0.430000 0.170817 -0.452056
v -0.430000 0.170817 -0.452056
v -0.430000 0.232922 -0.452056
v 0.452042 0.074207 -0.430014
v 0.452042 0.074207 0.430000
v 0.452042 0.012105 0.430000
v 0.452042 0.012105 -0.430014
v -0.430000 0.232922 -0.477950
v -0.430000 0.170817 -0.477950
v 0.430000 0.170817 -0.477950
v 0.430000 0.232922 -0.477950
v 0.430000 0.074207 -0.452056
v 0.430000 0.012105 -0.452056
v -0.430000 0.012105 -0.452056
v -0.430000 0.074207 -0.452056
vt -16.929134 11.138678
vt 16.929134 11.138678
vt 16.929134 8.693699
vt -16.929134 8.693699
vt 16.929134 4.890399
vt 16.929134 2.445111
vt -16.929134 2.445111
vt -16.929134 4.890399
vt 16.929134 2.445111
vt -16.929134 2.445111
vt -16.929134 4.890399
vt 16.929134 4.890399
vt 16.929134 8.693699
vt -16.929134 8.693699
vt -16.929134 11.138678
vt 16.929134 11.138678
vt 16.929134 11.138678
vt 16.929134 8.693699
vt -16.929134 8.693699
vt -16.929134 11.138678
vt -16.929134 4.890399
vt 16.929134 4.890399
vt 16.929134 2.445111
vt -16.929134 2.445111
vt 16.929134 11.138678
vt 16.929134 8.693699
vt -16.929134 8.693699
vt -16.929134 11.138678
vt 16.929134 4.890399
vt 16.929134 2.445111
vt -16.929134 2.445111
vt -16.929134 4.890399
vn -1.000000 -0.000015 0.000015
vn -1.000000 -0.000015 0.000015
vn -1.000000 -0.000015 0.000015
vn -1.000000 -0.000015 0.000015
vn 0.000000 -0.000031 -1.000000
vn 0.000000 -0.000031 -1.000000
vn 0.000000 -0.000031 -1.000000
vn 0.000000 -0.000031 -1.000000
vn 1.000000 0.000015 0.000046
vn 1.000000 0.000015 0.000046
vn 1.000000 0.000015 0.000046
vn 1.000000 0.000015 0.000046
vn 1.000000 0.000015 0.000046
vn 1.000000 0.000015 0.000046
vn 1.000000 0.000015 0.000046
vn 1.000000 0.000015 0.000046
vn -0.000076 -0.000015 1.000000
vn -0.000076 -0.000015 1.000000
vn -0.000076 -0.000015 1.000000
vn -0.000076 -0.000015 1.000000
vn -1.000000 -0.000015 0.000015
vn -1.000000 -0.000015 0.000015
vn -1.000000 -0.000015 0.000015
vn -1.000000 -0.000015 0.000015
vn 0.000000 -0.000031 -1.000000
vn 0.000000 -0.000031 -1.000000
vn 0.000000 -0.000031 -1.000000
vn 0.000000 -0.000031 -1.000000
vn -0.000076 -0.000015 1.000000
vn -0.000076 -0.000015 1.000000
vn -0.000076 -0.000015 1.000000
vn -0.000076 -0.000015 1.000000
f 1/1/1 3/3/3 2/2/2
f 3/3/3 1/1/1 4/4/4
f 5/5/5 7/7/7 6/6/6
f 7/7/7 5/5/5 8/8/8
f 9/9/9 11/11/11 10/10/10
f 11/11/11 9/9/9 12/12/12
f 13/13/13 15/15/15 14/14/14
f 15/15/15 13/13/13 16/16/16
f 17/17/17 19/19/19 18/18/18
f 19/19/19 17/17/17 20/20/20
f 21/21/21 23/23/23 22/22/22
f 23/23/23 21/21/21 24/24/24
f 25/25/25 27/27/27 26/26/26
f 27/27/27 25/25/25 28/28/28
f 29/29/29 31/31/31 30/30/30
f 31/31/31 29/29/29 32/32/32
g surface_1
usemtl wood
v 0.477935 0.074207 0.429992
v 0.452041 0.074207 0.429992
v 0.452041 0.074207 -0.430007
v 0.477935 0.074207 -0.430007
v 0.429992 0.012103 -0.477951
v -0.430007 0.012103 -0.477951
v -0.430007 0.012103 -0.452056
v 0.429992 0.012103 -0.452056
v 0.500000 -0.050000 0.429992
v 0.429992 -0.050000 0.429992
v 0.429992 -0.050000 0.500000
v 0.500000 -0.050000 0.500000
v 0.429992 0.295027 -0.500000
v 0.429992 -0.050000 -0.500000
v 0.500000 -0.050000 -0.500000
v 0.500000 0.295027 -0.500000
v 0.500000 0.295027 0.500000
v 0.500000 -0.050000 0.500000
v 0.429992 -0.050000 0.500000
v 0.429992 0.295027 0.500000
v -0.430007 0.074207 -0.477951
v -0.430007 0.074207 -0.452056
v -0.430007 0.170815 -0.452056
v -0.430007 0.170815 -0.477951
v -0.430007 0.232919 -0.452056
v -0.430007 -0.050000 -0.500000
v -0.430007 0.012103 -0.477951
v -0.430007 0.232919 -0.477951
v -0.430007 0.012103 -0.452056
v -0.430007 0.295027 -0.500000
v -0.430007 -0.050000 -0.430007
v -0.430007 0.295027 -0.430007
v 0.429992 -0.050000 0.429992
v 0.500000 -0.050000 0.429992
v 0.452041 0.012103 0.429992
v 0.477935 0.012103 0.429992
v 0.429992 0.295027 0.429992
v 0.500000 0.295027 0.429992
v 0.477935 0.074207 0.429992
v 0.452041 0.074207 0.429992
v 0.452041 0.170815 0.429992
v 0.477935 0.170815 0.429992
v 0.452041 0.232919 0.429992
v 0.477935 0.232919 0.429992
v 0.429992 0.170815 -0.477951
v -0.430007 0.170815 -0.477951
v -0.430007 0.170815 -0.452056
v 0.429992 0.170815 -0.452056
v 0.429992 0.295027 0.429992
v 0.429992 0.295027 0.500000
v 0.429992 -0.050000 0.500000
v 0.429992 -0.050000 0.429992
v -0.430007 -0.050000 -0.500000
v -0.500000 -0.050000 -0.500000
v -0.500000 -0.050000 -0.430007
v -0.430007 -0.050000 -0.430007
v 0.500000 -0.050000 -0.500000
v 0.500000 -0.050000 -0.430007
v 0.500000 0.295027 -0.430007
v 0.500000 0.295027 -0.500000
v -0.500000 0.295027 -0.500000
v -0.500000 0.295027 -0.430007
v -0.500000 -0.050000 -0.430007
v -0.500000 -0.050000 -0.500000
v 0.477935 0.170815 -0.430007
v 0.452041 0.170815 -0.430007
v 0.452041 0.170815 0.429992
v 0.477935 0.170815 0.429992
v 0.500000 -0.050000 0.429992
v 0.500000 -0.050000 0.500000
v 0.500000 0.295027 0.500000
v 0.500000 0.295027 0.429992
v 0.477935 0.232919 0.429992
v 0.452041 0.232919 0.429992
v 0.452041 0.232919 -0.430007
v 0.477935 0.232919 -0.430007
v 0.500000 0.295027 -0.430007
v 0.429992 0.295027 -0.430007
v 0.429992 0.295027 -0.500000
v 0.500000 0.295027 -0.500000
v -0.500000 0.295027 -0.500000
v -0.500000 -0.050000 -0.500000
v -0.430007 -0.050000 -0.500000
v -0.430007 0.295027 -0.500000
v 0.429992 0.295027 -0.430007
v 0.429992 -0.050000 -0.430007
v 0.429992 0.232919 -0.452056
v 0.429992 0.295027 -0.500000
v 0.429992 0.012103 -0.452056
v 0.429992 -0.050000 -0.500000
v 0.429992 0.232919 -0.477951
v 0.429992 0.170815 -0.452056
v 0.429992 0.170815 -0.477951
v 0.429992 0.012103 -0.477951
v 0.429992 0.074207 -0.452056
v 0.429992 0.074207 -0.477951
v -0.430007 0.295027 -0.430007
v -0.430007 -0.050000 -0.430007
v -0.500000 -0.050000 -0.430007
v -0.500000 0.295027 -0.430007
v 0.500000 -0.050000 -0.500000
v 0.429992 -0.050000 -0.500000
v 0.429992 -0.050000 -0.430007
v 0.500000 -0.050000 -0.430007
v 0.477935 0.012103 -0.430007
v 0.452041 0.012103 -0.430007
v 0.452041 0.012103 0.429992
v 0.477935 0.012103 0.429992
v 0.429992 0.074207 -0.452056
v -0.430007 0.074207 -0.452056
v -0.430007 0.074207 -0.477951
v 0.429992 0.074207 -0.477951
v 0.429992 0.232919 -0.452056
v -0.430007 0.232919 -0.452056
v -0.430007 0.232919 -0.477951
v 0.429992 0.232919 -0.477951
v 0.500000 -0.050000 -0.430007
v 0.429992 -0.050000 -0.430007
v 0.477935 0.012103 -0.430007
v 0.452041 0.012103 -0.430007
v 0.500000 0.295027 -0.430007
v 0.429992 0.295027 -0.430007
v 0.452041 0.074207 -0.430007
v 0.477935 0.074207 -0.430007
v 0.477935 0.170815 -0.430007
v 0.452041 0.170815 -0.430007
v 0.477935 0.232919 -0.430007
v 0.452041 0.232919 -0.430007
v -0.430007 0.295027 -0.430007
v -0.500000 0.295027 -0.430007
v -0.500000 0.295027 -0.500000
v -0.430007 0.295027 -0.500000
v 0.500000 0.295027 0.500000
v 0.429992 0.295027 0.500000
v 0.429992 0.295027 0.429992
v 0.500000 0.295027 0.429992
vt 18.816357 -16.928928
vt 17.796886 -16.928928
vt 17.796886 16.929706
vt 18.816357 16.929706
vt -16.929403 18.817194
vt 16.928802 18.817194
vt 16.928802 17.797697
vt -16.929403 17.797697
vt -19.685040 -16.928928
vt -16.929403 -16.928928
vt -16.929403 -19.685040
vt -19.685040 -19.685040
vt -16.929403 13.583991
vt -16.929403 0.000389
vt -19.685040 0.000389
vt -19.685040 13.583991
vt 19.685040 13.583991
vt 19.685040 0.000389
vt 16.928802 0.000389
vt 16.928802 13.583991
vt 18.816357 4.890182
vt 17.796886 4.890182
vt 17.796886 8.694197
vt 18.816357 8.694197
vt 17.796886 11.139093
vt 19.685040 0.000389
vt 18.816357 2.445286
vt 18.816357 11.139093
vt 17.796886 2.445286
vt 19.685040 13.583991
vt 16.928802 0.000389
vt 16.928802 13.583991
vt -16.929403 0.000389
vt -19.685040 0.000389
vt -17.797487 2.445286
vt -18.816957 2.445286
vt -16.929403 13.583991
vt -19.685040 13.583991
vt -18.816957 4.890182
vt -17.797487 4.890182
vt -17.797487 8.694197
vt -18.816957 8.694197
vt -17.797487 11.139093
vt -18.816957 11.139093
vt -16.929403 18.817194
vt 16.928802 18.817194
vt 16.928802 17.797697
vt -16.929403 17.797697
vt 16.928802 13.583991
vt 19.685040 13.583991
vt 19.685040 0.000389
vt 16.928802 0.000389
vt 16.928802 19.685186
vt 19.685040 19.685186
vt 19.685040 16.929706
vt 16.928802 16.929706
vt 19.685040 0.000389
vt 16.928802 0.000389
vt 16.928802 13.583991
vt 19.685040 13.583991
vt -19.685040 13.583991
vt -16.929403 13.583991
vt -16.929403 0.000389
vt -19.685040 0.000389
vt -18.816957 16.929706
vt -17.797487 16.929706
vt -17.797487 -16.928928
vt -18.816957 -16.928928
vt -16.929403 0.000389
vt -19.685040 0.000389
vt -19.685040 13.583991
vt -16.929403 13.583991
vt 18.816357 -16.928928
vt 17.796886 -16.928928
vt 17.796886 16.929706
vt 18.816357 16.929706
vt 19.685040 16.929706
vt 16.928802 16.929706
vt 16.928802 19.685186
vt 19.685040 19.685186
vt 19.685040 13.583991
vt 19.685040 0.000389
vt 16.928802 0.000389
vt 16.928802 13.583991
vt -16.929403 13.583991
vt -16.929403 0.000389
vt -17.797487 11.139093
vt -19.685040 13.583991
vt -17.797487 2.445286
vt -19.685040 0.000389
vt -18.816957 11.139093
vt -17.797487 8.694197
vt -18.816957 8.694197
vt -18.816957 2.445286
vt -17.797487 4.890182
vt -18.816957 4.890182
vt -16.929403 13.583991
vt -16.929403 0.000389
vt -19.685040 0.000389
vt -19.685040 13.583991
vt -19.685040 19.685186
vt -16.929403 19.685186
vt -16.929403 16.929706
vt -19.685040 16.929706
vt -18.816957 16.929706
vt -17.797487 16.929706
vt -17.797487 -16.928928
vt -18.816957 -16.928928
vt 16.928802 17.797697
vt -16.929403 17.797697
vt -16.929403 18.817194
vt 16.928802 18.817194
vt 16.928802 17.797697
vt -16.929403 17.797697
vt -16.929403 18.817194
vt 16.928802 18.817194
vt 19.685040 0.000389
vt 16.928802 0.000389
vt 18.816357 2.445286
vt 17.796886 2.445286
vt 19.685040 13.583991
vt 16.928802 13.583991
vt 17.796886 4.890182
vt 18.816357 4.890182
vt 18.816357 8.694197
vt 17.796886 8.694197
vt 18.816357 11.139093
vt 17.796886 11.139093
vt -16.929403 16.929706
vt -19.685040 16.929706
vt -19.685040 19.685186
vt -16.929403 19.685186
vt 19.685040 -19.685040
vt 16.928802 -19.685040
vt 16.928802 -16.928928
vt 19.685040 -16.928928
vn -0.000015 1.000000 0.000046
vn -0.000015 1.000000 0.000046
vn -0.000015 1.000000 0.000046
vn -0.000015 1.000000 0.000046
vn -0.000031 -1.000000 -0.000137
vn -0.000031 -1.000000 -0.000137
vn -0.000031 -1.000000 -0.000137
vn -0.000031 -1.000000 -0.000137
vn -0.000031 -1.000000 -0.000137
vn -0.000031 -1.000000 -0.000137
vn -0.000031 -1.000000 -0.000137
vn -0.000031 -1.000000 -0.000137
vn 0.000000 -0.000031 -1.000000
vn 0.000000 -0.000031 -1.000000
vn 0.000000 -0.000031 -1.000000
vn 0.000000 -0.000031 -1.000000
vn -0.000076 -0.000015 1.000000
vn -0.000076 -0.000015 1.000000
vn -0.000076 -0.000015 1.000000
vn -0.000076 -0.000015 1.000000
vn 1.000000 0.000015 0.000046
vn 1.000000 0.000015 0.000046
vn 1.000000 0.000015 0.000046
vn 1.000000 0.000015 0.000046
vn 1.000000 0.000015 0.000046
vn 1.000000 0.000015 0.000046
vn 1.000000 0.000015 0.000046
vn 1.000000 0.000015 0.000046
vn 1.000000 0.000015 0.000046
vn 1.000000 0.000015 0.000046
vn 1.000000 0.000015 0.000046
vn 1.000000 0.000015 0.000046
vn 0.000000 -0.000031 -1.000000
vn 0.000000 -0.000031 -1.000000
vn 0.000000 0.000031 -1.000000
vn 0.000000 -0.000031 -1.000000
vn 0.000000 -0.000031 -1.000000
vn 0.000000 0.000031 -1.000000
vn 0.000000 -0.000031 -1.000000
vn 0.000000 0.000031 -1.000000
vn 0.000000 0.000031 -1.000000
vn 0.000000 0.000031 -1.000000
vn 0.000000 -0.000031 -1.000000
vn 0.000000 0.000031 -1.000000
vn -0.000031 -1.000000 -0.000137
vn -0.000031 -1.000000 -0.000137
vn -0.000031 -1.000000 -0.000137
vn -0.000031 -1.000000 -0.000137
vn -1.000000 -0.000015 0.000015
vn -1.000000 -0.000015 0.000015
vn -1.000000 -0.000015 0.000015
vn -1.000000 -0.000015 0.000015
vn -0.000031 -1.000000 -0.000137
vn -0.000031 -1.000000 -0.000137
vn -0.000031 -1.000000 -0.000137
vn -0.000031 -1.000000 -0.000137
vn 1.000000 0.000015 0.000046
vn 1.000000 0.000015 0.000046
vn 1.000000 0.000015 0.000046
vn 1.000000 0.000015 0.000046
vn -1.000000 -0.000015 0.000015
vn -1.000000 -0.000015 0.000015
vn -1.000000 -0.000015 0.000015
vn -1.000000 -0.000015 0.000015
vn -0.000031 -1.000000 -0.000137
vn -0.000031 -1.000000 -0.000137
vn -0.000031 -1.000000 -0.000137
vn -0.000031 -1.000000 -0.000137
vn 1.000000 0.000015 0.000046
vn 1.000000 0.000015 0.000046
vn 1.000000 0.000015 0.000046
vn 1.000000 0.000015 0.000046
vn -0.000015 1.000000 0.000046
vn -0.000015 1.000000 0.000046
vn -0.000015 1.000000 0.000046
vn -0.000015 1.000000 0.000046
vn -0.000015 1.000000 0.000046
vn -0.000015 1.000000 0.000046
vn -0.000015 1.000000 0.000046
vn -0.000015 1.000000 0.000046
vn 0.000000 -0.000031 -1.000000
vn 0.000000 -0.000031 -1.000000
vn 0.000000 -0.000031 -1.000000
vn 0.000000 -0.000031 -1.000000
vn -1.000000 -0.000015 0.000015
vn -1.000000 -0.000015 0.000015
vn -1.000000 -0.000015 0.000015
vn -1.000000 -0.000015 0.000015
vn -1.000000 0.000000 -0.000015
vn -1.000000 -0.000015 0.000015
vn -1.000000 -0.000015 0.000015
vn -1.000000 -0.000015 0.000015
vn -1.000000 -0.000015 0.000015
vn -1.000000 -0.000015 0.000015
vn -1.000000 -0.000015 0.000015
vn -1.000000 -0.000015 0.000015
vn -0.000076 -0.000015 1.000000
vn -0.000076 -0.000015 1.000000
vn -0.000076 -0.000015 1.000000
vn -0.000076 -0.000015 1.000000
vn -0.000031 -1.000000 -0.000137
vn -0.000031 -1.000000 -0.000137
vn -0.000031 -1.000000 -0.000137
vn -0.000031 -1.000000 -0.000137
vn -0.000031 -1.000000 -0.000137
vn -0.000031 -1.000000 -0.000137
vn -0.000031 -1.000000 -0.000137
vn -0.000031 -1.000000 -0.000137
vn -0.000015 1.000000 0.000046
vn -0.000015 1.000000 0.000046
vn -0.000015 1.000000 0.000046
vn -0.000015 1.000000 0.000046
vn -0.000015 1.000000 0.000046
vn -0.000015 1.000000 0.000046
vn -0.000015 1.000000 0.000046
vn -0.000015 1.000000 0.000046
vn -0.000076 -0.000015 1.000000
vn -0.000076 -0.000015 1.000000
vn -0.000076 -0.000015 1.000000
vn -0.000076 -0.000015 1.000000
vn -0.000076 -0.000015 1.000000
vn -0.000076 -0.000015 1.000000
vn -0.000076 -0.000015 1.000000
vn -0.000076 -0.000015 1.000000
vn -0.000076 -0.000015 1.000000
vn -0.000076 -0.000015 1.000000
vn -0.000076 -0.000015 1.000000
vn -0.000076 -0.000015 1.000000
vn -0.000015 1.000000 0.000046
vn -0.000015 1.000000 0.000046
vn -0.000015 1.000000 0.000046
vn -0.000015 1.000000 0.000046
vn -0.000015 1.000000 0.000046
vn -0.000015 1.000000 0.000046
vn -0.000015 1.000000 0.000046
vn -0.000015 1.000000 0.000046
f 33/33/33 35/35/35 34/34/34
f 35/35/35 33/33/33 36/36/36
f 37/37/37 39/39/39 38/38/38
f 39/39/39 37/37/37 40/40/40
f 41/41/41 43/43/43 42/42/42
f 43/43/43 41/41/41 44/44/44
f 45/45/45 47/47/47 46/46/46
f 47/47/47 45/45/45 48/48/48
f 49/49/49 51/51/51 50/50/50
f 51/51/51 49/49/49 52/52/52
f 53/53/53 55/55/55 54/54/54
f 55/55/55 53/53/53 56/56/56
f 57/57/57 54/54/54 55/55/55
f 53/53/53 58/58/58 56/56/56
f 59/59/59 58/58/58 53/53/53
f 56/56/56 58/58/58 60/60/60
f 61/61/61 58/58/58 59/59/59
f 57/57/57 61/61/61 54/54/54
f 62/62/62 60/60/60 58/58/58
f 62/62/62 57/57/57 60/60/60
f 61/61/61 63/63/63 58/58/58
f 64/64/64 57/57/57 62/62/62
f 57/57/57 64/64/64 61/61/61
f 63/63/63 61/61/61 64/64/64
f 65/65/65 67/67/67 66/66/66
f 68/68/68 66/66/66 67/67/67
f 67/67/67 65/65/65 69/69/69
f 66/66/66 68/68/68 70/70/70
f 70/70/70 68/68/68 71/71/71
f 67/67/67 69/69/69 72/72/72
f 72/72/72 73/73/73 71/71/71
f 72/72/72 69/69/69 73/73/73
f 74/74/74 71/71/71 73/73/73
f 70/70/70 71/71/71 74/74/74
f 73/73/73 69/69/69 75/75/75
f 70/70/70 74/74/74 76/76/76
f 75/75/75 69/69/69 76/76/76
f 70/70/70 76/76/76 69/69/69
f 77/77/77 79/79/79 78/78/78
f 79/79/79 77/77/77 80/80/80
f 81/81/81 83/83/83 82/82/82
f 83/83/83 81/81/81 84/84/84
f 85/85/85 87/87/87 86/86/86
f 87/87/87 85/85/85 88/88/88
f 89/89/89 91/91/91 90/90/90
f 91/91/91 89/89/89 92/92/92
f 93/93/93 95/95/95 94/94/94
f 95/95/95 93/93/93 96/96/96
f 97/97/97 99/99/99 98/98/98
f 99/99/99 97/97/97 100/100/100
f 101/101/101 103/103/103 102/102/102
f 103/103/103 101/101/101 104/104/104
f 105/105/105 107/107/107 106/106/106
f 107/107/107 105/105/105 108/108/108
f 109/109/109 111/111/111 110/110/110
f 111/111/111 109/109/109 112/112/112
f 113/113/113 115/115/115 114/114/114
f 115/115/115 113/113/113 116/116/116
f 117/117/117 119/119/119 118/118/118
f 119/119/119 117/117/117 120/120/120
f 121/121/121 118/118/118 119/119/119
f 118/118/118 121/121/121 122/122/122
f 119/119/119 120/120/120 123/123/123
f 121/121/121 119/119/119 124/124/124
f 123/123/123 120/120/120 125/125/125
f 122/122/122 121/121/121 126/126/126
f 122/122/122 126/126/126 120/120/120
f 121/121/121 124/124/124 127/127/127
f 125/125/125 127/127/127 124/124/124
f 128/128/128 120/120/120 126/126/126
f 127/127/127 125/125/125 128/128/128
f 125/125/125 120/120/120 128/128/128
f 129/129/129 131/131/131 130/130/130
f 131/131/131 129/129/129 132/132/132
f 133/133/133 135/135/135 134/134/134
f 135/135/135 133/133/133 136/136/136
f 137/137/137 139/139/139 138/138/138
f 139/139/139 137/137/137 140/140/140
f 141/141/141 143/143/143 142/142/142
f 143/143/143 141/141/141 144/144/144
f 145/145/145 147/147/147 146/146/146
f 147/147/147 145/145/145 148/148/148
f 149/149/149 151/151/151 150/150/150
f 152/152/152 150/150/150 151/151/151
f 151/151/151 149/149/149 153/153/153
f 150/150/150 152/152/152 154/154/154
f 154/154/154 152/152/152 155/155/155
f 151/151/151 153/153/153 156/156/156
f 156/156/156 157/157/157 155/155/155
f 156/156/156 153/153/153 157/157/157
f 158/158/158 155/155/155 157/157/157
f 154/154/154 155/155/155 158/158/158
f 157/157/157 153/153/153 159/159/159
f 154/154/154 158/158/158 160/160/160
f 159/159/159 153/153/153 160/160/160
f 154/154/154 160/160/160 153/153/153
f 161/161/161 163/163/163 162/162/162
f 163/163/163 161/161/161 164/164/164
f 165/165/165 167/167/167 166/166/166
f 167/167/167 165/165/165 168/168/168
