# Densetsu Tool Suite OBJ Export
o Low_Poly_Forest_fence18_combined
mtllib Low_Poly_Forest_fence18_combined.mtl
g surface_0
usemtl Low_Poly_Forest_fence18_combined
v 0.863994 0.258070 0.064896
v 0.863994 0.076979 0.064896
v 0.863994 0.076979 0.114688
v 0.863994 0.258070 0.114688
v -0.833348 0.076979 0.064896
v 0.863994 0.076979 0.064896
v 0.863994 0.258070 0.064896
v -0.833348 0.258070 0.064896
v -0.833348 0.258070 0.064896
v -0.833348 0.258070 0.114688
v -0.833348 0.076979 0.114688
v -0.833348 0.076979 0.064896
v -0.833348 0.076979 0.064896
v -0.833348 0.076979 0.114688
v 0.863994 0.076979 0.114688
v 0.863994 0.076979 0.064896
v -0.833348 0.258070 0.064896
v 0.863994 0.258070 0.064896
v 0.863994 0.258070 0.114688
v -0.833348 0.258070 0.114688
v 0.863994 0.076979 0.114688
v -0.833348 0.076979 0.114688
v -0.833348 0.258070 0.114688
v 0.863994 0.258070 0.114688
v 0.863994 0.805637 0.064896
v 0.863994 0.624546 0.064896
v 0.863994 0.624546 0.114688
v 0.863994 0.805637 0.114688
v -0.833348 0.624546 0.064896
v 0.863994 0.624546 0.064896
v 0.863994 0.805637 0.064896
v -0.833348 0.805637 0.064896
v -0.833348 0.805637 0.064896
v -0.833348 0.805637 0.114688
v -0.833348 0.624546 0.114688
v -0.833348 0.624546 0.064896
v -0.833348 0.624546 0.064896
v -0.833348 0.624546 0.114688
v 0.863994 0.624546 0.114688
v 0.863994 0.624546 0.064896
v -0.833348 0.805637 0.064896
v 0.863994 0.805637 0.064896
v 0.863994 0.805637 0.114688
v -0.833348 0.805637 0.114688
v 0.863994 0.624546 0.114688
v -0.833348 0.624546 0.114688
v -0.833348 0.805637 0.114688
v 0.863994 0.805637 0.114688
v -0.661261 0.076979 0.114688
v 0.682175 0.076979 0.114688
v -0.661261 0.258070 0.114688
v 0.682175 0.258070 0.114688
v 0.682175 0.076979 0.114688
v 0.682175 0.258070 0.114688
v -0.661261 0.258070 0.114688
v -0.661261 0.076979 0.114688
v 0.727456 0.043660 0.063232
v 0.759262 0.616305 0.081214
v 0.822391 0.614161 0.076296
v 0.802008 0.940416 0.089535
v 0.738879 0.940416 0.094453
v 0.790585 0.043660 0.058314
v 0.738879 -0.189298 0.094453
v 0.802008 -0.189298 0.089535
v 0.842798 0.043660 0.022490
v 0.854221 -0.189298 0.053710
v 0.802008 -0.189298 0.089535
v 0.790585 0.043660 0.058314
v 0.874604 0.608302 0.040471
v 0.822391 0.614161 0.076296
v 0.854221 0.940416 0.053710
v 0.802008 0.940416 0.089535
v 0.842798 0.043660 0.022490
v 0.874604 0.608302 0.040471
v 0.901909 0.600300 -0.016660
v 0.881526 0.940416 -0.003420
v 0.854221 0.940416 0.053710
v 0.870103 0.043660 -0.034641
v 0.854221 -0.189298 0.053710
v 0.881526 -0.189298 -0.003420
v 0.865185 0.043660 -0.097771
v 0.876607 -0.189298 -0.066550
v 0.881526 -0.189298 -0.003420
v 0.870103 0.043660 -0.034641
v 0.896991 0.592297 -0.079789
v 0.901909 0.600300 -0.016660
v 0.876607 0.940416 -0.066550
v 0.881526 0.940416 -0.003420
v 0.865185 0.043660 -0.097771
v 0.896991 0.592297 -0.079789
v 0.861166 0.586439 -0.132002
v 0.840783 0.940416 -0.118762
v 0.876607 0.940416 -0.066550
v 0.829361 0.043660 -0.149983
v 0.876607 -0.189298 -0.066550
v 0.840783 -0.189298 -0.118762
v 0.772230 0.043660 -0.177288
v 0.783652 -0.189298 -0.146068
v 0.840783 -0.189298 -0.118762
v 0.829361 0.043660 -0.149983
v 0.804035 0.584294 -0.159307
v 0.861166 0.586439 -0.132002
v 0.783652 0.940416 -0.146068
v 0.840783 0.940416 -0.118762
v 0.772230 0.043660 -0.177288
v 0.804035 0.584294 -0.159307
v 0.740906 0.586439 -0.154388
v 0.720523 0.940416 -0.141149
v 0.783652 0.940416 -0.146068
v 0.709100 0.043660 -0.172370
v 0.783652 -0.189298 -0.146068
v 0.720523 -0.189298 -0.141149
v 0.656888 0.043660 -0.136546
v 0.668310 -0.189298 -0.105325
v 0.720523 -0.189298 -0.141149
v 0.709100 0.043660 -0.172370
v 0.688694 0.592297 -0.118564
v 0.740906 0.586439 -0.154388
v 0.668310 0.940416 -0.105325
v 0.720523 0.940416 -0.141149
v 0.656888 0.043660 -0.136546
v 0.688694 0.592297 -0.118564
v 0.661388 0.600300 -0.061433
v 0.641005 0.940416 -0.048194
v 0.668310 0.940416 -0.105325
v 0.629582 0.043660 -0.079415
v 0.668310 -0.189298 -0.105325
v 0.641005 -0.189298 -0.048194
v 0.634501 0.043660 -0.016285
v 0.645923 -0.189298 0.014935
v 0.641005 -0.189298 -0.048194
v 0.629582 0.043660 -0.079415
v 0.666307 0.608302 0.001696
v 0.661388 0.600300 -0.061433
v 0.645923 0.940416 0.014935
v 0.641005 0.940416 -0.048194
v 0.634501 0.043660 -0.016285
v 0.666307 0.608302 0.001696
v 0.702131 0.614161 0.053909
v 0.681748 0.940416 0.067148
v 0.645923 0.940416 0.014935
v 0.670325 0.043660 0.035927
v 0.645923 -0.189298 0.014935
v 0.681748 -0.189298 0.067148
v 0.727456 0.043660 0.063232
v 0.738879 -0.189298 0.094453
v 0.681748 -0.189298 0.067148
v 0.670325 0.043660 0.035927
v 0.759262 0.616305 0.081214
v 0.702131 0.614161 0.053909
v 0.738879 0.940416 0.094453
v 0.681748 0.940416 0.067148
v 0.854221 -0.189298 0.053710
v 0.681748 -0.189298 0.067148
v 0.738879 -0.189298 0.094453
v 0.802008 -0.189298 0.089535
v 0.668310 -0.189298 -0.105325
v 0.854221 -0.189298 0.053710
v 0.881526 -0.189298 -0.003420
v 0.681748 -0.189298 0.067148
v 0.668310 -0.189298 -0.105325
v 0.641005 -0.189298 -0.048194
v 0.645923 -0.189298 0.014935
v 0.881526 -0.189298 -0.003420
v 0.876607 -0.189298 -0.066550
v 0.840783 -0.189298 -0.118762
v 0.783652 -0.189298 -0.146068
v 0.668310 -0.189298 -0.105325
v 0.840783 -0.189298 -0.118762
v 0.783652 -0.189298 -0.146068
v 0.720523 -0.189298 -0.141149
v 0.668310 -0.189298 -0.105325
v 0.645923 0.940416 0.014935
v 0.668310 0.940416 -0.105325
v 0.720523 0.940416 -0.141149
v 0.681748 0.940416 0.067148
v 0.641005 0.940416 -0.048194
v 0.668310 0.940416 -0.105325
v 0.876607 0.940416 -0.066550
v 0.720523 0.940416 -0.141149
v 0.783652 0.940416 -0.146068
v 0.840783 0.940416 -0.118762
v 0.681748 0.940416 0.067148
v 0.876607 0.940416 -0.066550
v 0.802008 0.940416 0.089535
v 0.854221 0.940416 0.053710
v 0.881526 0.940416 -0.003420
v 0.802008 0.940416 0.089535
v 0.738879 0.940416 0.094453
v 0.681748 0.940416 0.067148
v -0.661261 0.624546 0.114688
v 0.682175 0.624546 0.114688
v -0.661261 0.805637 0.114688
v 0.682175 0.805637 0.114688
v 0.682175 0.624546 0.114688
v 0.682175 0.805637 0.114688
v -0.661261 0.805637 0.114688
v -0.661261 0.624546 0.114688
vt 0.191918 0.447941
vt 0.212970 0.388324
vt 0.212970 0.388324
vt 0.191918 0.447941
vt 0.212970 0.005764
vt 0.212970 0.388324
vt 0.181378 0.418133
vt 0.170837 0.005764
vt 0.170837 0.005764
vt 0.170837 0.005764
vt 0.212970 0.005764
vt 0.212970 0.005764
vt 0.523808 0.021219
vt 0.608223 0.021219
vt 0.608223 0.105635
vt 0.523808 0.105635
vt 0.608223 0.021219
vt 0.608223 0.105635
vt 0.523808 0.105635
vt 0.523808 0.021219
vt 0.823093 0.494382
vt 0.823093 0.004036
vt 0.752693 0.004036
vt 0.752693 0.494382
vt 0.191918 0.447941
vt 0.212970 0.388324
vt 0.212970 0.388324
vt 0.191918 0.447941
vt 0.212970 0.005764
vt 0.212970 0.388324
vt 0.181378 0.418133
vt 0.170837 0.005764
vt 0.170837 0.005764
vt 0.170837 0.005764
vt 0.212970 0.005764
vt 0.212970 0.005764
vt 0.523808 0.021219
vt 0.608223 0.021219
vt 0.608223 0.105635
vt 0.523808 0.105635
vt 0.608223 0.021219
vt 0.608223 0.105635
vt 0.523808 0.105635
vt 0.523808 0.021219
vt 0.823093 0.494382
vt 0.823093 0.004036
vt 0.752693 0.004036
vt 0.752693 0.494382
vt 0.608223 0.032737
vt 0.608223 0.093466
vt 0.523808 0.032737
vt 0.523808 0.093466
vt 0.823093 0.423699
vt 0.752693 0.423699
vt 0.752693 0.070937
vt 0.823093 0.070937
vt 0.167052 0.175493
vt 0.175590 0.321657
vt 0.169177 0.320818
vt 0.163840 0.451144
vt 0.170254 0.451144
vt 0.160638 0.175493
vt 0.170254 0.009017
vt 0.163840 0.009017
vt 0.143115 0.175493
vt 0.146317 0.009017
vt 0.163840 0.009017
vt 0.160638 0.175493
vt 0.151653 0.318525
vt 0.169177 0.320818
vt 0.146317 0.451144
vt 0.163840 0.451144
vt 0.143115 0.175493
vt 0.151653 0.318525
vt 0.127717 0.315393
vt 0.122380 0.451144
vt 0.146317 0.451144
vt 0.119178 0.175493
vt 0.146317 0.009017
vt 0.122380 0.009017
vt 0.095241 0.175493
vt 0.098443 0.009017
vt 0.122380 0.009017
vt 0.119178 0.175493
vt 0.103780 0.312261
vt 0.127717 0.315393
vt 0.098443 0.451144
vt 0.122380 0.451144
vt 0.095241 0.175493
vt 0.103780 0.312261
vt 0.086257 0.309968
vt 0.080920 0.451144
vt 0.098443 0.451144
vt 0.077718 0.175493
vt 0.098443 0.009017
vt 0.080920 0.009017
vt 0.071304 0.175493
vt 0.074506 0.009017
vt 0.080920 0.009017
vt 0.077718 0.175493
vt 0.079843 0.309129
vt 0.086257 0.309968
vt 0.074506 0.451144
vt 0.080920 0.451144
vt 0.071304 0.175493
vt 0.079843 0.309129
vt 0.086257 0.309968
vt 0.080920 0.451144
vt 0.074506 0.451144
vt 0.077718 0.175493
vt 0.074506 0.009017
vt 0.080920 0.009017
vt 0.095241 0.175493
vt 0.098443 0.009017
vt 0.080920 0.009017
vt 0.077718 0.175493
vt 0.103780 0.312261
vt 0.086257 0.309968
vt 0.098443 0.451144
vt 0.080920 0.451144
vt 0.095241 0.175493
vt 0.103780 0.312261
vt 0.127717 0.315393
vt 0.122380 0.451144
vt 0.098443 0.451144
vt 0.119178 0.175493
vt 0.098443 0.009017
vt 0.122380 0.009017
vt 0.143115 0.175493
vt 0.146317 0.009017
vt 0.122380 0.009017
vt 0.119178 0.175493
vt 0.151653 0.318525
vt 0.127717 0.315393
vt 0.146317 0.451144
vt 0.122380 0.451144
vt 0.143115 0.175493
vt 0.151653 0.318525
vt 0.169177 0.320818
vt 0.163840 0.451144
vt 0.146317 0.451144
vt 0.160638 0.175493
vt 0.146317 0.009017
vt 0.163840 0.009017
vt 0.167052 0.175493
vt 0.170254 0.009017
vt 0.163840 0.009017
vt 0.160638 0.175493
vt 0.175590 0.321657
vt 0.169177 0.320818
vt 0.170254 0.451144
vt 0.163840 0.451144
vt 0.924006 0.427557
vt 0.924006 0.486151
vt 0.982599 0.486151
vt 0.982599 0.427557
vt 0.924006 0.427557
vt 0.982599 0.486151
vt 0.982599 0.427557
vt 0.924006 0.427557
vt 0.924006 0.486151
vt 0.982599 0.486151
vt 0.982599 0.427557
vt 0.924006 0.427557
vt 0.924006 0.486151
vt 0.982599 0.486151
vt 0.982599 0.486151
vt 0.982599 0.427557
vt 0.924006 0.486151
vt 0.924006 0.427557
vt 0.924006 0.486151
vt 0.982599 0.486151
vt 0.924006 0.427557
vt 0.924006 0.486151
vt 0.982599 0.486151
vt 0.982599 0.427557
vt 0.924006 0.486151
vt 0.982599 0.486151
vt 0.924006 0.427557
vt 0.924006 0.486151
vt 0.982599 0.486151
vt 0.982599 0.427557
vt 0.924006 0.427557
vt 0.982599 0.486151
vt 0.982599 0.427557
vt 0.982599 0.486151
vt 0.924006 0.486151
vt 0.924006 0.427557
vt 0.924006 0.486151
vt 0.982599 0.486151
vt 0.608223 0.032737
vt 0.608223 0.093466
vt 0.523808 0.032737
vt 0.523808 0.093466
vt 0.823093 0.423699
vt 0.752693 0.423699
vt 0.752693 0.070937
vt 0.823093 0.070937
vn 1.000000 0.000000 -0.000015
vn 1.000000 0.000000 -0.000015
vn 1.000000 0.000000 -0.000015
vn 1.000000 0.000000 -0.000015
vn 0.000000 0.000000 -1.000000
vn 0.000000 0.000000 -1.000000
vn 0.000000 0.000000 -1.000000
vn 0.000000 0.000000 -1.000000
vn -1.000000 0.000000 -0.000015
vn -1.000000 0.000000 -0.000015
vn -1.000000 0.000000 -0.000015
vn -1.000000 0.000000 -0.000015
vn 0.000000 -1.000000 -0.000015
vn 0.000000 -1.000000 -0.000015
vn 0.000000 -1.000000 -0.000015
vn 0.000000 -1.000000 -0.000015
vn 0.000000 1.000000 -0.000015
vn 0.000000 1.000000 -0.000015
vn 0.000000 1.000000 -0.000015
vn 0.000000 1.000000 -0.000015
vn -0.000015 -0.000015 1.000000
vn -0.000015 -0.000015 1.000000
vn -0.000015 -0.000015 1.000000
vn -0.000015 -0.000015 1.000000
vn 1.000000 0.000000 -0.000015
vn 1.000000 0.000000 -0.000015
vn 1.000000 0.000000 -0.000015
vn 1.000000 0.000000 -0.000015
vn 0.000000 0.000000 -1.000000
vn 0.000000 0.000000 -1.000000
vn 0.000000 0.000000 -1.000000
vn 0.000000 0.000000 -1.000000
vn -1.000000 0.000000 -0.000015
vn -1.000000 0.000000 -0.000015
vn -1.000000 0.000000 -0.000015
vn -1.000000 0.000000 -0.000015
vn 0.000000 -1.000000 -0.000015
vn 0.000000 -1.000000 -0.000015
vn 0.000000 -1.000000 -0.000015
vn 0.000000 -1.000000 -0.000015
vn 0.000000 1.000000 -0.000015
vn 0.000000 1.000000 -0.000015
vn 0.000000 1.000000 -0.000015
vn 0.000000 1.000000 -0.000015
vn -0.000015 -0.000015 1.000000
vn -0.000015 -0.000015 1.000000
vn -0.000015 -0.000015 1.000000
vn -0.000015 -0.000015 1.000000
vn 0.000000 -1.000000 -0.000015
vn 0.000000 -1.000000 -0.000015
vn 0.000000 1.000000 -0.000015
vn 0.000000 1.000000 -0.000015
vn -0.000015 -0.000015 1.000000
vn -0.000015 -0.000015 1.000000
vn -0.000015 -0.000015 1.000000
vn -0.000015 -0.000015 1.000000
vn 0.077226 0.021685 0.996778
vn 0.076803 -0.035686 0.996407
vn 0.076800 -0.035651 0.996409
vn 0.076989 -0.035761 0.996390
vn 0.077611 -0.035850 0.996339
vn 0.077428 0.079078 0.993857
vn 0.076935 0.136117 0.987701
vn 0.076935 0.136117 0.987701
vn 0.564222 0.072239 0.822457
vn 0.560404 0.136942 0.816820
vn 0.560404 0.136942 0.816820
vn 0.564256 0.007227 0.825568
vn 0.563926 -0.037859 0.824957
vn 0.564244 -0.017891 0.825414
vn 0.565773 0.001848 0.824559
vn 0.565724 0.001848 0.824592
vn 0.901025 -0.009497 0.433663
vn 0.901732 0.003735 0.432280
vn 0.901311 -0.030787 0.432077
vn 0.902610 0.037838 0.428793
vn 0.901571 0.038128 0.430948
vn 0.901266 0.046032 0.430814
vn 0.897562 0.101482 0.429049
vn 0.897562 0.101482 0.429049
vn 0.996955 0.007264 -0.077637
vn 0.996244 0.038459 -0.077581
vn 0.996244 0.038459 -0.077581
vn 0.996871 -0.023816 -0.075379
vn 0.996826 -0.016147 -0.077956
vn 0.996690 0.023218 -0.077912
vn 0.994749 0.062072 -0.081367
vn 0.995022 0.062670 -0.077480
vn 0.824672 -0.031481 -0.564734
vn 0.823377 0.036295 -0.566333
vn 0.823926 0.003190 -0.566688
vn 0.820849 0.069093 -0.566951
vn 0.822594 0.069657 -0.564347
vn 0.824112 -0.033439 -0.565440
vn 0.824059 -0.035396 -0.565397
vn 0.824059 -0.035396 -0.565397
vn 0.430270 -0.064728 -0.900377
vn 0.429063 -0.099322 -0.897797
vn 0.429063 -0.099322 -0.897797
vn 0.430893 -0.030071 -0.901902
vn 0.430522 0.022459 -0.902301
vn 0.430244 0.040419 -0.901807
vn 0.429630 0.058287 -0.901122
vn 0.430508 0.058484 -0.900690
vn -0.077182 -0.020373 -0.996809
vn -0.076870 0.034345 -0.996449
vn -0.076840 0.035949 -0.996395
vn -0.077078 0.032715 -0.996488
vn -0.077646 0.032592 -0.996448
vn -0.077371 -0.078494 -0.993908
vn -0.076878 -0.136130 -0.987704
vn -0.076878 -0.136130 -0.987704
vn -0.564267 -0.071657 -0.822477
vn -0.560298 -0.136863 -0.816905
vn -0.560298 -0.136863 -0.816905
vn -0.564129 -0.005621 -0.825667
vn -0.563830 0.039312 -0.824955
vn -0.564147 0.018826 -0.825460
vn -0.565777 -0.001699 -0.824557
vn -0.565708 -0.001657 -0.824604
vn -0.900987 0.010055 -0.433729
vn -0.901685 -0.002488 -0.432386
vn -0.901277 0.031405 -0.432104
vn -0.902630 -0.036959 -0.428827
vn -0.901632 -0.036389 -0.430971
vn -0.901271 -0.046010 -0.430806
vn -0.897569 -0.101459 -0.429042
vn -0.897569 -0.101459 -0.429042
vn -0.996951 -0.007779 0.077641
vn -0.996243 -0.038477 0.077582
vn -0.996243 -0.038477 0.077582
vn -0.996884 0.023253 0.075374
vn -0.996842 0.014613 0.078054
vn -0.996655 -0.024197 0.078056
vn -0.994643 -0.063564 0.081512
vn -0.995021 -0.062653 0.077515
vn -0.824677 0.030662 0.564773
vn -0.823192 -0.039625 0.566379
vn -0.823766 -0.005860 0.566900
vn -0.820446 -0.073638 0.566962
vn -0.822429 -0.072985 0.564166
vn -0.824115 0.032928 0.565465
vn -0.824048 0.035329 0.565417
vn -0.824048 0.035329 0.565417
vn -0.430318 0.064796 0.900349
vn -0.429119 0.099255 0.897778
vn -0.429119 0.099255 0.897778
vn -0.431007 0.030179 0.901844
vn -0.430499 -0.024205 0.902266
vn -0.430155 -0.043895 0.901687
vn -0.429409 -0.063617 0.900867
vn -0.430370 -0.063463 0.900419
vn 0.000000 -1.000000 -0.000015
vn 0.000000 -1.000000 -0.000015
vn 0.000000 -1.000000 -0.000015
vn 0.000000 -1.000000 -0.000015
vn 0.000000 -1.000000 -0.000015
vn 0.000000 -1.000000 -0.000015
vn 0.000000 -1.000000 -0.000015
vn 0.000000 -1.000000 -0.000015
vn 0.000000 -1.000000 -0.000015
vn 0.000000 -1.000000 -0.000015
vn 0.000000 -1.000000 -0.000015
vn 0.000000 -1.000000 -0.000015
vn 0.000000 -1.000000 -0.000015
vn 0.000000 -1.000000 -0.000015
vn 0.000000 -1.000000 -0.000015
vn 0.000000 -1.000000 -0.000015
vn 0.000000 -1.000000 -0.000015
vn 0.000000 -1.000000 -0.000015
vn 0.000000 -1.000000 -0.000015
vn 0.000000 -1.000000 -0.000015
vn 0.000000 1.000000 -0.000015
vn 0.000000 1.000000 -0.000015
vn 0.000000 1.000000 -0.000015
vn 0.000000 1.000000 -0.000015
vn 0.000000 1.000000 -0.000015
vn 0.000000 1.000000 -0.000015
vn 0.000000 1.000000 -0.000015
vn 0.000000 1.000000 -0.000015
vn 0.000000 1.000000 -0.000015
vn 0.000000 1.000000 -0.000015
vn 0.000000 1.000000 -0.000015
vn 0.000000 1.000000 -0.000015
vn 0.000000 1.000000 -0.000015
vn 0.000000 1.000000 -0.000015
vn 0.000000 1.000000 -0.000015
vn 0.000000 1.000000 -0.000015
vn 0.000000 1.000000 -0.000015
vn 0.000000 1.000000 -0.000015
vn 0.000000 -1.000000 -0.000015
vn 0.000000 -1.000000 -0.000015
vn 0.000000 1.000000 -0.000015
vn 0.000000 1.000000 -0.000015
vn -0.000015 -0.000015 1.000000
vn -0.000015 -0.000015 1.000000
vn -0.000015 -0.000015 1.000000
vn -0.000015 -0.000015 1.000000
f 13/13/13 49/49/49 14/14/14
f 13/13/13 50/50/50 49/49/49
f 13/13/13 16/16/16 50/50/50
f 50/50/50 16/16/16 15/15/15
f 20/20/20 51/51/51 17/17/17
f 17/17/17 51/51/51 52/52/52
f 17/17/17 52/52/52 18/18/18
f 18/18/18 52/52/52 19/19/19
f 24/24/24 53/53/53 21/21/21
f 24/24/24 54/54/54 53/53/53
f 53/53/53 54/54/54 55/55/55
f 53/53/53 55/55/55 56/56/56
f 56/56/56 55/55/55 23/23/23
f 56/56/56 23/23/23 22/22/22
f 1/1/1 3/3/3 2/2/2
f 1/1/1 4/4/4 3/3/3
f 5/5/5 7/7/7 6/6/6
f 5/5/5 8/8/8 7/7/7
f 9/9/9 11/11/11 10/10/10
f 9/9/9 12/12/12 11/11/11
f 57/57/57 59/59/59 58/58/58
f 58/58/58 59/59/59 60/60/60
f 58/58/58 60/60/60 61/61/61
f 57/57/57 62/62/62 59/59/59
f 63/63/63 62/62/62 57/57/57
f 63/63/63 64/64/64 62/62/62
f 65/65/65 67/67/67 66/66/66
f 65/65/65 68/68/68 67/67/67
f 69/69/69 68/68/68 65/65/65
f 69/69/69 70/70/70 68/68/68
f 70/70/70 69/69/69 71/71/71
f 70/70/70 71/71/71 72/72/72
f 73/73/73 75/75/75 74/74/74
f 74/74/74 75/75/75 76/76/76
f 74/74/74 76/76/76 77/77/77
f 73/73/73 78/78/78 75/75/75
f 79/79/79 78/78/78 73/73/73
f 79/79/79 80/80/80 78/78/78
f 81/81/81 83/83/83 82/82/82
f 81/81/81 84/84/84 83/83/83
f 84/84/84 81/81/81 85/85/85
f 84/84/84 85/85/85 86/86/86
f 86/86/86 85/85/85 87/87/87
f 86/86/86 87/87/87 88/88/88
f 89/89/89 91/91/91 90/90/90
f 90/90/90 91/91/91 92/92/92
f 90/90/90 92/92/92 93/93/93
f 89/89/89 94/94/94 91/91/91
f 95/95/95 94/94/94 89/89/89
f 95/95/95 96/96/96 94/94/94
f 97/97/97 99/99/99 98/98/98
f 97/97/97 100/100/100 99/99/99
f 100/100/100 97/97/97 101/101/101
f 100/100/100 101/101/101 102/102/102
f 102/102/102 101/101/101 103/103/103
f 102/102/102 103/103/103 104/104/104
f 105/105/105 107/107/107 106/106/106
f 106/106/106 107/107/107 108/108/108
f 106/106/106 108/108/108 109/109/109
f 105/105/105 110/110/110 107/107/107
f 111/111/111 110/110/110 105/105/105
f 111/111/111 112/112/112 110/110/110
f 113/113/113 115/115/115 114/114/114
f 113/113/113 116/116/116 115/115/115
f 116/116/116 113/113/113 117/117/117
f 116/116/116 117/117/117 118/118/118
f 118/118/118 117/117/117 119/119/119
f 118/118/118 119/119/119 120/120/120
f 121/121/121 123/123/123 122/122/122
f 122/122/122 123/123/123 124/124/124
f 122/122/122 124/124/124 125/125/125
f 121/121/121 126/126/126 123/123/123
f 127/127/127 126/126/126 121/121/121
f 127/127/127 128/128/128 126/126/126
f 129/129/129 131/131/131 130/130/130
f 129/129/129 132/132/132 131/131/131
f 132/132/132 129/129/129 133/133/133
f 132/132/132 133/133/133 134/134/134
f 134/134/134 133/133/133 135/135/135
f 134/134/134 135/135/135 136/136/136
f 137/137/137 139/139/139 138/138/138
f 138/138/138 139/139/139 140/140/140
f 138/138/138 140/140/140 141/141/141
f 137/137/137 142/142/142 139/139/139
f 143/143/143 142/142/142 137/137/137
f 143/143/143 144/144/144 142/142/142
f 145/145/145 147/147/147 146/146/146
f 145/145/145 148/148/148 147/147/147
f 148/148/148 145/145/145 149/149/149
f 148/148/148 149/149/149 150/150/150
f 150/150/150 149/149/149 151/151/151
f 150/150/150 151/151/151 152/152/152
f 153/153/153 155/155/155 154/154/154
f 153/153/153 156/156/156 155/155/155
f 157/157/157 158/158/158 154/154/154
f 157/157/157 159/159/159 158/158/158
f 160/160/160 162/162/162 161/161/161
f 160/160/160 163/163/163 162/162/162
f 164/164/164 166/166/166 165/165/165
f 164/164/164 168/168/168 167/167/167
f 164/164/164 167/167/167 169/169/169
f 170/170/170 172/172/172 171/171/171
f 173/173/173 175/175/175 174/174/174
f 173/173/173 176/176/176 175/175/175
f 173/173/173 178/178/178 177/177/177
f 179/179/179 181/181/181 180/180/180
f 179/179/179 182/182/182 181/181/181
f 183/183/183 184/184/184 180/180/180
f 183/183/183 185/185/185 184/184/184
f 179/179/179 185/185/185 186/186/186
f 179/179/179 186/186/186 187/187/187
f 188/188/188 190/190/190 189/189/189
f 37/37/37 191/191/191 38/38/38
f 37/37/37 192/192/192 191/191/191
f 37/37/37 40/40/40 192/192/192
f 192/192/192 40/40/40 39/39/39
f 44/44/44 193/193/193 41/41/41
f 41/41/41 193/193/193 194/194/194
f 41/41/41 194/194/194 42/42/42
f 42/42/42 194/194/194 43/43/43
f 48/48/48 195/195/195 45/45/45
f 48/48/48 196/196/196 195/195/195
f 195/195/195 196/196/196 197/197/197
f 195/195/195 197/197/197 198/198/198
f 198/198/198 197/197/197 47/47/47
f 198/198/198 47/47/47 46/46/46
f 25/25/25 27/27/27 26/26/26
f 25/25/25 28/28/28 27/27/27
f 29/29/29 31/31/31 30/30/30
f 29/29/29 32/32/32 31/31/31
f 33/33/33 35/35/35 34/34/34
f 33/33/33 36/36/36 35/35/35
