# Densetsu Tool Suite OBJ Export
o thouse09_House1_Level1_SeperatorBeams__59
mtllib thouse09_House1_Level1_SeperatorBeams__59.mtl
g surface_0
usemtl Wood.007
v 2.551522 2.765512 6.254610
v 2.220491 2.765512 -1.812333
v 2.551516 2.765512 -1.812334
v 2.220498 2.765512 6.254610
v 2.551522 2.592669 6.254610
v 2.220491 2.592669 -1.812333
v 2.220498 2.592669 6.254610
v 2.551516 2.592669 -1.812334
v 2.220491 2.765512 -1.812333
v 2.551516 2.592669 -1.812334
v 2.551516 2.765512 -1.812334
v 2.220491 2.592669 -1.812333
v 2.220498 2.765512 6.254610
v 2.220491 2.592669 -1.812333
v 2.220491 2.765512 -1.812333
v 2.220498 2.592669 6.254610
v 2.551522 2.765512 6.254610
v 2.220498 2.592669 6.254610
v 2.220498 2.765512 6.254610
v 2.551522 2.592669 6.254610
v 2.551516 2.765512 -1.812334
v 2.551522 2.592669 6.254610
v 2.551522 2.765512 6.254610
v 2.551516 2.592669 -1.812334
v 2.227894 2.592669 5.916349
v -2.207533 2.592669 6.231349
v 2.227894 2.592669 6.231345
v -2.207533 2.592669 5.916353
v -2.207533 2.765515 6.231349
v 2.227894 2.765512 5.916349
v 2.227894 2.765512 6.231345
v -2.207533 2.765515 5.916353
v -2.207533 2.592669 6.231349
v 2.227894 2.765512 6.231345
v 2.227894 2.592669 6.231345
v -2.207533 2.765515 6.231349
v 2.227888 2.765512 -1.437267
v -2.207540 2.765512 -1.752259
v 2.227888 2.765512 -1.752263
v -2.207539 2.765512 -1.437263
v -2.207540 2.592669 -1.752259
v 2.227888 2.592669 -1.437267
v 2.227888 2.592669 -1.752263
v -2.207539 2.592669 -1.437263
v -2.207540 2.765512 -1.752259
v 2.227888 2.592669 -1.752263
v 2.227888 2.765512 -1.752263
v -2.207540 2.592669 -1.752259
v -2.207533 2.765512 6.254614
v -2.605052 2.765512 -1.812329
v -2.207540 2.765512 -1.812329
v -2.605045 2.765512 6.254614
v -2.207533 2.592669 6.254614
v -2.605052 2.592669 -1.812329
v -2.605045 2.592669 6.254614
v -2.207540 2.592669 -1.812329
v -2.605052 2.765512 -1.812329
v -2.207540 2.592669 -1.812329
v -2.207540 2.765512 -1.812329
v -2.605052 2.592669 -1.812329
v -2.605045 2.765512 6.254614
v -2.605052 2.592669 -1.812329
v -2.605052 2.765512 -1.812329
v -2.605045 2.592669 6.254614
v -2.207533 2.765512 6.254614
v -2.605045 2.592669 6.254614
v -2.605045 2.765512 6.254614
v -2.207533 2.592669 6.254614
v -2.207540 2.765512 -1.812329
v -2.207533 2.592669 6.254614
v -2.207533 2.765512 6.254614
v -2.207540 2.592669 -1.812329
vt 0.408974 1.861357
vt 0.550206 -1.668302
vt 0.408997 -1.668302
vt 0.550206 1.861357
vt 0.765160 1.861357
vt 0.623951 -1.668302
vt 0.623951 1.861357
vt 0.765184 -1.668302
vt 0.550206 -1.668302
vt 0.623951 -1.813093
vt 0.550206 -1.813093
vt 0.623951 -1.668302
vt 0.550206 1.861357
vt 0.623951 -1.668302
vt 0.550206 -1.668302
vt 0.623951 1.861357
vt 0.550183 2.006148
vt 0.623951 1.861357
vt 0.550206 1.861357
vt 0.623951 2.006148
vt 0.408997 -1.668302
vt 0.335228 1.861357
vt 0.408974 1.861357
vt 0.335228 -1.668302
vt 0.440452 1.272260
vt 0.314422 -0.547212
vt 0.314422 1.272260
vt 0.440452 -0.547212
vt 0.245277 -0.547212
vt 0.119247 1.272260
vt 0.245277 1.272260
vt 0.119247 -0.547212
vt 0.314422 -0.547212
vt 0.245277 1.272260
vt 0.314422 1.272260
vt 0.245277 -0.547212
vt 0.745545 1.174293
vt 0.619515 -0.645179
vt 0.619515 1.174293
vt 0.745545 -0.645179
vt 0.550369 -0.645179
vt 0.424339 1.174293
vt 0.550369 1.174293
vt 0.424339 -0.645179
vt 0.619515 -0.645179
vt 0.550369 1.174293
vt 0.619515 1.174293
vt 0.550369 -0.645179
vt 0.303680 1.866713
vt 0.473028 -1.657071
vt 0.303680 -1.657071
vt 0.473028 1.866713
vt 0.716005 1.866627
vt 0.546656 -1.657071
vt 0.546656 1.866713
vt 0.716005 -1.657071
vt 0.473028 -1.657071
vt 0.546656 -1.830717
vt 0.473028 -1.830803
vt 0.546656 -1.657071
vt 0.473028 1.866713
vt 0.546656 -1.657071
vt 0.473028 -1.657071
vt 0.546656 1.866713
vt 0.473028 2.040358
vt 0.546656 1.866713
vt 0.473028 1.866713
vt 0.546656 2.040358
vt 0.303680 -1.657071
vt 0.230051 1.866713
vt 0.303680 1.866713
vt 0.230051 -1.657071
vn 0.000031 1.000000 -0.000046
vn 0.000031 1.000000 -0.000046
vn 0.000031 1.000000 -0.000046
vn 0.000031 1.000000 -0.000046
vn 0.000000 -1.000000 -0.000015
vn 0.000000 -1.000000 -0.000015
vn 0.000000 -1.000000 -0.000015
vn 0.000000 -1.000000 -0.000015
vn -0.000092 0.000000 -1.000000
vn -0.000092 0.000000 -1.000000
vn -0.000092 0.000000 -1.000000
vn -0.000092 0.000000 -1.000000
vn -1.000000 0.000000 -0.000076
vn -1.000000 0.000000 -0.000076
vn -1.000000 0.000000 -0.000076
vn -1.000000 0.000000 -0.000076
vn -0.000076 -0.000137 1.000000
vn -0.000076 -0.000137 1.000000
vn -0.000076 -0.000137 1.000000
vn -0.000076 -0.000137 1.000000
vn 1.000000 0.000000 -0.000015
vn 1.000000 0.000000 -0.000015
vn 1.000000 0.000000 -0.000015
vn 1.000000 0.000000 -0.000015
vn 0.000000 -1.000000 -0.000015
vn 0.000000 -1.000000 -0.000015
vn 0.000000 -1.000000 -0.000015
vn 0.000000 -1.000000 -0.000015
vn -0.000015 1.000000 0.000015
vn -0.000015 1.000000 0.000015
vn -0.000015 1.000000 0.000015
vn -0.000015 1.000000 0.000015
vn -0.000076 -0.000137 1.000000
vn -0.000076 -0.000137 1.000000
vn -0.000076 -0.000137 1.000000
vn -0.000076 -0.000137 1.000000
vn -0.000015 1.000000 0.000015
vn -0.000015 1.000000 0.000015
vn -0.000015 1.000000 0.000015
vn -0.000015 1.000000 0.000015
vn 0.000000 -1.000000 -0.000015
vn 0.000000 -1.000000 -0.000015
vn 0.000000 -1.000000 -0.000015
vn 0.000000 -1.000000 -0.000015
vn 0.000122 0.000031 -1.000000
vn 0.000122 0.000031 -1.000000
vn 0.000122 0.000031 -1.000000
vn 0.000122 0.000031 -1.000000
vn 0.000031 1.000000 -0.000046
vn 0.000031 1.000000 -0.000046
vn 0.000031 1.000000 -0.000046
vn 0.000031 1.000000 -0.000046
vn 0.000000 -1.000000 -0.000015
vn 0.000000 -1.000000 -0.000015
vn 0.000000 -1.000000 -0.000015
vn 0.000000 -1.000000 -0.000015
vn -0.000092 0.000000 -1.000000
vn -0.000092 0.000000 -1.000000
vn -0.000092 0.000000 -1.000000
vn -0.000092 0.000000 -1.000000
vn -1.000000 0.000000 -0.000076
vn -1.000000 0.000000 -0.000076
vn -1.000000 0.000000 -0.000076
vn -1.000000 0.000000 -0.000076
vn -0.000076 -0.000137 1.000000
vn -0.000076 -0.000137 1.000000
vn -0.000076 -0.000137 1.000000
vn -0.000076 -0.000137 1.000000
vn 1.000000 0.000000 -0.000015
vn 1.000000 0.000000 -0.000015
vn 1.000000 0.000000 -0.000015
vn 1.000000 0.000000 -0.000015
f 1/1/1 3/3/3 2/2/2
f 4/4/4 1/1/1 2/2/2
f 5/5/5 7/7/7 6/6/6
f 8/8/8 5/5/5 6/6/6
f 9/9/9 11/11/11 10/10/10
f 12/12/12 9/9/9 10/10/10
f 13/13/13 15/15/15 14/14/14
f 16/16/16 13/13/13 14/14/14
f 17/17/17 19/19/19 18/18/18
f 20/20/20 17/17/17 18/18/18
f 21/21/21 23/23/23 22/22/22
f 24/24/24 21/21/21 22/22/22
f 25/25/25 27/27/27 26/26/26
f 28/28/28 25/25/25 26/26/26
f 29/29/29 31/31/31 30/30/30
f 32/32/32 29/29/29 30/30/30
f 33/33/33 35/35/35 34/34/34
f 36/36/36 33/33/33 34/34/34
f 37/37/37 39/39/39 38/38/38
f 40/40/40 37/37/37 38/38/38
f 41/41/41 43/43/43 42/42/42
f 44/44/44 41/41/41 42/42/42
f 45/45/45 47/47/47 46/46/46
f 48/48/48 45/45/45 46/46/46
f 49/49/49 51/51/51 50/50/50
f 52/52/52 49/49/49 50/50/50
f 53/53/53 55/55/55 54/54/54
f 56/56/56 53/53/53 54/54/54
f 57/57/57 59/59/59 58/58/58
f 60/60/60 57/57/57 58/58/58
f 61/61/61 63/63/63 62/62/62
f 64/64/64 61/61/61 62/62/62
f 65/65/65 67/67/67 66/66/66
f 68/68/68 65/65/65 66/66/66
f 69/69/69 71/71/71 70/70/70
f 72/72/72 69/69/69 70/70/70
