# Densetsu Tool Suite OBJ Export
o wall-window-wide-square_combined
mtllib wall-window-wide-square_combined.mtl
g surface_0
usemtl colormap
v -0.050000 2.400000 -2.000000
v -0.050000 0.000000 -2.000000
v 0.050000 0.000000 -2.000000
v 0.050000 2.400000 -2.000000
v 0.050000 2.400000 2.000000
v 0.050000 0.000000 2.000000
v -0.050000 0.000000 2.000000
v -0.050000 2.400000 2.000000
v -0.050000 2.400000 2.000000
v -0.050000 2.000000 1.500000
v -0.050000 2.000000 -1.500000
v -0.050000 2.400000 -2.000000
v -0.050000 0.000000 2.000000
v -0.050000 0.600000 -1.500000
v -0.050000 0.600000 1.500000
v -0.050000 0.000000 -2.000000
v 0.050000 0.000000 2.000000
v 0.050000 0.600000 1.500000
v 0.050000 0.600000 -1.500000
v 0.050000 0.000000 -2.000000
v 0.050000 2.400000 2.000000
v 0.050000 2.000000 -1.500000
v 0.050000 2.000000 1.500000
v 0.050000 2.400000 -2.000000
v -0.100000 1.900000 1.450000
v 0.100000 1.900000 1.450000
v 0.100000 1.900000 -1.450000
v -0.100000 1.900000 -1.450000
v -0.100000 2.000000 -1.500000
v -0.100000 0.700000 -1.450000
v -0.100000 0.600000 -1.500000
v -0.100000 0.600000 1.500000
v -0.100000 1.900000 -1.450000
v -0.100000 0.700000 1.450000
v -0.100000 2.000000 1.500000
v -0.100000 1.900000 1.450000
v 0.100000 0.600000 -1.500000
v 0.100000 1.900000 -1.450000
v 0.100000 2.000000 -1.500000
v 0.100000 2.000000 1.500000
v 0.100000 0.700000 -1.450000
v 0.100000 1.900000 1.450000
v 0.100000 0.600000 1.500000
v 0.100000 0.700000 1.450000
v -0.100000 0.700000 -1.450000
v 0.100000 0.700000 -1.450000
v 0.100000 0.700000 1.450000
v -0.100000 0.700000 1.450000
v -0.100000 0.700000 1.450000
v 0.100000 0.700000 1.450000
v 0.100000 1.900000 1.450000
v -0.100000 1.900000 1.450000
v 0.100000 1.900000 -1.450000
v 0.100000 0.700000 -1.450000
v -0.100000 0.700000 -1.450000
v -0.100000 1.900000 -1.450000
v -0.050000 2.000000 1.500000
v -0.100000 2.000000 1.500000
v -0.100000 2.000000 -1.500000
v -0.100000 0.600000 1.500000
v -0.050000 2.000000 -1.500000
v -0.050000 0.600000 1.500000
v -0.100000 0.600000 -1.500000
v -0.050000 0.600000 -1.500000
v 0.050000 0.600000 1.500000
v 0.050000 2.000000 1.500000
v 0.100000 2.000000 1.500000
v 0.050000 2.000000 -1.500000
v 0.100000 0.600000 1.500000
v 0.100000 2.000000 -1.500000
v 0.050000 0.600000 -1.500000
v 0.100000 0.600000 -1.500000
v -0.050000 2.400000 -2.000000
v 0.050000 2.400000 -2.000000
v 0.050000 2.400000 2.000000
v -0.050000 2.400000 2.000000
v -0.050000 1.950000 1.550000
v -0.050000 1.950000 -1.550000
v -0.050000 0.650000 -1.550000
v -0.050000 0.650000 1.550000
v 0.050000 0.650000 1.550000
v 0.050000 0.650000 -1.550000
v 0.050000 1.950000 -1.550000
v 0.050000 1.950000 1.550000
v -0.100000 0.650000 -1.550000
v -0.100000 1.950000 -1.550000
v -0.100000 0.650000 1.550000
v -0.100000 1.950000 1.550000
v 0.100000 1.950000 -1.550000
v 0.100000 0.650000 -1.550000
v 0.100000 1.950000 1.550000
v 0.100000 0.650000 1.550000
v -0.100000 1.950000 1.550000
v -0.050000 1.950000 1.550000
v -0.100000 0.650000 1.550000
v -0.100000 1.950000 -1.550000
v -0.050000 0.650000 1.550000
v -0.050000 1.950000 -1.550000
v -0.100000 0.650000 -1.550000
v -0.050000 0.650000 -1.550000
v 0.100000 1.950000 1.550000
v 0.050000 1.950000 1.550000
v 0.050000 0.650000 1.550000
v 0.100000 0.650000 1.550000
v 0.050000 1.950000 -1.550000
v 0.100000 1.950000 -1.550000
v 0.050000 0.650000 -1.550000
v 0.100000 0.650000 -1.550000
vt 0.593750 0.175000
vt 0.593750 0.075000
vt 0.593750 0.075000
vt 0.593750 0.175000
vt 0.593750 0.175000
vt 0.593750 0.075000
vt 0.593750 0.075000
vt 0.593750 0.175000
vt 0.593750 0.175000
vt 0.593750 0.158333
vt 0.593750 0.158333
vt 0.593750 0.175000
vt 0.593750 0.075000
vt 0.593750 0.100000
vt 0.593750 0.100000
vt 0.593750 0.075000
vt 0.343750 0.075000
vt 0.343750 0.100000
vt 0.343750 0.100000
vt 0.343750 0.075000
vt 0.343750 0.175000
vt 0.343750 0.158333
vt 0.343750 0.158333
vt 0.343750 0.175000
vt 0.718750 0.154167
vt 0.718750 0.154167
vt 0.718750 0.154167
vt 0.718750 0.154167
vt 0.718750 0.158333
vt 0.718750 0.104167
vt 0.718750 0.100000
vt 0.718750 0.100000
vt 0.718750 0.154167
vt 0.718750 0.104167
vt 0.718750 0.158333
vt 0.718750 0.154167
vt 0.718750 0.100000
vt 0.718750 0.154167
vt 0.718750 0.158333
vt 0.718750 0.158333
vt 0.718750 0.104167
vt 0.718750 0.154167
vt 0.718750 0.100000
vt 0.718750 0.104167
vt 0.718750 0.104167
vt 0.718750 0.104167
vt 0.718750 0.104167
vt 0.718750 0.104167
vt 0.718750 0.104167
vt 0.718750 0.104167
vt 0.718750 0.154167
vt 0.718750 0.154167
vt 0.718750 0.154167
vt 0.718750 0.104167
vt 0.718750 0.104167
vt 0.718750 0.154167
vt 0.718750 0.158333
vt 0.718750 0.158333
vt 0.718750 0.158333
vt 0.718750 0.100000
vt 0.718750 0.158333
vt 0.718750 0.100000
vt 0.718750 0.100000
vt 0.718750 0.100000
vt 0.718750 0.100000
vt 0.718750 0.158333
vt 0.718750 0.158333
vt 0.718750 0.158333
vt 0.718750 0.100000
vt 0.718750 0.158333
vt 0.718750 0.100000
vt 0.718750 0.100000
vt 0.468750 0.175000
vt 0.468750 0.175000
vt 0.468750 0.175000
vt 0.468750 0.175000
vt 0.593750 0.156250
vt 0.593750 0.156250
vt 0.593750 0.102083
vt 0.593750 0.102083
vt 0.343750 0.102083
vt 0.343750 0.102083
vt 0.343750 0.156250
vt 0.343750 0.156250
vt 0.718750 0.102083
vt 0.718750 0.156250
vt 0.718750 0.102083
vt 0.718750 0.156250
vt 0.718750 0.156250
vt 0.718750 0.102083
vt 0.718750 0.156250
vt 0.718750 0.102083
vt 0.718750 0.156250
vt 0.718750 0.156250
vt 0.718750 0.102083
vt 0.718750 0.156250
vt 0.718750 0.102083
vt 0.718750 0.156250
vt 0.718750 0.102083
vt 0.718750 0.102083
vt 0.718750 0.156250
vt 0.718750 0.156250
vt 0.718750 0.102083
vt 0.718750 0.102083
vt 0.718750 0.156250
vt 0.718750 0.156250
vt 0.718750 0.102083
vt 0.718750 0.102083
vn 0.000000 0.000000 -1.000000
vn 0.000000 0.000000 -1.000000
vn 0.000000 0.000000 -1.000000
vn 0.000000 0.000000 -1.000000
vn -0.000015 -0.000015 1.000000
vn -0.000015 -0.000015 1.000000
vn -0.000015 -0.000015 1.000000
vn -0.000015 -0.000015 1.000000
vn -1.000000 0.000000 -0.000015
vn -1.000000 0.000000 -0.000015
vn -1.000000 0.000000 -0.000015
vn -1.000000 0.000000 -0.000015
vn -1.000000 0.000000 -0.000015
vn -1.000000 0.000000 -0.000015
vn -1.000000 0.000000 -0.000015
vn -1.000000 0.000000 -0.000015
vn 1.000000 0.000000 -0.000015
vn 1.000000 0.000000 -0.000015
vn 1.000000 0.000000 -0.000015
vn 1.000000 0.000000 -0.000015
vn 1.000000 0.000000 -0.000015
vn 1.000000 0.000000 -0.000015
vn 1.000000 0.000000 -0.000015
vn 1.000000 0.000000 -0.000015
vn 0.000000 -1.000000 -0.000015
vn 0.000000 -1.000000 -0.000015
vn 0.000000 -1.000000 -0.000015
vn 0.000000 -1.000000 -0.000015
vn -1.000000 0.000000 -0.000015
vn -1.000000 0.000000 -0.000015
vn -1.000000 0.000000 -0.000015
vn -1.000000 0.000000 -0.000015
vn -1.000000 0.000000 -0.000015
vn -1.000000 0.000000 -0.000015
vn -1.000000 0.000000 -0.000015
vn -1.000000 0.000000 -0.000015
vn 1.000000 0.000000 -0.000015
vn 1.000000 0.000000 -0.000015
vn 1.000000 0.000000 -0.000015
vn 1.000000 0.000000 -0.000015
vn 1.000000 0.000000 -0.000015
vn 1.000000 0.000000 -0.000015
vn 1.000000 0.000000 -0.000015
vn 1.000000 0.000000 -0.000015
vn 0.000000 1.000000 -0.000015
vn 0.000000 1.000000 -0.000015
vn 0.000000 1.000000 -0.000015
vn 0.000000 1.000000 -0.000015
vn 0.000000 0.000000 -1.000000
vn 0.000000 0.000000 -1.000000
vn 0.000000 0.000000 -1.000000
vn 0.000000 0.000000 -1.000000
vn -0.000015 -0.000015 1.000000
vn -0.000015 -0.000015 1.000000
vn -0.000015 -0.000015 1.000000
vn -0.000015 -0.000015 1.000000
vn -0.000020 0.923874 0.382696
vn -0.000020 0.923874 0.382696
vn 0.000000 0.923897 -0.382641
vn -0.000020 -0.923894 0.382648
vn 0.000000 0.923897 -0.382641
vn -0.000020 -0.923894 0.382648
vn 0.000000 -0.923897 -0.382641
vn 0.000000 -0.923897 -0.382641
vn -0.000020 -0.923894 0.382648
vn -0.000020 0.923874 0.382696
vn -0.000020 0.923874 0.382696
vn 0.000000 0.923897 -0.382641
vn -0.000020 -0.923894 0.382648
vn 0.000000 0.923897 -0.382641
vn 0.000000 -0.923897 -0.382641
vn 0.000000 -0.923897 -0.382641
vn 0.000000 1.000000 -0.000015
vn 0.000000 1.000000 -0.000015
vn 0.000000 1.000000 -0.000015
vn 0.000000 1.000000 -0.000015
vn -1.000000 0.000000 -0.000015
vn -1.000000 0.000000 -0.000015
vn -1.000000 0.000000 -0.000015
vn -1.000000 0.000000 -0.000015
vn 1.000000 0.000000 -0.000015
vn 1.000000 0.000000 -0.000015
vn 1.000000 0.000000 -0.000015
vn 1.000000 0.000000 -0.000015
vn -1.000000 0.000000 -0.000015
vn -1.000000 0.000000 -0.000015
vn -1.000000 0.000000 -0.000015
vn -1.000000 0.000000 -0.000015
vn 1.000000 0.000000 -0.000015
vn 1.000000 0.000000 -0.000015
vn 1.000000 0.000000 -0.000015
vn 1.000000 0.000000 -0.000015
vn -0.000020 0.382648 0.923894
vn -0.000020 0.382648 0.923894
vn -0.000020 -0.382696 0.923874
vn 0.000000 0.382713 -0.923867
vn -0.000020 -0.382696 0.923874
vn 0.000000 0.382713 -0.923867
vn 0.000000 -0.382713 -0.923867
vn 0.000000 -0.382713 -0.923867
vn -0.000020 0.382648 0.923894
vn -0.000020 0.382648 0.923894
vn -0.000020 -0.382696 0.923874
vn -0.000020 -0.382696 0.923874
vn 0.000000 0.382713 -0.923867
vn 0.000000 0.382713 -0.923867
vn 0.000000 -0.382713 -0.923867
vn 0.000000 -0.382713 -0.923867
f 1/1/1 3/3/3 2/2/2
f 3/3/3 1/1/1 4/4/4
f 5/5/5 7/7/7 6/6/6
f 7/7/7 5/5/5 8/8/8
f 9/9/9 11/11/11 10/10/10
f 9/9/9 10/10/10 77/77/77
f 12/12/12 11/11/11 9/9/9
f 11/11/11 12/12/12 78/78/78
f 12/12/12 79/79/79 78/78/78
f 16/16/16 79/79/79 12/12/12
f 79/79/79 16/16/16 14/14/14
f 9/9/9 77/77/77 13/13/13
f 14/14/14 16/16/16 13/13/13
f 80/80/80 13/13/13 77/77/77
f 14/14/14 13/13/13 15/15/15
f 15/15/15 13/13/13 80/80/80
f 17/17/17 19/19/19 18/18/18
f 17/17/17 18/18/18 81/81/81
f 20/20/20 19/19/19 17/17/17
f 19/19/19 20/20/20 82/82/82
f 82/82/82 20/20/20 83/83/83
f 24/24/24 83/83/83 20/20/20
f 83/83/83 24/24/24 22/22/22
f 17/17/17 81/81/81 21/21/21
f 22/22/22 24/24/24 21/21/21
f 84/84/84 21/21/21 81/81/81
f 22/22/22 21/21/21 23/23/23
f 23/23/23 21/21/21 84/84/84
f 25/25/25 27/27/27 26/26/26
f 27/27/27 25/25/25 28/28/28
f 31/31/31 86/86/86 85/85/85
f 86/86/86 31/31/31 29/29/29
f 29/29/29 31/31/31 30/30/30
f 30/30/30 31/31/31 32/32/32
f 33/33/33 29/29/29 30/30/30
f 30/30/30 32/32/32 34/34/34
f 29/29/29 33/33/33 35/35/35
f 35/35/35 34/34/34 32/32/32
f 35/35/35 33/33/33 36/36/36
f 35/35/35 36/36/36 34/34/34
f 35/35/35 32/32/32 87/87/87
f 35/35/35 87/87/87 88/88/88
f 39/39/39 90/90/90 89/89/89
f 90/90/90 39/39/39 37/37/37
f 37/37/37 39/39/39 38/38/38
f 41/41/41 37/37/37 38/38/38
f 38/38/38 39/39/39 40/40/40
f 38/38/38 40/40/40 42/42/42
f 42/42/42 40/40/40 44/44/44
f 37/37/37 41/41/41 43/43/43
f 43/43/43 41/41/41 44/44/44
f 43/43/43 44/44/44 40/40/40
f 43/43/43 40/40/40 91/91/91
f 43/43/43 91/91/91 92/92/92
f 45/45/45 47/47/47 46/46/46
f 47/47/47 45/45/45 48/48/48
f 49/49/49 51/51/51 50/50/50
f 51/51/51 49/49/49 52/52/52
f 53/53/53 55/55/55 54/54/54
f 55/55/55 53/53/53 56/56/56
f 93/93/93 57/57/57 58/58/58
f 57/57/57 59/59/59 58/58/58
f 57/57/57 93/93/93 94/94/94
f 59/59/59 57/57/57 61/61/61
f 95/95/95 94/94/94 93/93/93
f 61/61/61 96/96/96 59/59/59
f 94/94/94 95/95/95 97/97/97
f 96/96/96 61/61/61 98/98/98
f 60/60/60 97/97/97 95/95/95
f 98/98/98 99/99/99 96/96/96
f 97/97/97 60/60/60 62/62/62
f 99/99/99 98/98/98 100/100/100
f 60/60/60 64/64/64 62/62/62
f 100/100/100 63/63/63 99/99/99
f 64/64/64 60/60/60 63/63/63
f 63/63/63 100/100/100 64/64/64
f 101/101/101 66/66/66 102/102/102
f 103/103/103 101/101/101 102/102/102
f 66/66/66 101/101/101 67/67/67
f 101/101/101 103/103/103 104/104/104
f 67/67/67 68/68/68 66/66/66
f 103/103/103 69/69/69 104/104/104
f 68/68/68 67/67/67 70/70/70
f 69/69/69 103/103/103 65/65/65
f 70/70/70 105/105/105 68/68/68
f 71/71/71 69/69/69 65/65/65
f 105/105/105 70/70/70 106/106/106
f 69/69/69 71/71/71 72/72/72
f 106/106/106 107/107/107 105/105/105
f 107/107/107 72/72/72 71/71/71
f 107/107/107 106/106/106 108/108/108
f 72/72/72 107/107/107 108/108/108
f 73/73/73 75/75/75 74/74/74
f 75/75/75 73/73/73 76/76/76
g surface_1
usemtl glass
v 0.000000 0.700000 1.450000
v 0.000000 0.700000 -1.450000
v 0.000000 1.900000 -1.450000
v 0.000000 1.900000 1.450000
v 0.000000 0.700000 -1.450000
v 0.000000 0.700000 1.450000
v 0.000000 1.900000 -1.450000
v 0.000000 1.900000 1.450000
vt 57.086613 0.000107
vt -57.086613 0.000107
vt -57.086613 47.244095
vt 57.086613 47.244095
vt -57.086613 0.000107
vt 57.086613 0.000107
vt -57.086613 47.244095
vt 57.086613 47.244095
vn -1.000000 -0.000015 0.000015
vn -1.000000 -0.000015 0.000015
vn -1.000000 -0.000015 0.000015
vn -1.000000 -0.000015 0.000015
vn 1.000000 -0.000031 -0.000015
vn 1.000000 -0.000031 -0.000015
vn 1.000000 -0.000031 -0.000015
vn 1.000000 -0.000031 -0.000015
f 109/109/109 111/111/111 110/110/110
f 111/111/111 109/109/109 112/112/112
f 113/113/113 115/115/115 114/114/114
f 116/116/116 114/114/114 115/115/115
